<svg width="65" height="42" viewBox="0 0 65 42" fill="none" xmlns="http://www.w3.org/2000/svg">
<g id="FinancialCloudLttr">
<g id="financialLttr">
<path d="M1.09294 35.2857L1.64967 34.9643L2.2064 35.2857L1.64967 35.6071L1.09294 35.2857ZM1.64967 34.9643L2.2064 34.6428L2.76313 34.9643L2.2064 35.2857L1.64967 34.9643ZM2.2064 35.2857L2.76313 34.9643L3.31986 35.2857L2.76313 35.6071L2.2064 35.2857ZM2.76313 35.6071L3.31986 35.2857L3.87659 35.6071L3.31986 35.9285L2.76313 35.6071ZM3.31986 35.9285L3.87659 35.6071L4.43332 35.9285L3.87659 36.25L3.31986 35.9285ZM2.76313 36.25L3.31986 35.9285L3.87659 36.25L3.31986 36.5714L2.76313 36.25ZM2.2064 35.9285L2.76313 35.6071L3.31986 35.9285L2.76313 36.25L2.2064 35.9285ZM1.64967 35.6071L2.2064 35.2857L2.76313 35.6071L2.2064 35.9285L1.64967 35.6071ZM3.31986 36.5714L3.87659 36.25L4.43332 36.5714L3.87659 36.8928L3.31986 36.5714ZM3.87659 36.8928L4.43332 36.5714L4.99006 36.8928L4.43332 37.2143L3.87659 36.8928ZM4.43332 37.2143L4.99006 36.8928L5.54679 37.2143L4.99006 37.5357L4.43332 37.2143ZM4.43332 36.5714L4.99006 36.25L5.54679 36.5714L4.99006 36.8928L4.43332 36.5714ZM3.87659 36.25L4.43332 35.9285L4.99006 36.25L4.43332 36.5714L3.87659 36.25ZM4.99006 36.8928L5.54679 36.5714L6.10352 36.8928L5.54679 37.2143L4.99006 36.8928ZM5.54679 37.2143L6.10352 36.8928L6.66025 37.2143L6.10352 37.5357L5.54679 37.2143ZM5.54679 37.8571L6.10352 37.5357L6.66025 37.8571L6.10352 38.1785L5.54679 37.8571ZM4.99006 37.5357L5.54679 37.2143L6.10352 37.5357L5.54679 37.8571L4.99006 37.5357ZM6.10352 38.1785L6.66025 37.8571L7.21698 38.1785L6.66025 38.5L6.10352 38.1785ZM6.66025 37.8571L7.21698 37.5357L7.77371 37.8571L7.21698 38.1785L6.66025 37.8571ZM6.10352 37.5357L6.66025 37.2143L7.21698 37.5357L6.66025 37.8571L6.10352 37.5357ZM2.2064 34.6428L2.76313 34.3214L3.31986 34.6428L2.76313 34.9643L2.2064 34.6428ZM2.76313 34.3214L3.31986 34L3.87659 34.3214L3.31986 34.6428L2.76313 34.3214ZM3.31986 34L3.87659 33.6785L4.43332 34L3.87659 34.3214L3.31986 34ZM3.87659 33.6785L4.43332 33.3571L4.99006 33.6785L4.43332 34L3.87659 33.6785ZM3.87659 34.3214L4.43332 34L4.99006 34.3214L4.43332 34.6428L3.87659 34.3214ZM3.31986 34.6428L3.87659 34.3214L4.43332 34.6428L3.87659 34.9643L3.31986 34.6428ZM2.76313 34.9643L3.31986 34.6428L3.87659 34.9643L3.31986 35.2857L2.76313 34.9643ZM4.99006 36.25L5.54679 35.9285L6.10352 36.25L5.54679 36.5714L4.99006 36.25ZM4.99006 35.6071L5.54679 35.2857L6.10352 35.6071L5.54679 35.9285L4.99006 35.6071ZM4.43332 35.9285L4.99006 35.6071L5.54679 35.9285L4.99006 36.25L4.43332 35.9285ZM5.54679 35.9285L6.10352 35.6071L6.66025 35.9285L6.10352 36.25L5.54679 35.9285ZM4.43332 34L4.99006 33.6785L5.54679 34L4.99006 34.3214L4.43332 34ZM5.54679 35.2857L6.10352 34.9643L6.66025 35.2857L6.10352 35.6071L5.54679 35.2857ZM6.10352 35.6071L6.66025 35.2857L7.21698 35.6071L6.66025 35.9285L6.10352 35.6071Z" fill="white"/>
<path d="M10.0006 35.9285L10.5574 35.6071L11.1141 35.9285L10.5574 36.25L10.0006 35.9285ZM10.5574 35.6071L11.1141 35.2857L11.6708 35.6071L11.1141 35.9285L10.5574 35.6071ZM10.0006 35.2857L10.5574 34.9643L11.1141 35.2857L10.5574 35.6071L10.0006 35.2857ZM9.4439 34.9643L10.0006 34.6428L10.5574 34.9643L10.0006 35.2857L9.4439 34.9643ZM8.88717 34.6428L9.4439 34.3214L10.0006 34.6428L9.4439 34.9643L8.88717 34.6428ZM8.33044 34.3214L8.88717 34L9.4439 34.3214L8.88717 34.6428L8.33044 34.3214ZM7.77371 34L8.33044 33.6785L8.88717 34L8.33044 34.3214L7.77371 34ZM7.21698 34.3214L7.77371 34L8.33044 34.3214L7.77371 34.6428L7.21698 34.3214ZM7.77371 34.6428L8.33044 34.3214L8.88717 34.6428L8.33044 34.9643L7.77371 34.6428ZM8.33044 34.9643L8.88717 34.6428L9.4439 34.9643L8.88717 35.2857L8.33044 34.9643ZM8.88717 35.2857L9.4439 34.9643L10.0006 35.2857L9.4439 35.6071L8.88717 35.2857ZM9.4439 35.6071L10.0006 35.2857L10.5574 35.6071L10.0006 35.9285L9.4439 35.6071ZM6.66025 34L7.21698 33.6785L7.77371 34L7.21698 34.3214L6.66025 34ZM7.21698 33.6785L7.77371 33.3571L8.33044 33.6785L7.77371 34L7.21698 33.6785ZM6.66025 33.3571L7.21698 33.0357L7.77371 33.3571L7.21698 33.6785L6.66025 33.3571ZM6.10352 33.0357L6.66025 32.7143L7.21698 33.0357L6.66025 33.3571L6.10352 33.0357ZM5.54679 32.7143L6.10352 32.3928L6.66025 32.7143L6.10352 33.0357L5.54679 32.7143ZM4.99006 33.0357L5.54679 32.7143L6.10352 33.0357L5.54679 33.3571L4.99006 33.0357ZM5.54679 33.3571L6.10352 33.0357L6.66025 33.3571L6.10352 33.6785L5.54679 33.3571ZM6.10352 33.6785L6.66025 33.3571L7.21698 33.6785L6.66025 34L6.10352 33.6785Z" fill="white"/>
<path d="M11.1184 32.7117L11.6752 32.3903L12.2319 32.7117L11.6752 33.0332L11.1184 32.7117ZM10.5617 32.3903L11.1184 32.0689L11.6752 32.3903L11.1184 32.7117L10.5617 32.3903ZM11.1184 32.0689L11.6752 31.7475L12.2319 32.0689L11.6752 32.3903L11.1184 32.0689ZM11.6752 32.3903L12.2319 32.0689L12.7886 32.3903L12.2319 32.7117L11.6752 32.3903ZM12.2319 32.7117L12.7886 32.3903L13.3454 32.7117L12.7886 33.0332L12.2319 32.7117ZM11.6752 33.0332L12.2319 32.7117L12.7886 33.0332L12.2319 33.3546L11.6752 33.0332ZM9.44825 31.7475L10.005 31.426L10.5617 31.7475L10.005 32.0689L9.44825 31.7475ZM10.005 32.0689L10.5617 31.7475L11.1184 32.0689L10.5617 32.3903L10.005 32.0689ZM10.005 32.7117L10.5617 32.3903L11.1184 32.7117L10.5617 33.0332L10.005 32.7117ZM9.44825 32.3903L10.005 32.0689L10.5617 32.3903L10.005 32.7117L9.44825 32.3903ZM8.89152 32.0689L9.44825 31.7475L10.005 32.0689L9.44825 32.3903L8.89152 32.0689ZM6.6646 32.0689L7.22133 31.7475L7.77806 32.0689L7.22133 32.3903L6.6646 32.0689ZM7.22133 31.7475L7.77806 31.426L8.33479 31.7475L7.77806 32.0689L7.22133 31.7475ZM7.77806 31.426L8.33479 31.1046L8.89152 31.426L8.33479 31.7475L7.77806 31.426ZM8.33479 31.7475L8.89152 31.426L9.44825 31.7475L8.89152 32.0689L8.33479 31.7475ZM7.77806 32.0689L8.33479 31.7475L8.89152 32.0689L8.33479 32.3903L7.77806 32.0689ZM7.22133 32.3903L7.77806 32.0689L8.33479 32.3903L7.77806 32.7117L7.22133 32.3903ZM7.77806 32.7117L8.33479 32.3903L8.89152 32.7117L8.33479 33.0332L7.77806 32.7117ZM8.33479 32.3903L8.89152 32.0689L9.44825 32.3903L8.89152 32.7117L8.33479 32.3903ZM8.89152 32.7117L9.44825 32.3903L10.005 32.7117L9.44825 33.0332L8.89152 32.7117ZM9.44825 33.0332L10.005 32.7117L10.5617 33.0332L10.005 33.3546L9.44825 33.0332ZM8.89152 33.3546L9.44825 33.0332L10.005 33.3546L9.44825 33.676L8.89152 33.3546ZM8.33479 33.0332L8.89152 32.7117L9.44825 33.0332L8.89152 33.3546L8.33479 33.0332ZM9.44825 33.676L10.005 33.3546L10.5617 33.676L10.005 33.9975L9.44825 33.676ZM10.005 33.3546L10.5617 33.0332L11.1184 33.3546L10.5617 33.676L10.005 33.3546ZM10.5617 33.676L11.1184 33.3546L11.6752 33.676L11.1184 33.9975L10.5617 33.676ZM11.1184 33.9975L11.6752 33.676L12.2319 33.9975L11.6752 34.3189L11.1184 33.9975ZM11.6752 34.3189L12.2319 33.9975L12.7886 34.3189L12.2319 34.6403L11.6752 34.3189ZM12.2319 34.6403L12.7886 34.3189L13.3454 34.6403L12.7886 34.9618L12.2319 34.6403ZM11.6752 34.9618L12.2319 34.6403L12.7886 34.9618L12.2319 35.2832L11.6752 34.9618ZM11.1184 34.6403L11.6752 34.3189L12.2319 34.6403L11.6752 34.9618L11.1184 34.6403ZM10.5617 34.3189L11.1184 33.9975L11.6752 34.3189L11.1184 34.6403L10.5617 34.3189ZM10.005 33.9975L10.5617 33.676L11.1184 33.9975L10.5617 34.3189L10.005 33.9975ZM12.7886 33.0332L13.3454 32.7117L13.9021 33.0332L13.3454 33.3546L12.7886 33.0332ZM13.3454 33.3546L13.9021 33.0332L14.4588 33.3546L13.9021 33.676L13.3454 33.3546ZM13.3454 32.7117L13.9021 32.3903L14.4588 32.7117L13.9021 33.0332L13.3454 32.7117ZM12.7886 32.3903L13.3454 32.0689L13.9021 32.3903L13.3454 32.7117L12.7886 32.3903ZM13.9021 33.0332L14.4588 32.7117L15.0156 33.0332L14.4588 33.3546L13.9021 33.0332ZM14.4588 33.3546L15.0156 33.0332L15.5723 33.3546L15.0156 33.676L14.4588 33.3546ZM15.0156 33.0332L15.5723 32.7117L16.129 33.0332L15.5723 33.3546L15.0156 33.0332ZM15.5723 32.7117L16.129 32.3903L16.6857 32.7117L16.129 33.0332L15.5723 32.7117ZM15.0156 32.3903L15.5723 32.0689L16.129 32.3903L15.5723 32.7117L15.0156 32.3903ZM14.4588 32.0689L15.0156 31.7475L15.5723 32.0689L15.0156 32.3903L14.4588 32.0689ZM13.9021 32.3903L14.4588 32.0689L15.0156 32.3903L14.4588 32.7117L13.9021 32.3903ZM14.4588 32.7117L15.0156 32.3903L15.5723 32.7117L15.0156 33.0332L14.4588 32.7117ZM13.3454 32.0689L13.9021 31.7475L14.4588 32.0689L13.9021 32.3903L13.3454 32.0689ZM13.3454 31.426L13.9021 31.1046L14.4588 31.426L13.9021 31.7475L13.3454 31.426ZM12.7886 31.1046L13.3454 30.7832L13.9021 31.1046L13.3454 31.426L12.7886 31.1046ZM13.9021 31.7475L14.4588 31.426L15.0156 31.7475L14.4588 32.0689L13.9021 31.7475ZM12.7886 31.7475L13.3454 31.426L13.9021 31.7475L13.3454 32.0689L12.7886 31.7475ZM12.2319 31.426L12.7886 31.1046L13.3454 31.426L12.7886 31.7475L12.2319 31.426ZM11.6752 31.1046L12.2319 30.7832L12.7886 31.1046L12.2319 31.426L11.6752 31.1046ZM12.2319 30.7832L12.7886 30.4617L13.3454 30.7832L12.7886 31.1046L12.2319 30.7832ZM11.6752 30.4617L12.2319 30.1403L12.7886 30.4617L12.2319 30.7832L11.6752 30.4617ZM10.005 30.1403L10.5617 29.8189L11.1184 30.1403L10.5617 30.4617L10.005 30.1403ZM10.5617 29.8189L11.1184 29.4975L11.6752 29.8189L11.1184 30.1403L10.5617 29.8189ZM11.1184 30.1403L11.6752 29.8189L12.2319 30.1403L11.6752 30.4617L11.1184 30.1403ZM10.5617 30.4617L11.1184 30.1403L11.6752 30.4617L11.1184 30.7832L10.5617 30.4617ZM11.1184 30.7832L11.6752 30.4617L12.2319 30.7832L11.6752 31.1046L11.1184 30.7832Z" fill="white"/>
<path d="M13.3483 28.8529L13.905 28.5315L14.4617 28.8529L13.905 29.1744L13.3483 28.8529ZM13.905 28.5315L14.4617 28.2101L15.0185 28.5315L14.4617 28.8529L13.905 28.5315ZM13.3483 28.2101L13.905 27.8886L14.4617 28.2101L13.905 28.5315L13.3483 28.2101ZM14.4617 28.2101L15.0185 27.8886L15.5752 28.2101L15.0185 28.5315L14.4617 28.2101ZM15.0185 28.5315L15.5752 28.2101L16.1319 28.5315L15.5752 28.8529L15.0185 28.5315ZM15.5752 28.2101L16.1319 27.8886L16.6886 28.2101L16.1319 28.5315L15.5752 28.2101ZM14.4617 28.8529L15.0185 28.5315L15.5752 28.8529L15.0185 29.1744L14.4617 28.8529ZM13.905 29.1744L14.4617 28.8529L15.0185 29.1744L14.4617 29.4958L13.905 29.1744ZM13.3483 29.4958L13.905 29.1744L14.4617 29.4958L13.905 29.8172L13.3483 29.4958ZM13.905 29.8172L14.4617 29.4958L15.0185 29.8172L14.4617 30.1386L13.905 29.8172ZM13.3483 30.1386L13.905 29.8172L14.4617 30.1386L13.905 30.4601L13.3483 30.1386ZM14.4617 29.4958L15.0185 29.1744L15.5752 29.4958L15.0185 29.8172L14.4617 29.4958ZM14.4617 30.1386L15.0185 29.8172L15.5752 30.1386L15.0185 30.4601L14.4617 30.1386ZM15.0185 30.4601L15.5752 30.1386L16.1319 30.4601L15.5752 30.7815L15.0185 30.4601ZM15.5752 30.7815L16.1319 30.4601L16.6886 30.7815L16.1319 31.1029L15.5752 30.7815ZM16.1319 30.4601L16.6886 30.1386L17.2454 30.4601L16.6886 30.7815L16.1319 30.4601ZM16.6886 30.1386L17.2454 29.8172L17.8021 30.1386L17.2454 30.4601L16.6886 30.1386ZM17.2454 29.8172L17.8021 29.4958L18.3588 29.8172L17.8021 30.1386L17.2454 29.8172ZM17.8021 29.4958L18.3588 29.1744L18.9156 29.4958L18.3588 29.8172L17.8021 29.4958ZM18.3588 29.1744L18.9156 28.8529L19.4723 29.1744L18.9156 29.4958L18.3588 29.1744ZM17.8021 28.8529L18.3588 28.5315L18.9156 28.8529L18.3588 29.1744L17.8021 28.8529ZM17.2454 28.5315L17.8021 28.2101L18.3588 28.5315L17.8021 28.8529L17.2454 28.5315ZM16.6886 28.2101L17.2454 27.8886L17.8021 28.2101L17.2454 28.5315L16.6886 28.2101ZM16.1319 28.5315L16.6886 28.2101L17.2454 28.5315L16.6886 28.8529L16.1319 28.5315ZM15.5752 28.8529L16.1319 28.5315L16.6886 28.8529L16.1319 29.1744L15.5752 28.8529ZM16.6886 28.8529L17.2454 28.5315L17.8021 28.8529L17.2454 29.1744L16.6886 28.8529ZM17.2454 29.1744L17.8021 28.8529L18.3588 29.1744L17.8021 29.4958L17.2454 29.1744ZM18.3588 29.8172L18.9156 29.4958L19.4723 29.8172L18.9156 30.1386L18.3588 29.8172ZM18.9156 29.4958L19.4723 29.1744L20.029 29.4958L19.4723 29.8172L18.9156 29.4958ZM19.4723 29.8172L20.029 29.4958L20.5858 29.8172L20.029 30.1386L19.4723 29.8172ZM20.029 30.1386L20.5858 29.8172L21.1425 30.1386L20.5858 30.4601L20.029 30.1386ZM19.4723 30.4601L20.029 30.1386L20.5858 30.4601L20.029 30.7815L19.4723 30.4601ZM18.9156 30.1386L19.4723 29.8172L20.029 30.1386L19.4723 30.4601L18.9156 30.1386ZM17.8021 30.1386L18.3588 29.8172L18.9156 30.1386L18.3588 30.4601L17.8021 30.1386ZM17.2454 30.4601L17.8021 30.1386L18.3588 30.4601L17.8021 30.7815L17.2454 30.4601ZM16.6886 30.7815L17.2454 30.4601L17.8021 30.7815L17.2454 31.1029L16.6886 30.7815ZM16.1319 31.1029L16.6886 30.7815L17.2454 31.1029L16.6886 31.4244L16.1319 31.1029ZM16.6886 31.4244L17.2454 31.1029L17.8021 31.4244L17.2454 31.7458L16.6886 31.4244ZM17.2454 31.7458L17.8021 31.4244L18.3588 31.7458L17.8021 32.0672L17.2454 31.7458ZM16.6886 32.0672L17.2454 31.7458L17.8021 32.0672L17.2454 32.3886L16.6886 32.0672ZM16.1319 31.7458L16.6886 31.4244L17.2454 31.7458L16.6886 32.0672L16.1319 31.7458ZM15.5752 31.4244L16.1319 31.1029L16.6886 31.4244L16.1319 31.7458L15.5752 31.4244ZM15.0185 31.1029L15.5752 30.7815L16.1319 31.1029L15.5752 31.4244L15.0185 31.1029ZM14.4617 30.7815L15.0185 30.4601L15.5752 30.7815L15.0185 31.1029L14.4617 30.7815ZM13.905 30.4601L14.4617 30.1386L15.0185 30.4601L14.4617 30.7815L13.905 30.4601Z" fill="white"/>
<path d="M20.5872 27.245L21.1439 26.9235L21.7007 27.245L21.1439 27.5664L20.5872 27.245ZM20.0305 26.9235L20.5872 26.6021L21.1439 26.9235L20.5872 27.245L20.0305 26.9235ZM20.5872 26.6021L21.1439 26.2807L21.7007 26.6021L21.1439 26.9235L20.5872 26.6021ZM21.1439 26.9235L21.7007 26.6021L22.2574 26.9235L21.7007 27.245L21.1439 26.9235ZM21.7007 27.245L22.2574 26.9235L22.8141 27.245L22.2574 27.5664L21.7007 27.245ZM21.1439 27.5664L21.7007 27.245L22.2574 27.5664L21.7007 27.8878L21.1439 27.5664ZM18.917 26.2807L19.4737 25.9592L20.0305 26.2807L19.4737 26.6021L18.917 26.2807ZM19.4737 26.6021L20.0305 26.2807L20.5872 26.6021L20.0305 26.9235L19.4737 26.6021ZM19.4737 27.245L20.0305 26.9235L20.5872 27.245L20.0305 27.5664L19.4737 27.245ZM18.917 26.9235L19.4737 26.6021L20.0305 26.9235L19.4737 27.245L18.917 26.9235ZM18.3603 26.6021L18.917 26.2807L19.4737 26.6021L18.917 26.9235L18.3603 26.6021ZM16.1334 26.6021L16.6901 26.2807L17.2468 26.6021L16.6901 26.9235L16.1334 26.6021ZM16.6901 26.2807L17.2468 25.9592L17.8036 26.2807L17.2468 26.6021L16.6901 26.2807ZM17.2468 25.9592L17.8036 25.6378L18.3603 25.9592L17.8036 26.2807L17.2468 25.9592ZM17.8036 26.2807L18.3603 25.9592L18.917 26.2807L18.3603 26.6021L17.8036 26.2807ZM17.2468 26.6021L17.8036 26.2807L18.3603 26.6021L17.8036 26.9235L17.2468 26.6021ZM16.6901 26.9235L17.2468 26.6021L17.8036 26.9235L17.2468 27.245L16.6901 26.9235ZM17.2468 27.245L17.8036 26.9235L18.3603 27.245L17.8036 27.5664L17.2468 27.245ZM17.8036 26.9235L18.3603 26.6021L18.917 26.9235L18.3603 27.245L17.8036 26.9235ZM18.3603 27.245L18.917 26.9235L19.4737 27.245L18.917 27.5664L18.3603 27.245ZM18.917 27.5664L19.4737 27.245L20.0305 27.5664L19.4738 27.8878L18.917 27.5664ZM18.3603 27.8878L18.917 27.5664L19.4738 27.8878L18.917 28.2092L18.3603 27.8878ZM17.8036 27.5664L18.3603 27.245L18.917 27.5664L18.3603 27.8878L17.8036 27.5664ZM18.917 28.2092L19.4738 27.8878L20.0305 28.2092L19.4737 28.5307L18.917 28.2092ZM19.4738 27.8878L20.0305 27.5664L20.5872 27.8878L20.0305 28.2092L19.4738 27.8878ZM20.0305 28.2092L20.5872 27.8878L21.1439 28.2092L20.5872 28.5307L20.0305 28.2092ZM20.5872 28.5307L21.1439 28.2092L21.7007 28.5307L21.1439 28.8521L20.5872 28.5307ZM21.1439 28.8521L21.7007 28.5307L22.2574 28.8521L21.7007 29.1735L21.1439 28.8521ZM21.7007 29.1735L22.2574 28.8521L22.8141 29.1735L22.2574 29.495L21.7007 29.1735ZM21.1439 29.495L21.7007 29.1735L22.2574 29.495L21.7007 29.8164L21.1439 29.495ZM20.5872 29.1735L21.1439 28.8521L21.7007 29.1735L21.1439 29.495L20.5872 29.1735ZM20.0305 28.8521L20.5872 28.5307L21.1439 28.8521L20.5872 29.1735L20.0305 28.8521ZM19.4737 28.5307L20.0305 28.2092L20.5872 28.5307L20.0305 28.8521L19.4737 28.5307ZM22.2574 27.5664L22.8141 27.245L23.3709 27.5664L22.8141 27.8878L22.2574 27.5664ZM22.8141 27.8878L23.3709 27.5664L23.9276 27.8878L23.3709 28.2092L22.8141 27.8878ZM22.8141 27.245L23.3709 26.9235L23.9276 27.245L23.3709 27.5664L22.8141 27.245ZM22.2574 26.9235L22.8141 26.6021L23.3709 26.9235L22.8141 27.245L22.2574 26.9235ZM23.3709 27.5664L23.9276 27.245L24.4843 27.5664L23.9276 27.8878L23.3709 27.5664ZM23.9276 27.8878L24.4843 27.5664L25.0411 27.8878L24.4843 28.2092L23.9276 27.8878ZM24.4843 27.5664L25.0411 27.245L25.5978 27.5664L25.0411 27.8878L24.4843 27.5664ZM25.0411 27.245L25.5978 26.9235L26.1545 27.245L25.5978 27.5664L25.0411 27.245ZM24.4843 26.9235L25.0411 26.6021L25.5978 26.9235L25.0411 27.245L24.4843 26.9235ZM23.9276 26.6021L24.4843 26.2807L25.0411 26.6021L24.4843 26.9235L23.9276 26.6021ZM23.3709 26.9235L23.9276 26.6021L24.4843 26.9235L23.9276 27.245L23.3709 26.9235ZM23.9276 27.245L24.4843 26.9235L25.0411 27.245L24.4843 27.5664L23.9276 27.245ZM22.8141 26.6021L23.3709 26.2807L23.9276 26.6021L23.3709 26.9235L22.8141 26.6021ZM22.8141 25.9592L23.3709 25.6378L23.9276 25.9592L23.3709 26.2807L22.8141 25.9592ZM22.2574 25.6378L22.8141 25.3164L23.3709 25.6378L22.8141 25.9592L22.2574 25.6378ZM23.3709 26.2807L23.9276 25.9592L24.4843 26.2807L23.9276 26.6021L23.3709 26.2807ZM22.2574 26.2807L22.8141 25.9592L23.3709 26.2807L22.8141 26.6021L22.2574 26.2807ZM21.7007 25.9592L22.2574 25.6378L22.8141 25.9592L22.2574 26.2807L21.7007 25.9592ZM21.1439 25.6378L21.7007 25.3164L22.2574 25.6378L21.7007 25.9592L21.1439 25.6378ZM21.7007 25.3164L22.2574 24.995L22.8141 25.3164L22.2574 25.6378L21.7007 25.3164ZM21.1439 24.995L21.7007 24.6735L22.2574 24.995L21.7007 25.3164L21.1439 24.995ZM19.4738 24.6735L20.0305 24.3521L20.5872 24.6735L20.0305 24.995L19.4738 24.6735ZM20.0305 24.3521L20.5872 24.0307L21.1439 24.3521L20.5872 24.6735L20.0305 24.3521ZM20.5872 24.6735L21.1439 24.3521L21.7007 24.6735L21.1439 24.995L20.5872 24.6735ZM20.0305 24.995L20.5872 24.6735L21.1439 24.995L20.5872 25.3164L20.0305 24.995ZM20.5872 25.3164L21.1439 24.995L21.7007 25.3164L21.1439 25.6378L20.5872 25.3164Z" fill="white"/>
<path d="M22.2603 23.0647L22.817 22.7433L23.3738 23.0647L22.817 23.3861L22.2603 23.0647ZM21.7036 23.3861L22.2603 23.0647L22.817 23.3861L22.2603 23.7076L21.7036 23.3861ZM22.2603 23.7076L22.817 23.3861L23.3738 23.7076L22.817 24.029L22.2603 23.7076ZM22.817 23.3861L23.3738 23.0647L23.9305 23.3861L23.3738 23.7076L22.817 23.3861ZM23.3738 23.0647L23.9305 22.7433L24.4872 23.0647L23.9305 23.3861L23.3738 23.0647ZM22.817 22.7433L23.3738 22.4218L23.9305 22.7433L23.3738 23.0647L22.817 22.7433ZM23.3738 22.4218L23.9305 22.1004L24.4872 22.4218L23.9305 22.7433L23.3738 22.4218ZM23.9305 22.1004L24.4872 21.779L25.044 22.1004L24.4872 22.4218L23.9305 22.1004ZM24.4872 22.4218L25.044 22.1004L25.6007 22.4218L25.044 22.7433L24.4872 22.4218ZM23.9305 22.7433L24.4872 22.4218L25.044 22.7433L24.4872 23.0647L23.9305 22.7433ZM25.044 22.7433L25.6007 22.4218L26.1574 22.7433L25.6007 23.0647L25.044 22.7433ZM25.044 22.1004L25.6007 21.779L26.1574 22.1004L25.6007 22.4218L25.044 22.1004ZM25.6007 22.4218L26.1574 22.1004L26.7141 22.4218L26.1574 22.7433L25.6007 22.4218ZM28.3843 24.029L28.9411 23.7076L29.4978 24.029L28.9411 24.3504L28.3843 24.029ZM28.9411 24.3504L29.4978 24.029L30.0545 24.3504L29.4978 24.6718L28.9411 24.3504ZM28.3843 24.6718L28.9411 24.3504L29.4978 24.6718L28.9411 24.9933L28.3843 24.6718ZM27.8276 24.3504L28.3843 24.029L28.9411 24.3504L28.3843 24.6718L27.8276 24.3504ZM27.8276 24.9933L28.3843 24.6718L28.9411 24.9933L28.3843 25.3147L27.8276 24.9933ZM28.9411 24.9933L29.4978 24.6718L30.0545 24.9933L29.4978 25.3147L28.9411 24.9933ZM28.3843 25.3147L28.9411 24.9933L29.4978 25.3147L28.9411 25.6361L28.3843 25.3147ZM27.8276 25.6361L28.3843 25.3147L28.9411 25.6361L28.3843 25.9576L27.8276 25.6361ZM27.2709 25.3147L27.8276 24.9933L28.3843 25.3147L27.8276 25.6361L27.2709 25.3147ZM27.2709 25.9576L27.8276 25.6361L28.3843 25.9576L27.8276 26.279L27.2709 25.9576ZM26.7141 26.279L27.2709 25.9576L27.8276 26.279L27.2709 26.6004L26.7141 26.279ZM26.1574 25.9576L26.7141 25.6361L27.2709 25.9576L26.7141 26.279L26.1574 25.9576ZM26.7141 25.6361L27.2709 25.3147L27.8276 25.6361L27.2709 25.9576L26.7141 25.6361ZM26.1574 25.3147L26.7141 24.9933L27.2709 25.3147L26.7141 25.6361L26.1574 25.3147ZM25.6007 25.6361L26.1574 25.3147L26.7141 25.6361L26.1574 25.9576L25.6007 25.6361ZM25.6007 26.279L26.1574 25.9576L26.7141 26.279L26.1574 26.6004L25.6007 26.279ZM25.044 25.9576L25.6007 25.6361L26.1574 25.9576L25.6007 26.279L25.044 25.9576ZM24.4872 25.6361L25.044 25.3147L25.6007 25.6361L25.044 25.9576L24.4872 25.6361ZM23.9305 25.3147L24.4872 24.9933L25.044 25.3147L24.4872 25.6361L23.9305 25.3147ZM23.3738 24.9933L23.9305 24.6718L24.4872 24.9933L23.9305 25.3147L23.3738 24.9933ZM22.817 24.6718L23.3738 24.3504L23.9305 24.6718L23.3738 24.9933L22.817 24.6718ZM22.2603 24.3504L22.817 24.029L23.3738 24.3504L22.817 24.6718L22.2603 24.3504ZM22.817 24.029L23.3738 23.7076L23.9305 24.029L23.3738 24.3504L22.817 24.029ZM21.7036 24.029L22.2603 23.7076L22.817 24.029L22.2603 24.3504L21.7036 24.029ZM23.3738 23.7076L23.9305 23.3861L24.4872 23.7076L23.9305 24.029L23.3738 23.7076ZM23.3738 24.3504L23.9305 24.029L24.4872 24.3504L23.9305 24.6718L23.3738 24.3504ZM23.9305 24.6718L24.4872 24.3504L25.044 24.6718L24.4872 24.9933L23.9305 24.6718ZM24.4872 24.9933L25.044 24.6718L25.6007 24.9933L25.044 25.3147L24.4872 24.9933ZM25.044 25.3147L25.6007 24.9933L26.1574 25.3147L25.6007 25.6361L25.044 25.3147Z" fill="white"/>
<path d="M30.6127 24.0282L31.1694 23.7067L31.7262 24.0282L31.1694 24.3496L30.6127 24.0282ZM31.1694 23.7067L31.7262 23.3853L32.2829 23.7067L31.7262 24.0282L31.1694 23.7067ZM30.6127 23.3853L31.1694 23.0639L31.7262 23.3853L31.1694 23.7067L30.6127 23.3853ZM30.056 23.0639L30.6127 22.7424L31.1694 23.0639L30.6127 23.3853L30.056 23.0639ZM29.4993 22.7424L30.056 22.421L30.6127 22.7424L30.056 23.0639L29.4993 22.7424ZM28.9425 22.421L29.4993 22.0996L30.056 22.421L29.4993 22.7424L28.9425 22.421ZM28.3858 22.0996L28.9425 21.7782L29.4993 22.0996L28.9425 22.421L28.3858 22.0996ZM27.8291 22.421L28.3858 22.0996L28.9425 22.421L28.3858 22.7424L27.8291 22.421ZM28.3858 22.7424L28.9425 22.421L29.4993 22.7424L28.9425 23.0639L28.3858 22.7424ZM28.9425 23.0639L29.4993 22.7424L30.056 23.0639L29.4993 23.3853L28.9425 23.0639ZM29.4993 23.3853L30.056 23.0639L30.6127 23.3853L30.056 23.7067L29.4993 23.3853ZM30.056 23.7067L30.6127 23.3853L31.1694 23.7067L30.6127 24.0282L30.056 23.7067ZM27.2723 22.0996L27.8291 21.7782L28.3858 22.0996L27.8291 22.421L27.2723 22.0996ZM27.8291 21.7782L28.3858 21.4567L28.9425 21.7782L28.3858 22.0996L27.8291 21.7782ZM27.2723 21.4567L27.8291 21.1353L28.3858 21.4567L27.8291 21.7782L27.2723 21.4567ZM26.7156 21.1353L27.2723 20.8139L27.8291 21.1353L27.2723 21.4567L26.7156 21.1353ZM26.1589 20.8139L26.7156 20.4924L27.2723 20.8139L26.7156 21.1353L26.1589 20.8139ZM25.6021 21.1353L26.1589 20.8139L26.7156 21.1353L26.1589 21.4567L25.6021 21.1353ZM26.1589 21.4567L26.7156 21.1353L27.2723 21.4567L26.7156 21.7782L26.1589 21.4567ZM26.7156 21.7782L27.2723 21.4567L27.8291 21.7782L27.2723 22.0996L26.7156 21.7782Z" fill="white"/>
<path d="M28.9469 19.8471L29.5036 19.5256L30.0603 19.8471L29.5036 20.1685L28.9469 19.8471ZM29.5036 19.5256L30.0603 19.2042L30.6171 19.5256L30.0603 19.8471L29.5036 19.5256ZM28.9469 19.2042L29.5036 18.8828L30.0603 19.2042L29.5036 19.5256L28.9469 19.2042ZM30.0603 19.2042L30.6171 18.8828L31.1738 19.2042L30.6171 19.5256L30.0603 19.2042ZM30.6171 19.5256L31.1738 19.2042L31.7305 19.5256L31.1738 19.8471L30.6171 19.5256ZM31.1738 19.2042L31.7305 18.8828L32.2873 19.2042L31.7305 19.5256L31.1738 19.2042ZM30.0603 19.8471L30.6171 19.5256L31.1738 19.8471L30.6171 20.1685L30.0603 19.8471ZM29.5036 20.1685L30.0603 19.8471L30.6171 20.1685L30.0603 20.4899L29.5036 20.1685ZM28.9469 20.4899L29.5036 20.1685L30.0603 20.4899L29.5036 20.8114L28.9469 20.4899ZM29.5036 20.8114L30.0603 20.4899L30.6171 20.8114L30.0603 21.1328L29.5036 20.8114ZM28.9469 21.1328L29.5036 20.8114L30.0603 21.1328L29.5036 21.4542L28.9469 21.1328ZM30.0603 20.4899L30.6171 20.1685L31.1738 20.4899L30.6171 20.8114L30.0603 20.4899ZM30.0603 21.1328L30.6171 20.8114L31.1738 21.1328L30.6171 21.4542L30.0603 21.1328ZM30.6171 21.4542L31.1738 21.1328L31.7305 21.4542L31.1738 21.7756L30.6171 21.4542ZM31.1738 21.7756L31.7305 21.4542L32.2873 21.7756L31.7305 22.0971L31.1738 21.7756ZM31.7305 21.4542L32.2873 21.1328L32.844 21.4542L32.2873 21.7756L31.7305 21.4542ZM32.2873 21.1328L32.844 20.8114L33.4007 21.1328L32.844 21.4542L32.2873 21.1328ZM32.844 20.8114L33.4007 20.4899L33.9574 20.8114L33.4007 21.1328L32.844 20.8114ZM33.4007 20.4899L33.9574 20.1685L34.5142 20.4899L33.9574 20.8114L33.4007 20.4899ZM33.9574 20.1685L34.5142 19.8471L35.0709 20.1685L34.5142 20.4899L33.9574 20.1685ZM33.4007 19.8471L33.9574 19.5256L34.5142 19.8471L33.9574 20.1685L33.4007 19.8471ZM32.844 19.5256L33.4007 19.2042L33.9574 19.5256L33.4007 19.8471L32.844 19.5256ZM32.2873 19.2042L32.844 18.8828L33.4007 19.2042L32.844 19.5256L32.2873 19.2042ZM31.7305 19.5256L32.2873 19.2042L32.844 19.5256L32.2873 19.8471L31.7305 19.5256ZM31.1738 19.8471L31.7305 19.5256L32.2873 19.8471L31.7305 20.1685L31.1738 19.8471ZM32.2873 19.8471L32.844 19.5256L33.4007 19.8471L32.844 20.1685L32.2873 19.8471ZM32.844 20.1685L33.4007 19.8471L33.9574 20.1685L33.4007 20.4899L32.844 20.1685ZM33.9574 20.8114L34.5142 20.4899L35.0709 20.8114L34.5142 21.1328L33.9574 20.8114ZM34.5142 20.4899L35.0709 20.1685L35.6276 20.4899L35.0709 20.8114L34.5142 20.4899ZM35.0709 20.8114L35.6276 20.4899L36.1844 20.8114L35.6276 21.1328L35.0709 20.8114ZM35.6276 21.1328L36.1844 20.8114L36.7411 21.1328L36.1844 21.4542L35.6276 21.1328ZM35.0709 21.4542L35.6276 21.1328L36.1844 21.4542L35.6276 21.7756L35.0709 21.4542ZM34.5142 21.1328L35.0709 20.8114L35.6276 21.1328L35.0709 21.4542L34.5142 21.1328ZM33.4007 21.1328L33.9574 20.8114L34.5142 21.1328L33.9574 21.4542L33.4007 21.1328ZM32.844 21.4542L33.4007 21.1328L33.9574 21.4542L33.4007 21.7756L32.844 21.4542ZM32.2873 21.7756L32.844 21.4542L33.4007 21.7756L32.844 22.0971L32.2873 21.7756ZM31.7305 22.0971L32.2873 21.7756L32.844 22.0971L32.2873 22.4185L31.7305 22.0971ZM32.2873 22.4185L32.844 22.0971L33.4007 22.4185L32.844 22.7399L32.2873 22.4185ZM32.844 22.7399L33.4007 22.4185L33.9574 22.7399L33.4007 23.0614L32.844 22.7399ZM32.2873 23.0614L32.844 22.7399L33.4007 23.0614L32.844 23.3828L32.2873 23.0614ZM31.7305 22.7399L32.2873 22.4185L32.844 22.7399L32.2873 23.0614L31.7305 22.7399ZM31.1738 22.4185L31.7305 22.0971L32.2873 22.4185L31.7305 22.7399L31.1738 22.4185ZM30.6171 22.0971L31.1738 21.7756L31.7305 22.0971L31.1738 22.4185L30.6171 22.0971ZM30.0603 21.7756L30.6171 21.4542L31.1738 21.7756L30.6171 22.0971L30.0603 21.7756ZM29.5036 21.4542L30.0603 21.1328L30.6171 21.4542L30.0603 21.7756L29.5036 21.4542Z" fill="white"/>
<path d="M31.732 17.5962L32.2887 17.2748L32.8454 17.5962L32.2887 17.9177L31.732 17.5962ZM32.2887 17.2748L32.8454 16.9534L33.4022 17.2748L32.8454 17.5962L32.2887 17.2748ZM32.8454 17.5962L33.4022 17.2748L33.9589 17.5962L33.4022 17.9177L32.8454 17.5962ZM33.4022 17.9177L33.9589 17.5962L34.5156 17.9177L33.9589 18.2391L33.4022 17.9177ZM33.9589 18.2391L34.5156 17.9177L35.0724 18.2391L34.5156 18.5605L33.9589 18.2391ZM33.4022 18.5605L33.9589 18.2391L34.5156 18.5605L33.9589 18.8819L33.4022 18.5605ZM32.8454 18.2391L33.4022 17.9177L33.9589 18.2391L33.4022 18.5605L32.8454 18.2391ZM32.2887 17.9177L32.8454 17.5962L33.4022 17.9177L32.8454 18.2391L32.2887 17.9177ZM33.9589 18.8819L34.5156 18.5605L35.0724 18.8819L34.5156 19.2034L33.9589 18.8819ZM34.5156 19.2034L35.0724 18.8819L35.6291 19.2034L35.0724 19.5248L34.5156 19.2034ZM35.0724 19.5248L35.6291 19.2034L36.1858 19.5248L35.6291 19.8462L35.0724 19.5248ZM35.0724 18.8819L35.6291 18.5605L36.1858 18.8819L35.6291 19.2034L35.0724 18.8819ZM34.5156 18.5605L35.0724 18.2391L35.6291 18.5605L35.0724 18.8819L34.5156 18.5605ZM35.6291 19.2034L36.1858 18.8819L36.7425 19.2034L36.1858 19.5248L35.6291 19.2034ZM36.1858 19.5248L36.7425 19.2034L37.2993 19.5248L36.7425 19.8462L36.1858 19.5248ZM36.1858 20.1677L36.7425 19.8462L37.2993 20.1677L36.7425 20.4891L36.1858 20.1677ZM35.6291 19.8462L36.1858 19.5248L36.7425 19.8462L36.1858 20.1677L35.6291 19.8462ZM36.7425 20.4891L37.2993 20.1677L37.856 20.4891L37.2993 20.8105L36.7425 20.4891ZM37.2993 20.1677L37.856 19.8462L38.4127 20.1677L37.856 20.4891L37.2993 20.1677ZM36.7425 19.8462L37.2993 19.5248L37.856 19.8462L37.2993 20.1677L36.7425 19.8462ZM37.856 19.8462L38.4127 19.5248L38.9695 19.8462L38.4127 20.1677L37.856 19.8462ZM38.4127 19.5248L38.9695 19.2034L39.5262 19.5248L38.9695 19.8462L38.4127 19.5248ZM38.9695 19.2034L39.5262 18.8819L40.0829 19.2034L39.5262 19.5248L38.9695 19.2034ZM38.4127 18.8819L38.9695 18.5605L39.5262 18.8819L38.9695 19.2034L38.4127 18.8819ZM37.856 19.2034L38.4127 18.8819L38.9695 19.2034L38.4127 19.5248L37.856 19.2034ZM37.2993 19.5248L37.856 19.2034L38.4127 19.5248L37.856 19.8462L37.2993 19.5248Z" fill="white"/>
<path d="M38.4069 13.7424L38.9637 13.421L39.5204 13.7424L38.9637 14.0639L38.4069 13.7424ZM37.8502 14.0639L38.4069 13.7424L38.9637 14.0639L38.4069 14.3853L37.8502 14.0639ZM38.4069 14.3853L38.9637 14.0639L39.5204 14.3853L38.9637 14.7067L38.4069 14.3853ZM38.9637 14.0639L39.5204 13.7424L40.0771 14.0639L39.5204 14.3853L38.9637 14.0639ZM39.5204 13.7424L40.0771 13.421L40.6339 13.7424L40.0771 14.0639L39.5204 13.7424ZM38.9637 13.421L39.5204 13.0996L40.0771 13.421L39.5204 13.7424L38.9637 13.421ZM39.5204 13.0996L40.0771 12.7782L40.6339 13.0996L40.0771 13.421L39.5204 13.0996ZM40.0771 12.7782L40.6339 12.4567L41.1906 12.7782L40.6339 13.0996L40.0771 12.7782ZM40.6339 13.0996L41.1906 12.7782L41.7473 13.0996L41.1906 13.421L40.6339 13.0996ZM40.0771 13.421L40.6339 13.0996L41.1906 13.421L40.6339 13.7424L40.0771 13.421ZM41.1906 13.421L41.7473 13.0996L42.3041 13.421L41.7473 13.7424L41.1906 13.421ZM41.1906 12.7782L41.7473 12.4567L42.3041 12.7782L41.7473 13.0996L41.1906 12.7782ZM41.7473 13.0996L42.3041 12.7782L42.8608 13.0996L42.3041 13.421L41.7473 13.0996ZM44.531 14.7067L45.0877 14.3853L45.6444 14.7067L45.0877 15.0282L44.531 14.7067ZM45.0877 15.0282L45.6444 14.7067L46.2012 15.0282L45.6444 15.3496L45.0877 15.0282ZM44.531 15.3496L45.0877 15.0282L45.6444 15.3496L45.0877 15.671L44.531 15.3496ZM43.9742 15.0282L44.531 14.7067L45.0877 15.0282L44.531 15.3496L43.9742 15.0282ZM43.9742 15.671L44.531 15.3496L45.0877 15.671L44.531 15.9924L43.9742 15.671ZM45.0877 15.671L45.6444 15.3496L46.2012 15.671L45.6444 15.9924L45.0877 15.671ZM44.531 15.9924L45.0877 15.671L45.6444 15.9924L45.0877 16.3139L44.531 15.9924ZM43.9742 16.3139L44.531 15.9924L45.0877 16.3139L44.531 16.6353L43.9742 16.3139ZM43.4175 15.9924L43.9742 15.671L44.531 15.9924L43.9742 16.3139L43.4175 15.9924ZM43.4175 16.6353L43.9742 16.3139L44.531 16.6353L43.9742 16.9567L43.4175 16.6353ZM42.8608 16.9567L43.4175 16.6353L43.9742 16.9567L43.4175 17.2782L42.8608 16.9567ZM42.3041 16.6353L42.8608 16.3139L43.4175 16.6353L42.8608 16.9567L42.3041 16.6353ZM42.8608 16.3139L43.4175 15.9924L43.9742 16.3139L43.4175 16.6353L42.8608 16.3139ZM42.3041 15.9924L42.8608 15.671L43.4175 15.9924L42.8608 16.3139L42.3041 15.9924ZM41.7473 16.3139L42.3041 15.9924L42.8608 16.3139L42.3041 16.6353L41.7473 16.3139ZM41.7473 16.9567L42.3041 16.6353L42.8608 16.9567L42.3041 17.2782L41.7473 16.9567ZM41.1906 16.6353L41.7473 16.3139L42.3041 16.6353L41.7473 16.9567L41.1906 16.6353ZM40.6339 16.3139L41.1906 15.9924L41.7473 16.3139L41.1906 16.6353L40.6339 16.3139ZM40.0771 15.9924L40.6339 15.671L41.1906 15.9924L40.6339 16.3139L40.0771 15.9924ZM39.5204 15.671L40.0771 15.3496L40.6339 15.671L40.0771 15.9924L39.5204 15.671ZM38.9637 15.3496L39.5204 15.0282L40.0771 15.3496L39.5204 15.671L38.9637 15.3496ZM38.4069 15.0282L38.9637 14.7067L39.5204 15.0282L38.9637 15.3496L38.4069 15.0282ZM38.9637 14.7067L39.5204 14.3853L40.0771 14.7067L39.5204 15.0282L38.9637 14.7067ZM37.8502 14.7067L38.4069 14.3853L38.9637 14.7067L38.4069 15.0282L37.8502 14.7067ZM39.5204 14.3853L40.0771 14.0639L40.6339 14.3853L40.0771 14.7067L39.5204 14.3853ZM39.5204 15.0282L40.0771 14.7067L40.6339 15.0282L40.0771 15.3496L39.5204 15.0282ZM40.0771 15.3496L40.6339 15.0282L41.1906 15.3496L40.6339 15.671L40.0771 15.3496ZM40.6339 15.671L41.1906 15.3496L41.7473 15.671L41.1906 15.9924L40.6339 15.671ZM41.1906 15.9924L41.7473 15.671L42.3041 15.9924L41.7473 16.3139L41.1906 15.9924Z" fill="white"/>
<path d="M41.7488 11.813L42.3055 11.4916L42.8622 11.813L42.3055 12.1345L41.7488 11.813ZM42.3055 11.4916L42.8622 11.1702L43.419 11.4916L42.8622 11.813L42.3055 11.4916ZM42.8622 11.813L43.419 11.4916L43.9757 11.813L43.419 12.1345L42.8622 11.813ZM43.419 12.1345L43.9757 11.813L44.5324 12.1345L43.9757 12.4559L43.419 12.1345ZM43.9757 12.4559L44.5324 12.1345L45.0892 12.4559L44.5324 12.7773L43.9757 12.4559ZM43.419 12.7773L43.9757 12.4559L44.5324 12.7773L43.9757 13.0987L43.419 12.7773ZM42.8622 12.4559L43.419 12.1345L43.9757 12.4559L43.419 12.7773L42.8622 12.4559ZM42.3055 12.1345L42.8622 11.813L43.419 12.1345L42.8622 12.4559L42.3055 12.1345ZM43.9757 13.0987L44.5324 12.7773L45.0892 13.0987L44.5324 13.4202L43.9757 13.0987ZM44.5324 13.4202L45.0892 13.0987L45.6459 13.4202L45.0892 13.7416L44.5324 13.4202ZM45.0892 13.7416L45.6459 13.4202L46.2026 13.7416L45.6459 14.063L45.0892 13.7416ZM45.0892 13.0987L45.6459 12.7773L46.2026 13.0987L45.6459 13.4202L45.0892 13.0987ZM44.5324 12.7773L45.0892 12.4559L45.6459 12.7773L45.0892 13.0987L44.5324 12.7773ZM45.6459 13.4202L46.2026 13.0987L46.7593 13.4202L46.2026 13.7416L45.6459 13.4202ZM46.2026 13.7416L46.7593 13.4202L47.3161 13.7416L46.7593 14.063L46.2026 13.7416ZM46.2026 14.3845L46.7593 14.063L47.3161 14.3845L46.7593 14.7059L46.2026 14.3845ZM45.6459 14.063L46.2026 13.7416L46.7593 14.063L46.2026 14.3845L45.6459 14.063ZM46.7593 14.7059L47.3161 14.3845L47.8728 14.7059L47.3161 15.0273L46.7593 14.7059ZM47.3161 14.3845L47.8728 14.063L48.4295 14.3845L47.8728 14.7059L47.3161 14.3845ZM46.7593 14.063L47.3161 13.7416L47.8728 14.063L47.3161 14.3845L46.7593 14.063ZM47.8728 14.063L48.4295 13.7416L48.9863 14.063L48.4295 14.3845L47.8728 14.063ZM48.4295 13.7416L48.9863 13.4202L49.543 13.7416L48.9863 14.063L48.4295 13.7416ZM48.9863 13.4202L49.543 13.0987L50.0997 13.4202L49.543 13.7416L48.9863 13.4202ZM48.4295 13.0987L48.9863 12.7773L49.543 13.0987L48.9863 13.4202L48.4295 13.0987ZM47.8728 13.4202L48.4295 13.0987L48.9863 13.4202L48.4295 13.7416L47.8728 13.4202ZM47.3161 13.7416L47.8728 13.4202L48.4295 13.7416L47.8728 14.063L47.3161 13.7416Z" fill="white"/>
<path d="M46.2012 9.24244L46.7579 8.92101L47.3146 9.24244L46.7579 9.56387L46.2012 9.24244ZM45.6444 9.56387L46.2012 9.24244L46.7579 9.56387L46.2012 9.8853L45.6444 9.56387ZM46.2012 9.8853L46.7579 9.56387L47.3146 9.8853L46.7579 10.2067L46.2012 9.8853ZM46.7579 9.56387L47.3146 9.24244L47.8714 9.56387L47.3146 9.8853L46.7579 9.56387ZM47.3146 9.24244L47.8714 8.92101L48.4281 9.24244L47.8714 9.56387L47.3146 9.24244ZM46.7579 8.92101L47.3146 8.59958L47.8714 8.92101L47.3146 9.24244L46.7579 8.92101ZM47.3146 8.59958L47.8714 8.27815L48.4281 8.59958L47.8714 8.92101L47.3146 8.59958ZM47.8714 8.27815L48.4281 7.95673L48.9848 8.27815L48.4281 8.59958L47.8714 8.27815ZM48.4281 8.59958L48.9848 8.27815L49.5416 8.59958L48.9848 8.92101L48.4281 8.59958ZM47.8714 8.92101L48.4281 8.59958L48.9848 8.92101L48.4281 9.24244L47.8714 8.92101ZM48.4281 9.24244L48.9848 8.92101L49.5416 9.24244L48.9848 9.56387L48.4281 9.24244ZM48.9848 8.92101L49.5416 8.59958L50.0983 8.92101L49.5416 9.24244L48.9848 8.92101ZM48.9848 8.27815L49.5416 7.95673L50.0983 8.27815L49.5416 8.59958L48.9848 8.27815ZM49.5416 8.59958L50.0983 8.27815L50.655 8.59958L50.0983 8.92101L49.5416 8.59958ZM50.0983 8.92101L50.655 8.59958L51.2117 8.92101L50.655 9.24244L50.0983 8.92101ZM50.655 9.24244L51.2117 8.92101L51.7685 9.24244L51.2117 9.56387L50.655 9.24244ZM51.2117 9.56387L51.7685 9.24244L52.3252 9.56387L51.7685 9.8853L51.2117 9.56387ZM51.7685 9.8853L52.3252 9.56387L52.8819 9.8853L52.3252 10.2067L51.7685 9.8853ZM52.3252 10.2067L52.8819 9.8853L53.4387 10.2067L52.8819 10.5282L52.3252 10.2067ZM52.8819 10.5282L53.4387 10.2067L53.9954 10.5282L53.4387 10.8496L52.8819 10.5282ZM52.3252 10.8496L52.8819 10.5282L53.4387 10.8496L52.8819 11.171L52.3252 10.8496ZM51.7685 10.5282L52.3252 10.2067L52.8819 10.5282L52.3252 10.8496L51.7685 10.5282ZM51.2117 10.2067L51.7685 9.8853L52.3252 10.2067L51.7685 10.5282L51.2117 10.2067ZM50.655 9.8853L51.2117 9.56387L51.7685 9.8853L51.2117 10.2067L50.655 9.8853ZM50.0983 9.56387L50.655 9.24244L51.2117 9.56387L50.655 9.8853L50.0983 9.56387ZM49.5416 9.24244L50.0983 8.92101L50.655 9.24244L50.0983 9.56387L49.5416 9.24244ZM51.2117 10.8496L51.7685 10.5282L52.3252 10.8496L51.7685 11.171L51.2117 10.8496ZM51.7685 11.171L52.3252 10.8496L52.8819 11.171L52.3252 11.4924L51.7685 11.171ZM52.8819 11.171L53.4387 10.8496L53.9954 11.171L53.4387 11.4924L52.8819 11.171ZM52.3252 11.4924L52.8819 11.171L53.4387 11.4924L52.8819 11.8139L52.3252 11.4924ZM51.7685 11.8139L52.3252 11.4924L52.8819 11.8139L52.3252 12.1353L51.7685 11.8139ZM51.2117 11.4924L51.7685 11.171L52.3252 11.4924L51.7685 11.8139L51.2117 11.4924ZM51.2117 12.1353L51.7685 11.8139L52.3252 12.1353L51.7685 12.4567L51.2117 12.1353ZM50.655 12.4567L51.2117 12.1353L51.7685 12.4567L51.2117 12.7782L50.655 12.4567ZM50.0983 12.1353L50.655 11.8139L51.2117 12.1353L50.655 12.4567L50.0983 12.1353ZM50.655 11.8139L51.2117 11.4924L51.7685 11.8139L51.2117 12.1353L50.655 11.8139ZM50.0983 11.4924L50.655 11.171L51.2117 11.4924L50.655 11.8139L50.0983 11.4924ZM49.5416 11.8139L50.0983 11.4924L50.655 11.8139L50.0983 12.1353L49.5416 11.8139ZM49.5416 12.4567L50.0983 12.1353L50.655 12.4567L50.0983 12.7782L49.5416 12.4567ZM48.9848 12.1353L49.5416 11.8139L50.0983 12.1353L49.5416 12.4567L48.9848 12.1353ZM48.4281 11.8139L48.9848 11.4924L49.5416 11.8139L48.9848 12.1353L48.4281 11.8139ZM47.8714 11.4924L48.4281 11.171L48.9848 11.4924L48.4281 11.8139L47.8714 11.4924ZM47.3146 11.171L47.8714 10.8496L48.4281 11.171L47.8714 11.4924L47.3146 11.171ZM46.7579 10.8496L47.3146 10.5282L47.8714 10.8496L47.3146 11.171L46.7579 10.8496ZM46.2012 10.5282L46.7579 10.2067L47.3146 10.5282L46.7579 10.8496L46.2012 10.5282ZM46.7579 10.2067L47.3146 9.8853L47.8714 10.2067L47.3146 10.5282L46.7579 10.2067ZM45.6444 10.2067L46.2012 9.8853L46.7579 10.2067L46.2012 10.5282L45.6444 10.2067ZM47.3146 9.8853L47.8714 9.56387L48.4281 9.8853L47.8714 10.2067L47.3146 9.8853ZM47.3146 10.5282L47.8714 10.2067L48.4281 10.5282L47.8714 10.8496L47.3146 10.5282ZM47.8714 10.8496L48.4281 10.5282L48.9848 10.8496L48.4281 11.171L47.8714 10.8496ZM48.4281 11.171L48.9848 10.8496L49.5416 11.171L48.9848 11.4924L48.4281 11.171ZM48.9848 11.4924L49.5416 11.171L50.0983 11.4924L49.5416 11.8139L48.9848 11.4924Z" fill="white"/>
<path d="M50.6565 7.31303L51.2132 6.9916L51.7699 7.31303L51.2132 7.63446L50.6565 7.31303ZM52.8834 6.02732L53.4401 5.70589L53.9968 6.02732L53.4401 6.34875L52.8834 6.02732ZM53.4401 6.34875L53.9968 6.02732L54.5536 6.34875L53.9968 6.67017L53.4401 6.34875ZM53.4401 5.70589L53.9968 5.38446L54.5536 5.70589L53.9968 6.02732L53.4401 5.70589ZM53.9968 6.02732L54.5536 5.70589L55.1103 6.02732L54.5536 6.34875L53.9968 6.02732ZM54.5536 6.34875L55.1103 6.02732L55.667 6.34875L55.1103 6.67017L54.5536 6.34875ZM55.1103 6.67017L55.667 6.34875L56.2238 6.67017L55.667 6.9916L55.1103 6.67017ZM55.667 6.9916L56.2238 6.67017L56.7805 6.9916L56.2238 7.31303L55.667 6.9916ZM56.2238 7.31303L56.7805 6.9916L57.3372 7.31303L56.7805 7.63446L56.2238 7.31303ZM56.7805 7.63446L57.3372 7.31303L57.894 7.63446L57.3372 7.95589L56.7805 7.63446ZM57.3372 7.95589L57.894 7.63446L58.4507 7.95589L57.894 8.27732L57.3372 7.95589ZM56.7805 8.27732L57.3372 7.95589L57.894 8.27732L57.3372 8.59875L56.7805 8.27732ZM56.2238 7.95589L56.7805 7.63446L57.3372 7.95589L56.7805 8.27732L56.2238 7.95589ZM55.667 7.63446L56.2238 7.31303L56.7805 7.63446L56.2238 7.95589L55.667 7.63446ZM55.1103 7.31303L55.667 6.9916L56.2238 7.31303L55.667 7.63446L55.1103 7.31303ZM54.5536 6.9916L55.1103 6.67017L55.667 6.9916L55.1103 7.31303L54.5536 6.9916ZM53.9968 6.67017L54.5536 6.34875L55.1103 6.67017L54.5536 6.9916L53.9968 6.67017ZM55.667 8.27732L56.2238 7.95589L56.7805 8.27732L56.2238 8.59875L55.667 8.27732ZM56.2238 8.59875L56.7805 8.27732L57.3372 8.59875L56.7805 8.92017L56.2238 8.59875ZM57.3372 8.59875L57.894 8.27732L58.4507 8.59875L57.894 8.92017L57.3372 8.59875ZM56.7805 8.92017L57.3372 8.59875L57.894 8.92017L57.3372 9.2416L56.7805 8.92017ZM56.2238 9.2416L56.7805 8.92017L57.3372 9.2416L56.7805 9.56303L56.2238 9.2416ZM55.667 8.92017L56.2238 8.59875L56.7805 8.92017L56.2238 9.2416L55.667 8.92017ZM55.667 9.56303L56.2238 9.2416L56.7805 9.56303L56.2238 9.88446L55.667 9.56303ZM55.1103 9.88446L55.667 9.56303L56.2238 9.88446L55.667 10.2059L55.1103 9.88446ZM54.5536 9.56303L55.1103 9.2416L55.667 9.56303L55.1103 9.88446L54.5536 9.56303ZM55.1103 9.2416L55.667 8.92017L56.2238 9.2416L55.667 9.56303L55.1103 9.2416ZM54.5536 8.92017L55.1103 8.59875L55.667 8.92017L55.1103 9.2416L54.5536 8.92017ZM53.9968 9.2416L54.5536 8.92017L55.1103 9.2416L54.5536 9.56303L53.9968 9.2416ZM53.9968 9.88446L54.5536 9.56303L55.1103 9.88446L54.5536 10.2059L53.9968 9.88446ZM53.4401 9.56303L53.9968 9.2416L54.5536 9.56303L53.9968 9.88446L53.4401 9.56303ZM52.8834 9.2416L53.4401 8.92017L53.9968 9.2416L53.4401 9.56303L52.8834 9.2416ZM52.3267 8.92017L52.8834 8.59875L53.4401 8.92017L52.8834 9.2416L52.3267 8.92017ZM51.7699 8.59875L52.3267 8.27732L52.8834 8.59875L52.3267 8.92017L51.7699 8.59875ZM51.2132 8.27732L51.7699 7.95589L52.3267 8.27732L51.7699 8.59875L51.2132 8.27732ZM50.6565 7.95589L51.2132 7.63446L51.7699 7.95589L51.2132 8.27732L50.6565 7.95589ZM51.2132 7.63446L51.7699 7.31303L52.3267 7.63446L51.7699 7.95589L51.2132 7.63446ZM50.0997 7.63446L50.6565 7.31303L51.2132 7.63446L50.6565 7.95589L50.0997 7.63446ZM51.7699 7.95589L52.3267 7.63446L52.8834 7.95589L52.3267 8.27732L51.7699 7.95589ZM52.3267 8.27732L52.8834 7.95589L53.4401 8.27732L52.8834 8.59875L52.3267 8.27732ZM52.8834 8.59875L53.4401 8.27732L53.9968 8.59875L53.4401 8.92017L52.8834 8.59875ZM53.4401 8.92017L53.9968 8.59875L54.5536 8.92017L53.9968 9.2416L53.4401 8.92017ZM49.543 7.31303L50.0997 6.9916L50.6565 7.31303L50.0997 7.63446L49.543 7.31303ZM50.0997 6.9916L50.6565 6.67017L51.2132 6.9916L50.6565 7.31303L50.0997 6.9916ZM52.3267 5.70589L52.8834 5.38446L53.4401 5.70589L52.8834 6.02732L52.3267 5.70589ZM52.8834 5.38446L53.4401 5.06303L53.9968 5.38446L53.4401 5.70589L52.8834 5.38446Z" fill="white"/>
<path d="M55.1118 4.09791L55.6685 3.77648L56.2252 4.09791L55.6685 4.41934L55.1118 4.09791ZM54.555 4.41934L55.1118 4.09791L55.6685 4.41934L55.1118 4.74077L54.555 4.41934ZM55.1118 4.74077L55.6685 4.41934L56.2252 4.74077L55.6685 5.06219L55.1118 4.74077ZM55.6685 4.41934L56.2252 4.09791L56.7819 4.41934L56.2252 4.74077L55.6685 4.41934ZM56.2252 4.09791L56.7819 3.77648L57.3387 4.09791L56.7819 4.41934L56.2252 4.09791ZM55.6685 3.77648L56.2252 3.45505L56.7819 3.77648L56.2252 4.09791L55.6685 3.77648ZM56.2252 3.45505L56.7819 3.13362L57.3387 3.45505L56.7819 3.77648L56.2252 3.45505ZM56.7819 3.13362L57.3387 2.8122L57.8954 3.13362L57.3387 3.45505L56.7819 3.13362ZM57.3387 3.45505L57.8954 3.13362L58.4521 3.45505L57.8954 3.77648L57.3387 3.45505ZM56.7819 3.77648L57.3387 3.45505L57.8954 3.77648L57.3387 4.09791L56.7819 3.77648ZM57.3387 4.09791L57.8954 3.77648L58.4521 4.09791L57.8954 4.41934L57.3387 4.09791ZM57.8954 3.77648L58.4521 3.45505L59.0089 3.77648L58.4521 4.09791L57.8954 3.77648ZM57.8954 3.13362L58.4521 2.81219L59.0089 3.13362L58.4521 3.45505L57.8954 3.13362ZM58.4521 3.45505L59.0089 3.13362L59.5656 3.45505L59.0089 3.77648L58.4521 3.45505ZM59.0089 3.77648L59.5656 3.45505L60.1223 3.77648L59.5656 4.09791L59.0089 3.77648ZM59.5656 4.09791L60.1223 3.77648L60.6791 4.09791L60.1223 4.41934L59.5656 4.09791ZM60.1223 4.41934L60.6791 4.09791L61.2358 4.41934L60.6791 4.74077L60.1223 4.41934ZM60.6791 4.74077L61.2358 4.41934L61.7925 4.74077L61.2358 5.06219L60.6791 4.74077ZM61.2358 5.06219L61.7925 4.74077L62.3493 5.06219L61.7925 5.38362L61.2358 5.06219ZM61.7925 5.38362L62.3493 5.06219L62.906 5.38362L62.3493 5.70505L61.7925 5.38362ZM61.2358 5.70505L61.7925 5.38362L62.3493 5.70505L61.7925 6.02648L61.2358 5.70505ZM60.6791 5.38362L61.2358 5.06219L61.7925 5.38362L61.2358 5.70505L60.6791 5.38362ZM60.1223 5.06219L60.6791 4.74077L61.2358 5.06219L60.6791 5.38362L60.1223 5.06219ZM59.5656 4.74077L60.1223 4.41934L60.6791 4.74077L60.1223 5.06219L59.5656 4.74077ZM59.0089 4.41934L59.5656 4.09791L60.1223 4.41934L59.5656 4.74077L59.0089 4.41934ZM58.4521 4.09791L59.0089 3.77648L59.5656 4.09791L59.0089 4.41934L58.4521 4.09791ZM60.1223 5.70505L60.6791 5.38362L61.2358 5.70505L60.6791 6.02648L60.1223 5.70505ZM60.6791 6.02648L61.2358 5.70505L61.7925 6.02648L61.2358 6.34791L60.6791 6.02648ZM61.7925 6.02648L62.3493 5.70505L62.906 6.02648L62.3493 6.34791L61.7925 6.02648ZM61.2358 6.34791L61.7925 6.02648L62.3493 6.34791L61.7925 6.66934L61.2358 6.34791ZM60.6791 6.66934L61.2358 6.34791L61.7925 6.66934L61.2358 6.99077L60.6791 6.66934ZM60.1223 6.34791L60.6791 6.02648L61.2358 6.34791L60.6791 6.66934L60.1223 6.34791ZM60.1223 6.99077L60.6791 6.66934L61.2358 6.99077L60.6791 7.31219L60.1223 6.99077ZM59.5656 7.31219L60.1223 6.99077L60.6791 7.31219L60.1223 7.63362L59.5656 7.31219ZM59.0089 6.99077L59.5656 6.66934L60.1223 6.99077L59.5656 7.31219L59.0089 6.99077ZM59.5656 6.66934L60.1223 6.34791L60.6791 6.66934L60.1223 6.99077L59.5656 6.66934ZM58.4521 6.66934L59.0089 6.34791L59.5656 6.66934L59.0089 6.99077L58.4521 6.66934ZM58.4521 7.31219L59.0089 6.99077L59.5656 7.31219L59.0089 7.63362L58.4521 7.31219ZM57.8954 6.99077L58.4521 6.66934L59.0089 6.99077L58.4521 7.31219L57.8954 6.99077ZM57.3387 6.66934L57.8954 6.34791L58.4521 6.66934L57.8954 6.99077L57.3387 6.66934ZM56.7819 6.34791L57.3387 6.02648L57.8954 6.34791L57.3387 6.66934L56.7819 6.34791ZM56.2252 6.02648L56.7819 5.70505L57.3387 6.02648L56.7819 6.34791L56.2252 6.02648ZM55.6685 5.70505L56.2252 5.38362L56.7819 5.70505L56.2252 6.02648L55.6685 5.70505ZM55.1118 5.38362L55.6685 5.06219L56.2252 5.38362L55.6685 5.70505L55.1118 5.38362ZM55.6685 5.06219L56.2252 4.74077L56.7819 5.06219L56.2252 5.38362L55.6685 5.06219ZM54.555 5.06219L55.1118 4.74077L55.6685 5.06219L55.1118 5.38362L54.555 5.06219ZM56.2252 5.38362L56.7819 5.06219L57.3387 5.38362L56.7819 5.70505L56.2252 5.38362ZM56.7819 5.70505L57.3387 5.38362L57.8954 5.70505L57.3387 6.02648L56.7819 5.70505ZM57.3387 6.02648L57.8954 5.70505L58.4521 6.02648L57.8954 6.34791L57.3387 6.02648ZM57.8954 6.34791L58.4521 6.02648L59.0089 6.34791L58.4521 6.66934L57.8954 6.34791ZM59.0089 7.63362L59.5656 7.31219L60.1223 7.63362L59.5656 7.95505L59.0089 7.63362ZM53.9983 4.74077L54.555 4.41934L55.1118 4.74077L54.555 5.06219L53.9983 4.74077Z" fill="white"/>
</g>
</g>
</svg>
