<svg width="75" height="48" viewBox="0 0 75 48" fill="none" xmlns="http://www.w3.org/2000/svg">
<rect width="75" height="48" fill="#F5F5F5"/>
<g id="FundManagementLttr">
<g id="fundLttr">
<path d="M2.09294 41.2857L2.64967 40.9643L3.2064 41.2857L2.64967 41.6071L2.09294 41.2857ZM2.64967 40.9643L3.2064 40.6428L3.76313 40.9643L3.2064 41.2857L2.64967 40.9643ZM3.2064 41.2857L3.76313 40.9643L4.31986 41.2857L3.76313 41.6071L3.2064 41.2857ZM3.76313 41.6071L4.31986 41.2857L4.87659 41.6071L4.31986 41.9285L3.76313 41.6071ZM4.31986 41.9285L4.87659 41.6071L5.43332 41.9285L4.87659 42.25L4.31986 41.9285ZM3.76313 42.25L4.31986 41.9285L4.87659 42.25L4.31986 42.5714L3.76313 42.25ZM3.2064 41.9285L3.76313 41.6071L4.31986 41.9285L3.76313 42.25L3.2064 41.9285ZM2.64967 41.6071L3.2064 41.2857L3.76313 41.6071L3.2064 41.9285L2.64967 41.6071ZM4.31986 42.5714L4.87659 42.25L5.43332 42.5714L4.87659 42.8928L4.31986 42.5714ZM4.87659 42.8928L5.43332 42.5714L5.99006 42.8928L5.43332 43.2143L4.87659 42.8928ZM5.43332 43.2143L5.99006 42.8928L6.54679 43.2143L5.99006 43.5357L5.43332 43.2143ZM5.43332 42.5714L5.99006 42.25L6.54679 42.5714L5.99006 42.8928L5.43332 42.5714ZM4.87659 42.25L5.43332 41.9285L5.99006 42.25L5.43332 42.5714L4.87659 42.25ZM5.99006 42.8928L6.54679 42.5714L7.10352 42.8928L6.54679 43.2143L5.99006 42.8928ZM6.54679 43.2143L7.10352 42.8928L7.66025 43.2143L7.10352 43.5357L6.54679 43.2143ZM6.54679 43.8571L7.10352 43.5357L7.66025 43.8571L7.10352 44.1785L6.54679 43.8571ZM5.99006 43.5357L6.54679 43.2143L7.10352 43.5357L6.54679 43.8571L5.99006 43.5357ZM7.10352 44.1785L7.66025 43.8571L8.21698 44.1785L7.66025 44.5L7.10352 44.1785ZM7.66025 43.8571L8.21698 43.5357L8.77371 43.8571L8.21698 44.1785L7.66025 43.8571ZM7.10352 43.5357L7.66025 43.2143L8.21698 43.5357L7.66025 43.8571L7.10352 43.5357ZM3.2064 40.6428L3.76313 40.3214L4.31986 40.6428L3.76313 40.9643L3.2064 40.6428ZM3.76313 40.3214L4.31986 40L4.87659 40.3214L4.31986 40.6428L3.76313 40.3214ZM4.31986 40L4.87659 39.6785L5.43332 40L4.87659 40.3214L4.31986 40ZM4.87659 39.6785L5.43332 39.3571L5.99006 39.6785L5.43332 40L4.87659 39.6785ZM4.87659 40.3214L5.43332 40L5.99006 40.3214L5.43332 40.6428L4.87659 40.3214ZM4.31986 40.6428L4.87659 40.3214L5.43332 40.6428L4.87659 40.9643L4.31986 40.6428ZM3.76313 40.9643L4.31986 40.6428L4.87659 40.9643L4.31986 41.2857L3.76313 40.9643ZM5.99006 42.25L6.54679 41.9285L7.10352 42.25L6.54679 42.5714L5.99006 42.25ZM5.99006 41.6071L6.54679 41.2857L7.10352 41.6071L6.54679 41.9285L5.99006 41.6071ZM5.43332 41.9285L5.99006 41.6071L6.54679 41.9285L5.99006 42.25L5.43332 41.9285ZM6.54679 41.9285L7.10352 41.6071L7.66025 41.9285L7.10352 42.25L6.54679 41.9285ZM5.43332 40L5.99006 39.6785L6.54679 40L5.99006 40.3214L5.43332 40ZM6.54679 41.2857L7.10352 40.9643L7.66025 41.2857L7.10352 41.6071L6.54679 41.2857ZM7.10352 41.6071L7.66025 41.2857L8.21698 41.6071L7.66025 41.9285L7.10352 41.6071Z" fill="white"/>
<path d="M7.10352 39.0357L7.66025 38.7143L8.21698 39.0357L7.66025 39.3571L7.10352 39.0357ZM9.33044 37.75L9.88717 37.4285L10.4439 37.75L9.88717 38.0714L9.33044 37.75ZM9.88717 38.0714L10.4439 37.75L11.0006 38.0714L10.4439 38.3928L9.88717 38.0714ZM9.88717 37.4285L10.4439 37.1071L11.0006 37.4285L10.4439 37.75L9.88717 37.4285ZM10.4439 37.75L11.0006 37.4285L11.5574 37.75L11.0006 38.0714L10.4439 37.75ZM11.0006 38.0714L11.5574 37.75L12.1141 38.0714L11.5574 38.3928L11.0006 38.0714ZM11.5574 38.3928L12.1141 38.0714L12.6708 38.3928L12.1141 38.7143L11.5574 38.3928ZM12.1141 38.7143L12.6708 38.3928L13.2276 38.7143L12.6708 39.0357L12.1141 38.7143ZM12.6708 39.0357L13.2276 38.7143L13.7843 39.0357L13.2276 39.3571L12.6708 39.0357ZM13.2276 39.3571L13.7843 39.0357L14.341 39.3571L13.7843 39.6785L13.2276 39.3571ZM13.7843 39.6785L14.341 39.3571L14.8977 39.6785L14.341 40L13.7843 39.6785ZM13.2276 40L13.7843 39.6785L14.341 40L13.7843 40.3214L13.2276 40ZM12.6708 39.6785L13.2276 39.3571L13.7843 39.6785L13.2276 40L12.6708 39.6785ZM12.1141 39.3571L12.6708 39.0357L13.2276 39.3571L12.6708 39.6785L12.1141 39.3571ZM11.5574 39.0357L12.1141 38.7143L12.6708 39.0357L12.1141 39.3571L11.5574 39.0357ZM11.0006 38.7143L11.5574 38.3928L12.1141 38.7143L11.5574 39.0357L11.0006 38.7143ZM10.4439 38.3928L11.0006 38.0714L11.5574 38.3928L11.0006 38.7143L10.4439 38.3928ZM12.1141 40L12.6708 39.6785L13.2276 40L12.6708 40.3214L12.1141 40ZM12.6708 40.3214L13.2276 40L13.7843 40.3214L13.2276 40.6428L12.6708 40.3214ZM13.7843 40.3214L14.341 40L14.8977 40.3214L14.341 40.6428L13.7843 40.3214ZM13.2276 40.6428L13.7843 40.3214L14.341 40.6428L13.7843 40.9643L13.2276 40.6428ZM12.6708 40.9643L13.2276 40.6428L13.7843 40.9643L13.2276 41.2857L12.6708 40.9643ZM12.1141 40.6428L12.6708 40.3214L13.2276 40.6428L12.6708 40.9643L12.1141 40.6428ZM12.1141 41.2857L12.6708 40.9643L13.2276 41.2857L12.6708 41.6071L12.1141 41.2857ZM11.5574 41.6071L12.1141 41.2857L12.6708 41.6071L12.1141 41.9285L11.5574 41.6071ZM11.0006 41.2857L11.5574 40.9643L12.1141 41.2857L11.5574 41.6071L11.0006 41.2857ZM11.5574 40.9643L12.1141 40.6428L12.6708 40.9643L12.1141 41.2857L11.5574 40.9643ZM11.0006 40.6428L11.5574 40.3214L12.1141 40.6428L11.5574 40.9643L11.0006 40.6428ZM10.4439 40.9643L11.0006 40.6428L11.5574 40.9643L11.0006 41.2857L10.4439 40.9643ZM10.4439 41.6071L11.0006 41.2857L11.5574 41.6071L11.0006 41.9285L10.4439 41.6071ZM9.88717 41.2857L10.4439 40.9643L11.0006 41.2857L10.4439 41.6071L9.88717 41.2857ZM9.33044 40.9643L9.88717 40.6428L10.4439 40.9643L9.88717 41.2857L9.33044 40.9643ZM8.77371 40.6428L9.33044 40.3214L9.88717 40.6428L9.33044 40.9643L8.77371 40.6428ZM8.21698 40.3214L8.77371 40L9.33044 40.3214L8.77371 40.6428L8.21698 40.3214ZM7.66025 40L8.21698 39.6785L8.77371 40L8.21698 40.3214L7.66025 40ZM7.10352 39.6785L7.66025 39.3571L8.21698 39.6785L7.66025 40L7.10352 39.6785ZM7.66025 39.3571L8.21698 39.0357L8.77371 39.3571L8.21698 39.6785L7.66025 39.3571ZM6.54679 39.3571L7.10352 39.0357L7.66025 39.3571L7.10352 39.6785L6.54679 39.3571ZM8.21698 39.6785L8.77371 39.3571L9.33044 39.6785L8.77371 40L8.21698 39.6785ZM8.77371 40L9.33044 39.6785L9.88717 40L9.33044 40.3214L8.77371 40ZM9.33044 40.3214L9.88717 40L10.4439 40.3214L9.88717 40.6428L9.33044 40.3214ZM9.88717 40.6428L10.4439 40.3214L11.0006 40.6428L10.4439 40.9643L9.88717 40.6428ZM5.99006 39.0357L6.54679 38.7143L7.10352 39.0357L6.54679 39.3571L5.99006 39.0357ZM6.54679 38.7143L7.10352 38.3928L7.66025 38.7143L7.10352 39.0357L6.54679 38.7143ZM8.77371 37.4285L9.33044 37.1071L9.88717 37.4285L9.33044 37.75L8.77371 37.4285ZM9.33044 37.1071L9.88717 36.7857L10.4439 37.1071L9.88717 37.4285L9.33044 37.1071Z" fill="white"/>
<path d="M14.8992 37.1063L15.4559 36.7849L16.0127 37.1063L15.4559 37.4277L14.8992 37.1063ZM14.3425 36.7849L14.8992 36.4634L15.4559 36.7849L14.8992 37.1063L14.3425 36.7849ZM14.8992 36.4634L15.4559 36.142L16.0127 36.4634L15.4559 36.7849L14.8992 36.4634ZM15.4559 36.7849L16.0127 36.4634L16.5694 36.7849L16.0127 37.1063L15.4559 36.7849ZM16.0127 37.1063L16.5694 36.7849L17.1261 37.1063L16.5694 37.4277L16.0127 37.1063ZM15.4559 37.4277L16.0127 37.1063L16.5694 37.4277L16.0127 37.7491L15.4559 37.4277ZM13.229 36.142L13.7857 35.8206L14.3425 36.142L13.7857 36.4634L13.229 36.142ZM13.7857 36.4634L14.3425 36.142L14.8992 36.4634L14.3425 36.7849L13.7857 36.4634ZM13.7857 37.1063L14.3425 36.7849L14.8992 37.1063L14.3425 37.4277L13.7857 37.1063ZM13.229 36.7849L13.7857 36.4634L14.3425 36.7849L13.7857 37.1063L13.229 36.7849ZM12.6723 36.4634L13.229 36.142L13.7857 36.4634L13.229 36.7849L12.6723 36.4634ZM10.4454 36.4634L11.0021 36.142L11.5588 36.4634L11.0021 36.7849L10.4454 36.4634ZM11.0021 36.142L11.5588 35.8206L12.1155 36.142L11.5588 36.4634L11.0021 36.142ZM11.5588 35.8206L12.1155 35.4991L12.6723 35.8206L12.1155 36.142L11.5588 35.8206ZM12.1155 36.142L12.6723 35.8206L13.229 36.142L12.6723 36.4634L12.1155 36.142ZM11.5588 36.4634L12.1155 36.142L12.6723 36.4634L12.1155 36.7849L11.5588 36.4634ZM11.0021 36.7849L11.5588 36.4634L12.1155 36.7849L11.5588 37.1063L11.0021 36.7849ZM11.5588 37.1063L12.1155 36.7849L12.6723 37.1063L12.1155 37.4277L11.5588 37.1063ZM12.1155 36.7849L12.6723 36.4634L13.229 36.7849L12.6723 37.1063L12.1155 36.7849ZM12.6723 37.1063L13.229 36.7849L13.7857 37.1063L13.229 37.4277L12.6723 37.1063ZM13.229 37.4277L13.7857 37.1063L14.3425 37.4277L13.7857 37.7491L13.229 37.4277ZM12.6723 37.7491L13.229 37.4277L13.7857 37.7491L13.229 38.0706L12.6723 37.7491ZM12.1155 37.4277L12.6723 37.1063L13.229 37.4277L12.6723 37.7491L12.1155 37.4277ZM13.229 38.0706L13.7857 37.7491L14.3425 38.0706L13.7857 38.392L13.229 38.0706ZM13.7857 37.7491L14.3425 37.4277L14.8992 37.7491L14.3425 38.0706L13.7857 37.7491ZM14.3425 38.0706L14.8992 37.7491L15.4559 38.0706L14.8992 38.392L14.3425 38.0706ZM14.8992 38.392L15.4559 38.0706L16.0127 38.392L15.4559 38.7134L14.8992 38.392ZM15.4559 38.7134L16.0127 38.392L16.5694 38.7134L16.0127 39.0349L15.4559 38.7134ZM16.0127 39.0349L16.5694 38.7134L17.1261 39.0349L16.5694 39.3563L16.0127 39.0349ZM15.4559 39.3563L16.0127 39.0349L16.5694 39.3563L16.0127 39.6777L15.4559 39.3563ZM14.8992 39.0349L15.4559 38.7134L16.0127 39.0349L15.4559 39.3563L14.8992 39.0349ZM14.3425 38.7134L14.8992 38.392L15.4559 38.7134L14.8992 39.0349L14.3425 38.7134ZM13.7857 38.392L14.3425 38.0706L14.8992 38.392L14.3425 38.7134L13.7857 38.392ZM16.5694 37.4277L17.1261 37.1063L17.6828 37.4277L17.1261 37.7491L16.5694 37.4277ZM17.1261 37.7491L17.6828 37.4277L18.2396 37.7491L17.6828 38.0706L17.1261 37.7491ZM17.1261 37.1063L17.6828 36.7849L18.2396 37.1063L17.6828 37.4277L17.1261 37.1063ZM16.5694 36.7849L17.1261 36.4634L17.6828 36.7849L17.1261 37.1063L16.5694 36.7849ZM17.6828 37.4277L18.2396 37.1063L18.7963 37.4277L18.2396 37.7491L17.6828 37.4277ZM18.2396 37.7491L18.7963 37.4277L19.353 37.7491L18.7963 38.0706L18.2396 37.7491ZM18.7963 37.4277L19.353 37.1063L19.9098 37.4277L19.353 37.7491L18.7963 37.4277ZM19.353 37.1063L19.9098 36.7849L20.4665 37.1063L19.9098 37.4277L19.353 37.1063ZM18.7963 36.7849L19.353 36.4634L19.9098 36.7849L19.353 37.1063L18.7963 36.7849ZM18.2396 36.4634L18.7963 36.142L19.353 36.4634L18.7963 36.7849L18.2396 36.4634ZM17.6828 36.7849L18.2396 36.4634L18.7963 36.7849L18.2396 37.1063L17.6828 36.7849ZM18.2396 37.1063L18.7963 36.7849L19.353 37.1063L18.7963 37.4277L18.2396 37.1063ZM17.1261 36.4634L17.6828 36.142L18.2396 36.4634L17.6828 36.7849L17.1261 36.4634ZM17.1261 35.8206L17.6828 35.4991L18.2396 35.8206L17.6828 36.142L17.1261 35.8206ZM16.5694 35.4991L17.1261 35.1777L17.6828 35.4991L17.1261 35.8206L16.5694 35.4991ZM17.6828 36.142L18.2396 35.8206L18.7963 36.142L18.2396 36.4634L17.6828 36.142ZM16.5694 36.142L17.1261 35.8206L17.6828 36.142L17.1261 36.4634L16.5694 36.142ZM16.0127 35.8206L16.5694 35.4991L17.1261 35.8206L16.5694 36.142L16.0127 35.8206ZM15.4559 35.4991L16.0127 35.1777L16.5694 35.4991L16.0127 35.8206L15.4559 35.4991ZM16.0127 35.1777L16.5694 34.8563L17.1261 35.1777L16.5694 35.4991L16.0127 35.1777ZM15.4559 34.8563L16.0127 34.5349L16.5694 34.8563L16.0127 35.1777L15.4559 34.8563ZM13.7857 34.5349L14.3425 34.2134L14.8992 34.5349L14.3425 34.8563L13.7857 34.5349ZM14.3425 34.2134L14.8992 33.892L15.4559 34.2134L14.8992 34.5349L14.3425 34.2134ZM14.8992 34.5349L15.4559 34.2134L16.0127 34.5349L15.4559 34.8563L14.8992 34.5349ZM14.3425 34.8563L14.8992 34.5349L15.4559 34.8563L14.8992 35.1777L14.3425 34.8563ZM14.8992 35.1777L15.4559 34.8563L16.0127 35.1777L15.4559 35.4991L14.8992 35.1777Z" fill="white"/>
<path d="M16.5723 32.926L17.129 32.6046L17.6857 32.926L17.129 33.2475L16.5723 32.926ZM16.0156 33.2475L16.5723 32.926L17.129 33.2475L16.5723 33.5689L16.0156 33.2475ZM16.5723 33.5689L17.129 33.2475L17.6857 33.5689L17.129 33.8903L16.5723 33.5689ZM17.129 33.2475L17.6857 32.926L18.2425 33.2475L17.6857 33.5689L17.129 33.2475ZM17.6857 32.926L18.2425 32.6046L18.7992 32.926L18.2425 33.2475L17.6857 32.926ZM17.129 32.6046L17.6857 32.2832L18.2425 32.6046L17.6857 32.926L17.129 32.6046ZM17.6857 32.2832L18.2425 31.9617L18.7992 32.2832L18.2425 32.6046L17.6857 32.2832ZM18.2425 31.9617L18.7992 31.6403L19.3559 31.9617L18.7992 32.2832L18.2425 31.9617ZM18.7992 32.2832L19.3559 31.9617L19.9127 32.2832L19.3559 32.6046L18.7992 32.2832ZM18.2425 32.6046L18.7992 32.2832L19.3559 32.6046L18.7992 32.926L18.2425 32.6046ZM18.7992 32.926L19.3559 32.6046L19.9127 32.926L19.3559 33.2475L18.7992 32.926ZM19.3559 32.6046L19.9127 32.2832L20.4694 32.6046L19.9127 32.926L19.3559 32.6046ZM19.3559 31.9617L19.9127 31.6403L20.4694 31.9617L19.9127 32.2832L19.3559 31.9617ZM19.9127 32.2832L20.4694 31.9617L21.0261 32.2832L20.4694 32.6046L19.9127 32.2832ZM20.4694 32.6046L21.0261 32.2832L21.5829 32.6046L21.0261 32.926L20.4694 32.6046ZM21.0261 32.926L21.5829 32.6046L22.1396 32.926L21.5829 33.2475L21.0261 32.926ZM21.5829 33.2475L22.1396 32.926L22.6963 33.2475L22.1396 33.5689L21.5829 33.2475ZM22.1396 33.5689L22.6963 33.2475L23.2531 33.5689L22.6963 33.8903L22.1396 33.5689ZM22.6963 33.8903L23.2531 33.5689L23.8098 33.8903L23.2531 34.2117L22.6963 33.8903ZM23.2531 34.2117L23.8098 33.8903L24.3665 34.2117L23.8098 34.5332L23.2531 34.2117ZM22.6963 34.5332L23.2531 34.2117L23.8098 34.5332L23.2531 34.8546L22.6963 34.5332ZM22.1396 34.2117L22.6963 33.8903L23.2531 34.2117L22.6963 34.5332L22.1396 34.2117ZM21.5829 33.8903L22.1396 33.5689L22.6963 33.8903L22.1396 34.2117L21.5829 33.8903ZM21.0261 33.5689L21.5829 33.2475L22.1396 33.5689L21.5829 33.8903L21.0261 33.5689ZM20.4694 33.2475L21.0261 32.926L21.5829 33.2475L21.0261 33.5689L20.4694 33.2475ZM19.9127 32.926L20.4694 32.6046L21.0261 32.926L20.4694 33.2475L19.9127 32.926ZM21.5829 34.5332L22.1396 34.2117L22.6963 34.5332L22.1396 34.8546L21.5829 34.5332ZM22.1396 34.8546L22.6963 34.5332L23.2531 34.8546L22.6963 35.176L22.1396 34.8546ZM23.2531 34.8546L23.8098 34.5332L24.3665 34.8546L23.8098 35.176L23.2531 34.8546ZM22.6963 35.176L23.2531 34.8546L23.8098 35.176L23.2531 35.4975L22.6963 35.176ZM22.1396 35.4975L22.6963 35.176L23.2531 35.4975L22.6963 35.8189L22.1396 35.4975ZM21.5829 35.176L22.1396 34.8546L22.6963 35.176L22.1396 35.4975L21.5829 35.176ZM21.5829 35.8189L22.1396 35.4975L22.6963 35.8189L22.1396 36.1403L21.5829 35.8189ZM21.0261 36.1403L21.5829 35.8189L22.1396 36.1403L21.5829 36.4618L21.0261 36.1403ZM20.4694 35.8189L21.0261 35.4975L21.5829 35.8189L21.0261 36.1403L20.4694 35.8189ZM21.0261 35.4975L21.5829 35.176L22.1396 35.4975L21.5829 35.8189L21.0261 35.4975ZM19.9127 35.4975L20.4694 35.176L21.0261 35.4975L20.4694 35.8189L19.9127 35.4975ZM19.9127 36.1403L20.4694 35.8189L21.0261 36.1403L20.4694 36.4618L19.9127 36.1403ZM19.3559 35.8189L19.9127 35.4975L20.4694 35.8189L19.9127 36.1403L19.3559 35.8189ZM18.7992 35.4975L19.3559 35.176L19.9127 35.4975L19.3559 35.8189L18.7992 35.4975ZM18.2425 35.176L18.7992 34.8546L19.3559 35.176L18.7992 35.4975L18.2425 35.176ZM17.6857 34.8546L18.2425 34.5332L18.7992 34.8546L18.2425 35.176L17.6857 34.8546ZM17.129 34.5332L17.6857 34.2117L18.2425 34.5332L17.6857 34.8546L17.129 34.5332ZM16.5723 34.2117L17.129 33.8903L17.6857 34.2117L17.129 34.5332L16.5723 34.2117ZM17.129 33.8903L17.6857 33.5689L18.2425 33.8903L17.6857 34.2117L17.129 33.8903ZM16.0156 33.8903L16.5723 33.5689L17.129 33.8903L16.5723 34.2117L16.0156 33.8903ZM17.6857 34.2117L18.2425 33.8903L18.7992 34.2117L18.2425 34.5332L17.6857 34.2117ZM18.2425 34.5332L18.7992 34.2117L19.3559 34.5332L18.7992 34.8546L18.2425 34.5332ZM18.7992 34.8546L19.3559 34.5332L19.9127 34.8546L19.3559 35.176L18.7992 34.8546ZM19.3559 35.176L19.9127 34.8546L20.4694 35.176L19.9127 35.4975L19.3559 35.176ZM20.4694 36.4618L21.0261 36.1403L21.5829 36.4618L21.0261 36.7832L20.4694 36.4618ZM15.4588 33.5689L16.0156 33.2475L16.5723 33.5689L16.0156 33.8903L15.4588 33.5689Z" fill="white"/>
<path d="M27.1473 32.6063L27.704 32.2849L28.2607 32.6063L27.704 32.9277L27.1473 32.6063ZM26.5905 32.2849L27.1473 31.9634L27.704 32.2849L27.1473 32.6063L26.5905 32.2849ZM26.0338 31.9634L26.5905 31.642L27.1473 31.9634L26.5905 32.2849L26.0338 31.9634ZM25.4771 31.642L26.0338 31.3206L26.5905 31.642L26.0338 31.9634L25.4771 31.642ZM24.9203 31.3206L25.4771 30.9991L26.0338 31.3206L25.4771 31.642L24.9203 31.3206ZM24.3636 30.9991L24.9203 30.6777L25.4771 30.9991L24.9203 31.3206L24.3636 30.9991ZM24.9203 30.6777L25.4771 30.3563L26.0338 30.6777L25.4771 30.9991L24.9203 30.6777ZM24.3636 30.3563L24.9203 30.0349L25.4771 30.3563L24.9203 30.6777L24.3636 30.3563ZM23.8069 30.0349L24.3636 29.7134L24.9203 30.0349L24.3636 30.3563L23.8069 30.0349ZM23.2502 29.7134L23.8069 29.392L24.3636 29.7134L23.8069 30.0349L23.2502 29.7134ZM22.6934 30.0349L23.2502 29.7134L23.8069 30.0349L23.2502 30.3563L22.6934 30.0349ZM22.1367 29.7134L22.6934 29.392L23.2502 29.7134L22.6934 30.0349L22.1367 29.7134ZM23.2502 30.3563L23.8069 30.0349L24.3636 30.3563L23.8069 30.6777L23.2502 30.3563ZM23.8069 30.6777L24.3636 30.3563L24.9203 30.6777L24.3636 30.9991L23.8069 30.6777ZM22.6934 29.392L23.2502 29.0706L23.8069 29.392L23.2502 29.7134L22.6934 29.392ZM25.4771 30.9991L26.0338 30.6777L26.5905 30.9991L26.0338 31.3206L25.4771 30.9991ZM26.0338 31.3206L26.5905 30.9991L27.1473 31.3206L26.5905 31.642L26.0338 31.3206ZM26.5905 31.642L27.1473 31.3206L27.704 31.642L27.1473 31.9634L26.5905 31.642ZM27.1473 31.9634L27.704 31.642L28.2607 31.9634L27.704 32.2849L27.1473 31.9634ZM27.704 32.2849L28.2607 31.9634L28.8175 32.2849L28.2607 32.6063L27.704 32.2849ZM24.3636 29.7134L24.9203 29.392L25.4771 29.7134L24.9203 30.0349L24.3636 29.7134ZM24.9203 30.0349L25.4771 29.7134L26.0338 30.0349L25.4771 30.3563L24.9203 30.0349ZM25.4771 29.7134L26.0338 29.392L26.5905 29.7134L26.0338 30.0349L25.4771 29.7134ZM26.0338 30.0349L26.5905 29.7134L27.1473 30.0349L26.5905 30.3563L26.0338 30.0349ZM26.5905 29.7134L27.1473 29.392L27.704 29.7134L27.1473 30.0349L26.5905 29.7134ZM27.1473 30.0349L27.704 29.7134L28.2607 30.0349L27.704 30.3563L27.1473 30.0349ZM27.1473 29.392L27.704 29.0706L28.2607 29.392L27.704 29.7134L27.1473 29.392ZM26.5905 29.0706L27.1473 28.7491L27.704 29.0706L27.1473 29.392L26.5905 29.0706ZM27.1473 28.7491L27.704 28.4277L28.2607 28.7491L27.704 29.0706L27.1473 28.7491ZM26.5905 28.4277L27.1473 28.1063L27.704 28.4277L27.1473 28.7491L26.5905 28.4277ZM26.0338 27.4634L26.5905 27.142L27.1473 27.4634L26.5905 27.7849L26.0338 27.4634ZM26.5905 27.7849L27.1473 27.4634L27.704 27.7849L27.1473 28.1063L26.5905 27.7849ZM27.1473 28.1063L27.704 27.7849L28.2607 28.1063L27.704 28.4277L27.1473 28.1063ZM27.704 28.4277L28.2607 28.1063L28.8175 28.4277L28.2607 28.7491L27.704 28.4277ZM28.2607 28.7491L28.8175 28.4277L29.3742 28.7491L28.8175 29.0706L28.2607 28.7491ZM28.8175 29.0706L29.3742 28.7491L29.9309 29.0706L29.3742 29.392L28.8175 29.0706ZM29.3742 29.392L29.9309 29.0706L30.4877 29.392L29.9309 29.7134L29.3742 29.392ZM29.9309 29.7134L30.4877 29.392L31.0444 29.7134L30.4877 30.0349L29.9309 29.7134ZM30.4877 30.0349L31.0444 29.7134L31.6011 30.0349L31.0444 30.3563L30.4877 30.0349ZM31.0444 30.3563L31.6011 30.0349L32.1578 30.3563L31.6011 30.6777L31.0444 30.3563ZM31.6011 30.0349L32.1578 29.7134L32.7146 30.0349L32.1578 30.3563L31.6011 30.0349ZM31.0444 29.7134L31.6011 29.392L32.1578 29.7134L31.6011 30.0349L31.0444 29.7134ZM30.4877 29.392L31.0444 29.0706L31.6011 29.392L31.0444 29.7134L30.4877 29.392ZM29.9309 29.0706L30.4877 28.7491L31.0444 29.0706L30.4877 29.392L29.9309 29.0706ZM29.3742 28.7491L29.9309 28.4277L30.4877 28.7491L29.9309 29.0706L29.3742 28.7491ZM28.8175 28.4277L29.3742 28.1063L29.9309 28.4277L29.3742 28.7491L28.8175 28.4277ZM28.2607 28.1063L28.8175 27.7849L29.3742 28.1063L28.8175 28.4277L28.2607 28.1063ZM27.704 27.7849L28.2607 27.4634L28.8175 27.7849L28.2607 28.1063L27.704 27.7849ZM27.1473 27.4634L27.704 27.142L28.2607 27.4634L27.704 27.7849L27.1473 27.4634ZM26.5905 27.142L27.1473 26.8206L27.704 27.142L27.1473 27.4634L26.5905 27.142ZM23.8069 29.392L24.3636 29.0706L24.9203 29.392L24.3636 29.7134L23.8069 29.392ZM24.9203 29.392L25.4771 29.0706L26.0338 29.392L25.4771 29.7134L24.9203 29.392ZM26.0338 29.392L26.5905 29.0706L27.1473 29.392L26.5905 29.7134L26.0338 29.392ZM26.0338 28.7491L26.5905 28.4277L27.1473 28.7491L26.5905 29.0706L26.0338 28.7491ZM26.0338 28.1063L26.5905 27.7849L27.1473 28.1063L26.5905 28.4277L26.0338 28.1063Z" fill="white"/>
<path d="M29.3785 26.1752L29.9353 25.8538L30.492 26.1752L29.9353 26.4966L29.3785 26.1752ZM29.9353 25.8538L30.492 25.5323L31.0487 25.8538L30.492 26.1752L29.9353 25.8538ZM29.3785 25.5323L29.9353 25.2109L30.492 25.5323L29.9353 25.8538L29.3785 25.5323ZM30.492 25.5323L31.0487 25.2109L31.6055 25.5323L31.0487 25.8538L30.492 25.5323ZM31.0487 25.8538L31.6055 25.5323L32.1622 25.8538L31.6055 26.1752L31.0487 25.8538ZM31.6055 25.5323L32.1622 25.2109L32.7189 25.5323L32.1622 25.8538L31.6055 25.5323ZM30.492 26.1752L31.0487 25.8538L31.6055 26.1752L31.0487 26.4966L30.492 26.1752ZM29.9353 26.4966L30.492 26.1752L31.0487 26.4966L30.492 26.8181L29.9353 26.4966ZM29.3785 26.8181L29.9353 26.4966L30.492 26.8181L29.9353 27.1395L29.3785 26.8181ZM29.9353 27.1395L30.492 26.8181L31.0487 27.1395L30.492 27.4609L29.9353 27.1395ZM29.3785 27.4609L29.9353 27.1395L30.492 27.4609L29.9353 27.7823L29.3785 27.4609ZM30.492 26.8181L31.0487 26.4966L31.6055 26.8181L31.0487 27.1395L30.492 26.8181ZM30.492 27.4609L31.0487 27.1395L31.6055 27.4609L31.0487 27.7823L30.492 27.4609ZM31.0487 27.7823L31.6055 27.4609L32.1622 27.7823L31.6055 28.1038L31.0487 27.7823ZM31.6055 28.1038L32.1622 27.7823L32.7189 28.1038L32.1622 28.4252L31.6055 28.1038ZM32.1622 27.7823L32.7189 27.4609L33.2757 27.7823L32.7189 28.1038L32.1622 27.7823ZM32.7189 27.4609L33.2757 27.1395L33.8324 27.4609L33.2757 27.7823L32.7189 27.4609ZM33.2757 27.1395L33.8324 26.8181L34.3891 27.1395L33.8324 27.4609L33.2757 27.1395ZM33.8324 26.8181L34.3891 26.4966L34.9458 26.8181L34.3891 27.1395L33.8324 26.8181ZM34.3891 26.4966L34.9458 26.1752L35.5026 26.4966L34.9458 26.8181L34.3891 26.4966ZM33.8324 26.1752L34.3891 25.8538L34.9458 26.1752L34.3891 26.4966L33.8324 26.1752ZM33.2757 25.8538L33.8324 25.5323L34.3891 25.8538L33.8324 26.1752L33.2757 25.8538ZM32.7189 25.5323L33.2757 25.2109L33.8324 25.5323L33.2757 25.8538L32.7189 25.5323ZM32.1622 25.8538L32.7189 25.5323L33.2757 25.8538L32.7189 26.1752L32.1622 25.8538ZM31.6055 26.1752L32.1622 25.8538L32.7189 26.1752L32.1622 26.4966L31.6055 26.1752ZM32.7189 26.1752L33.2757 25.8538L33.8324 26.1752L33.2757 26.4966L32.7189 26.1752ZM33.2757 26.4966L33.8324 26.1752L34.3891 26.4966L33.8324 26.8181L33.2757 26.4966ZM34.3891 27.1395L34.9458 26.8181L35.5026 27.1395L34.9458 27.4609L34.3891 27.1395ZM34.9458 26.8181L35.5026 26.4966L36.0593 26.8181L35.5026 27.1395L34.9458 26.8181ZM35.5026 27.1395L36.0593 26.8181L36.616 27.1395L36.0593 27.4609L35.5026 27.1395ZM36.0593 27.4609L36.616 27.1395L37.1728 27.4609L36.616 27.7823L36.0593 27.4609ZM35.5026 27.7823L36.0593 27.4609L36.616 27.7823L36.0593 28.1038L35.5026 27.7823ZM34.9458 27.4609L35.5026 27.1395L36.0593 27.4609L35.5026 27.7823L34.9458 27.4609ZM33.8324 27.4609L34.3891 27.1395L34.9458 27.4609L34.3891 27.7823L33.8324 27.4609ZM33.2757 27.7823L33.8324 27.4609L34.3891 27.7823L33.8324 28.1038L33.2757 27.7823ZM32.7189 28.1038L33.2757 27.7823L33.8324 28.1038L33.2757 28.4252L32.7189 28.1038ZM32.1622 28.4252L32.7189 28.1038L33.2757 28.4252L32.7189 28.7466L32.1622 28.4252ZM32.7189 28.7466L33.2757 28.4252L33.8324 28.7466L33.2757 29.0681L32.7189 28.7466ZM33.2757 29.0681L33.8324 28.7466L34.3891 29.0681L33.8324 29.3895L33.2757 29.0681ZM32.7189 29.3895L33.2757 29.0681L33.8324 29.3895L33.2757 29.7109L32.7189 29.3895ZM32.1622 29.0681L32.7189 28.7466L33.2757 29.0681L32.7189 29.3895L32.1622 29.0681ZM31.6055 28.7466L32.1622 28.4252L32.7189 28.7466L32.1622 29.0681L31.6055 28.7466ZM31.0487 28.4252L31.6055 28.1038L32.1622 28.4252L31.6055 28.7466L31.0487 28.4252ZM30.492 28.1038L31.0487 27.7823L31.6055 28.1038L31.0487 28.4252L30.492 28.1038ZM29.9353 27.7823L30.492 27.4609L31.0487 27.7823L30.492 28.1038L29.9353 27.7823Z" fill="white"/>
<path d="M36.6175 24.5672L37.1742 24.2458L37.7309 24.5672L37.1742 24.8886L36.6175 24.5672ZM36.0608 24.2458L36.6175 23.9244L37.1742 24.2458L36.6175 24.5672L36.0608 24.2458ZM36.6175 23.9244L37.1742 23.6029L37.7309 23.9244L37.1742 24.2458L36.6175 23.9244ZM37.1742 24.2458L37.7309 23.9244L38.2877 24.2458L37.7309 24.5672L37.1742 24.2458ZM37.7309 24.5672L38.2877 24.2458L38.8444 24.5672L38.2877 24.8886L37.7309 24.5672ZM37.1742 24.8886L37.7309 24.5672L38.2877 24.8886L37.7309 25.2101L37.1742 24.8886ZM34.9473 23.6029L35.504 23.2815L36.0608 23.6029L35.504 23.9244L34.9473 23.6029ZM35.504 23.9244L36.0608 23.6029L36.6175 23.9244L36.0608 24.2458L35.504 23.9244ZM35.504 24.5672L36.0608 24.2458L36.6175 24.5672L36.0608 24.8886L35.504 24.5672ZM34.9473 24.2458L35.504 23.9244L36.0608 24.2458L35.504 24.5672L34.9473 24.2458ZM34.3906 23.9244L34.9473 23.6029L35.504 23.9244L34.9473 24.2458L34.3906 23.9244ZM32.1636 23.9244L32.7204 23.6029L33.2771 23.9244L32.7204 24.2458L32.1636 23.9244ZM32.7204 23.6029L33.2771 23.2815L33.8338 23.6029L33.2771 23.9244L32.7204 23.6029ZM33.2771 23.2815L33.8338 22.9601L34.3906 23.2815L33.8338 23.6029L33.2771 23.2815ZM33.8338 23.6029L34.3906 23.2815L34.9473 23.6029L34.3906 23.9244L33.8338 23.6029ZM33.2771 23.9244L33.8338 23.6029L34.3906 23.9244L33.8338 24.2458L33.2771 23.9244ZM32.7204 24.2458L33.2771 23.9244L33.8338 24.2458L33.2771 24.5672L32.7204 24.2458ZM33.2771 24.5672L33.8338 24.2458L34.3906 24.5672L33.8338 24.8886L33.2771 24.5672ZM33.8338 24.2458L34.3906 23.9244L34.9473 24.2458L34.3906 24.5672L33.8338 24.2458ZM34.3906 24.5672L34.9473 24.2458L35.504 24.5672L34.9473 24.8886L34.3906 24.5672ZM34.9473 24.8886L35.504 24.5672L36.0608 24.8886L35.504 25.2101L34.9473 24.8886ZM34.3906 25.2101L34.9473 24.8886L35.504 25.2101L34.9473 25.5315L34.3906 25.2101ZM33.8338 24.8886L34.3906 24.5672L34.9473 24.8886L34.3906 25.2101L33.8338 24.8886ZM34.9473 25.5315L35.504 25.2101L36.0608 25.5315L35.504 25.8529L34.9473 25.5315ZM35.504 25.2101L36.0608 24.8886L36.6175 25.2101L36.0608 25.5315L35.504 25.2101ZM36.0608 25.5315L36.6175 25.2101L37.1742 25.5315L36.6175 25.8529L36.0608 25.5315ZM36.6175 25.8529L37.1742 25.5315L37.7309 25.8529L37.1742 26.1744L36.6175 25.8529ZM37.1742 26.1744L37.7309 25.8529L38.2877 26.1744L37.7309 26.4958L37.1742 26.1744ZM37.7309 26.4958L38.2877 26.1744L38.8444 26.4958L38.2877 26.8172L37.7309 26.4958ZM37.1742 26.8172L37.7309 26.4958L38.2877 26.8172L37.7309 27.1386L37.1742 26.8172ZM36.6175 26.4958L37.1742 26.1744L37.7309 26.4958L37.1742 26.8172L36.6175 26.4958ZM36.0608 26.1744L36.6175 25.8529L37.1742 26.1744L36.6175 26.4958L36.0608 26.1744ZM35.504 25.8529L36.0608 25.5315L36.6175 25.8529L36.0608 26.1744L35.504 25.8529ZM38.2877 24.8886L38.8444 24.5672L39.4011 24.8886L38.8444 25.2101L38.2877 24.8886ZM38.8444 25.2101L39.4011 24.8886L39.9579 25.2101L39.4011 25.5315L38.8444 25.2101ZM38.8444 24.5672L39.4011 24.2458L39.9579 24.5672L39.4011 24.8886L38.8444 24.5672ZM38.2877 24.2458L38.8444 23.9244L39.4011 24.2458L38.8444 24.5672L38.2877 24.2458ZM39.4011 24.8886L39.9579 24.5672L40.5146 24.8886L39.9579 25.2101L39.4011 24.8886ZM39.9579 25.2101L40.5146 24.8886L41.0713 25.2101L40.5146 25.5315L39.9579 25.2101ZM40.5146 24.8886L41.0713 24.5672L41.6281 24.8886L41.0713 25.2101L40.5146 24.8886ZM41.0713 24.5672L41.6281 24.2458L42.1848 24.5672L41.6281 24.8886L41.0713 24.5672ZM40.5146 24.2458L41.0713 23.9244L41.6281 24.2458L41.0713 24.5672L40.5146 24.2458ZM39.9579 23.9244L40.5146 23.6029L41.0713 23.9244L40.5146 24.2458L39.9579 23.9244ZM39.4011 24.2458L39.9579 23.9244L40.5146 24.2458L39.9579 24.5672L39.4011 24.2458ZM39.9579 24.5672L40.5146 24.2458L41.0713 24.5672L40.5146 24.8886L39.9579 24.5672ZM38.8444 23.9244L39.4011 23.6029L39.9579 23.9244L39.4011 24.2458L38.8444 23.9244ZM38.8444 23.2815L39.4011 22.9601L39.9579 23.2815L39.4011 23.6029L38.8444 23.2815ZM38.2877 22.9601L38.8444 22.6386L39.4011 22.9601L38.8444 23.2815L38.2877 22.9601ZM39.4011 23.6029L39.9579 23.2815L40.5146 23.6029L39.9579 23.9244L39.4011 23.6029ZM38.2877 23.6029L38.8444 23.2815L39.4011 23.6029L38.8444 23.9244L38.2877 23.6029ZM37.7309 23.2815L38.2877 22.9601L38.8444 23.2815L38.2877 23.6029L37.7309 23.2815ZM37.1742 22.9601L37.7309 22.6386L38.2877 22.9601L37.7309 23.2815L37.1742 22.9601ZM37.7309 22.6386L38.2877 22.3172L38.8444 22.6386L38.2877 22.9601L37.7309 22.6386ZM37.1742 22.3172L37.7309 21.9958L38.2877 22.3172L37.7309 22.6386L37.1742 22.3172ZM35.504 21.9958L36.0608 21.6744L36.6175 21.9958L36.0608 22.3172L35.504 21.9958ZM36.0608 21.6744L36.6175 21.3529L37.1742 21.6744L36.6175 21.9958L36.0608 21.6744ZM36.6175 21.9958L37.1742 21.6744L37.7309 21.9958L37.1742 22.3172L36.6175 21.9958ZM36.0608 22.3172L36.6175 21.9958L37.1742 22.3172L36.6175 22.6386L36.0608 22.3172ZM36.6175 22.6386L37.1742 22.3172L37.7309 22.6386L37.1742 22.9601L36.6175 22.6386Z" fill="white"/>
<path d="M38.8473 20.7084L39.404 20.387L39.9608 20.7084L39.404 21.0298L38.8473 20.7084ZM39.404 20.387L39.9608 20.0655L40.5175 20.387L39.9608 20.7084L39.404 20.387ZM38.8473 20.0655L39.404 19.7441L39.9608 20.0655L39.404 20.387L38.8473 20.0655ZM39.9608 20.0655L40.5175 19.7441L41.0742 20.0655L40.5175 20.387L39.9608 20.0655ZM40.5175 20.387L41.0742 20.0655L41.631 20.387L41.0742 20.7084L40.5175 20.387ZM41.0742 20.0655L41.631 19.7441L42.1877 20.0655L41.631 20.387L41.0742 20.0655ZM39.9608 20.7084L40.5175 20.387L41.0742 20.7084L40.5175 21.0298L39.9608 20.7084ZM39.404 21.0298L39.9608 20.7084L40.5175 21.0298L39.9608 21.3513L39.404 21.0298ZM38.8473 21.3513L39.404 21.0298L39.9608 21.3513L39.404 21.6727L38.8473 21.3513ZM39.404 21.6727L39.9608 21.3513L40.5175 21.6727L39.9608 21.9941L39.404 21.6727ZM38.8473 21.9941L39.404 21.6727L39.9608 21.9941L39.404 22.3155L38.8473 21.9941ZM39.9608 21.3513L40.5175 21.0298L41.0742 21.3513L40.5175 21.6727L39.9608 21.3513ZM39.9608 21.9941L40.5175 21.6727L41.0742 21.9941L40.5175 22.3155L39.9608 21.9941ZM40.5175 22.3155L41.0742 21.9941L41.631 22.3155L41.0742 22.637L40.5175 22.3155ZM41.0742 22.637L41.631 22.3155L42.1877 22.637L41.631 22.9584L41.0742 22.637ZM41.631 22.3155L42.1877 21.9941L42.7444 22.3155L42.1877 22.637L41.631 22.3155ZM42.1877 21.9941L42.7444 21.6727L43.3012 21.9941L42.7444 22.3155L42.1877 21.9941ZM42.7444 21.6727L43.3012 21.3513L43.8579 21.6727L43.3012 21.9941L42.7444 21.6727ZM43.3012 21.3513L43.8579 21.0298L44.4146 21.3513L43.8579 21.6727L43.3012 21.3513ZM43.8579 21.0298L44.4146 20.7084L44.9713 21.0298L44.4146 21.3513L43.8579 21.0298ZM43.3012 20.7084L43.8579 20.387L44.4146 20.7084L43.8579 21.0298L43.3012 20.7084ZM42.7444 20.387L43.3012 20.0655L43.8579 20.387L43.3012 20.7084L42.7444 20.387ZM42.1877 20.0655L42.7444 19.7441L43.3012 20.0655L42.7444 20.387L42.1877 20.0655ZM41.631 20.387L42.1877 20.0655L42.7444 20.387L42.1877 20.7084L41.631 20.387ZM41.0742 20.7084L41.631 20.387L42.1877 20.7084L41.631 21.0298L41.0742 20.7084ZM42.1877 20.7084L42.7444 20.387L43.3012 20.7084L42.7444 21.0298L42.1877 20.7084ZM42.7444 21.0298L43.3012 20.7084L43.8579 21.0298L43.3012 21.3513L42.7444 21.0298ZM43.8579 21.6727L44.4146 21.3513L44.9713 21.6727L44.4146 21.9941L43.8579 21.6727ZM44.4146 21.3513L44.9713 21.0298L45.5281 21.3513L44.9713 21.6727L44.4146 21.3513ZM44.9713 21.6727L45.5281 21.3513L46.0848 21.6727L45.5281 21.9941L44.9713 21.6727ZM45.5281 21.9941L46.0848 21.6727L46.6415 21.9941L46.0848 22.3155L45.5281 21.9941ZM44.9713 22.3155L45.5281 21.9941L46.0848 22.3155L45.5281 22.637L44.9713 22.3155ZM44.4146 21.9941L44.9713 21.6727L45.5281 21.9941L44.9713 22.3155L44.4146 21.9941ZM43.3012 21.9941L43.8579 21.6727L44.4146 21.9941L43.8579 22.3155L43.3012 21.9941ZM42.7444 22.3155L43.3012 21.9941L43.8579 22.3155L43.3012 22.637L42.7444 22.3155ZM42.1877 22.637L42.7444 22.3155L43.3012 22.637L42.7444 22.9584L42.1877 22.637ZM41.631 22.9584L42.1877 22.637L42.7444 22.9584L42.1877 23.2798L41.631 22.9584ZM42.1877 23.2798L42.7444 22.9584L43.3012 23.2798L42.7444 23.6013L42.1877 23.2798ZM42.7444 23.6013L43.3012 23.2798L43.8579 23.6013L43.3012 23.9227L42.7444 23.6013ZM42.1877 23.9227L42.7444 23.6013L43.3012 23.9227L42.7444 24.2441L42.1877 23.9227ZM41.631 23.6013L42.1877 23.2798L42.7444 23.6013L42.1877 23.9227L41.631 23.6013ZM41.0742 23.2798L41.631 22.9584L42.1877 23.2798L41.631 23.6013L41.0742 23.2798ZM40.5175 22.9584L41.0742 22.637L41.631 22.9584L41.0742 23.2798L40.5175 22.9584ZM39.9608 22.637L40.5175 22.3155L41.0742 22.637L40.5175 22.9584L39.9608 22.637ZM39.404 22.3155L39.9608 21.9941L40.5175 22.3155L39.9608 22.637L39.404 22.3155Z" fill="white"/>
<path d="M42.7459 17.8147L43.3026 17.4933L43.8593 17.8147L43.3026 18.1361L42.7459 17.8147ZM42.1891 18.1361L42.7459 17.8147L43.3026 18.1361L42.7459 18.4576L42.1891 18.1361ZM42.7459 18.4576L43.3026 18.1361L43.8593 18.4576L43.3026 18.779L42.7459 18.4576ZM43.3026 18.1361L43.8593 17.8147L44.4161 18.1361L43.8593 18.4576L43.3026 18.1361ZM43.8593 17.8147L44.4161 17.4933L44.9728 17.8147L44.4161 18.1361L43.8593 17.8147ZM43.3026 17.4933L43.8593 17.1718L44.4161 17.4933L43.8593 17.8147L43.3026 17.4933ZM43.8593 17.1718L44.4161 16.8504L44.9728 17.1718L44.4161 17.4933L43.8593 17.1718ZM44.4161 16.8504L44.9728 16.529L45.5295 16.8504L44.9728 17.1718L44.4161 16.8504ZM44.9728 17.1718L45.5295 16.8504L46.0863 17.1718L45.5295 17.4933L44.9728 17.1718ZM44.4161 17.4933L44.9728 17.1718L45.5295 17.4933L44.9728 17.8147L44.4161 17.4933ZM45.5295 17.4933L46.0863 17.1718L46.643 17.4933L46.0863 17.8147L45.5295 17.4933ZM45.5295 16.8504L46.0863 16.529L46.643 16.8504L46.0863 17.1718L45.5295 16.8504ZM46.0863 17.1718L46.643 16.8504L47.1997 17.1718L46.643 17.4933L46.0863 17.1718ZM48.8699 18.779L49.4266 18.4576L49.9834 18.779L49.4266 19.1004L48.8699 18.779ZM49.4266 19.1004L49.9834 18.779L50.5401 19.1004L49.9834 19.4218L49.4266 19.1004ZM48.8699 19.4218L49.4266 19.1004L49.9834 19.4218L49.4266 19.7433L48.8699 19.4218ZM48.3132 19.1004L48.8699 18.779L49.4266 19.1004L48.8699 19.4218L48.3132 19.1004ZM48.3132 19.7433L48.8699 19.4218L49.4266 19.7433L48.8699 20.0647L48.3132 19.7433ZM49.4266 19.7433L49.9834 19.4218L50.5401 19.7433L49.9834 20.0647L49.4266 19.7433ZM48.8699 20.0647L49.4266 19.7433L49.9834 20.0647L49.4266 20.3861L48.8699 20.0647ZM48.3132 20.3861L48.8699 20.0647L49.4266 20.3861L48.8699 20.7076L48.3132 20.3861ZM47.7565 20.0647L48.3132 19.7433L48.8699 20.0647L48.3132 20.3861L47.7565 20.0647ZM47.7565 20.7076L48.3132 20.3861L48.8699 20.7076L48.3132 21.029L47.7565 20.7076ZM47.1997 21.029L47.7565 20.7076L48.3132 21.029L47.7565 21.3504L47.1997 21.029ZM46.643 20.7076L47.1997 20.3861L47.7565 20.7076L47.1997 21.029L46.643 20.7076ZM47.1997 20.3861L47.7565 20.0647L48.3132 20.3861L47.7565 20.7076L47.1997 20.3861ZM46.643 20.0647L47.1997 19.7433L47.7565 20.0647L47.1997 20.3861L46.643 20.0647ZM46.0863 20.3861L46.643 20.0647L47.1997 20.3861L46.643 20.7076L46.0863 20.3861ZM46.0863 21.029L46.643 20.7076L47.1997 21.029L46.643 21.3504L46.0863 21.029ZM45.5295 20.7076L46.0863 20.3861L46.643 20.7076L46.0863 21.029L45.5295 20.7076ZM44.9728 20.3861L45.5295 20.0647L46.0863 20.3861L45.5295 20.7076L44.9728 20.3861ZM44.4161 20.0647L44.9728 19.7433L45.5295 20.0647L44.9728 20.3861L44.4161 20.0647ZM43.8593 19.7433L44.4161 19.4218L44.9728 19.7433L44.4161 20.0647L43.8593 19.7433ZM43.3026 19.4218L43.8593 19.1004L44.4161 19.4218L43.8593 19.7433L43.3026 19.4218ZM42.7459 19.1004L43.3026 18.779L43.8593 19.1004L43.3026 19.4218L42.7459 19.1004ZM43.3026 18.779L43.8593 18.4576L44.4161 18.779L43.8593 19.1004L43.3026 18.779ZM42.1891 18.779L42.7459 18.4576L43.3026 18.779L42.7459 19.1004L42.1891 18.779ZM43.8593 18.4576L44.4161 18.1361L44.9728 18.4576L44.4161 18.779L43.8593 18.4576ZM43.8593 19.1004L44.4161 18.779L44.9728 19.1004L44.4161 19.4218L43.8593 19.1004ZM44.4161 19.4218L44.9728 19.1004L45.5295 19.4218L44.9728 19.7433L44.4161 19.4218ZM44.9728 19.7433L45.5295 19.4218L46.0863 19.7433L45.5295 20.0647L44.9728 19.7433ZM45.5295 20.0647L46.0863 19.7433L46.643 20.0647L46.0863 20.3861L45.5295 20.0647ZM48.3132 18.4576L48.8699 18.1361L49.4266 18.4576L48.8699 18.779L48.3132 18.4576ZM47.7565 18.779L48.3132 18.4576L48.8699 18.779L48.3132 19.1004L47.7565 18.779ZM47.1997 18.4576L47.7565 18.1361L48.3132 18.4576L47.7565 18.779L47.1997 18.4576ZM47.7565 18.1361L48.3132 17.8147L48.8699 18.1361L48.3132 18.4576L47.7565 18.1361ZM47.1997 17.8147L47.7565 17.4933L48.3132 17.8147L47.7565 18.1361L47.1997 17.8147ZM46.643 18.1361L47.1997 17.8147L47.7565 18.1361L47.1997 18.4576L46.643 18.1361ZM46.0863 18.4576L46.643 18.1361L47.1997 18.4576L46.643 18.779L46.0863 18.4576ZM45.5295 18.779L46.0863 18.4576L46.643 18.779L46.0863 19.1004L45.5295 18.779ZM46.0863 19.1004L46.643 18.779L47.1997 19.1004L46.643 19.4218L46.0863 19.1004ZM46.643 18.779L47.1997 18.4576L47.7565 18.779L47.1997 19.1004L46.643 18.779Z" fill="white"/>
<path d="M46.0877 15.8853L46.6444 15.5639L47.2012 15.8853L46.6444 16.2067L46.0877 15.8853ZM46.6444 15.5639L47.2012 15.2424L47.7579 15.5639L47.2012 15.8853L46.6444 15.5639ZM47.2012 15.8853L47.7579 15.5639L48.3146 15.8853L47.7579 16.2067L47.2012 15.8853ZM47.7579 16.2067L48.3146 15.8853L48.8714 16.2067L48.3146 16.5282L47.7579 16.2067ZM48.3146 16.5282L48.8714 16.2067L49.4281 16.5282L48.8714 16.8496L48.3146 16.5282ZM47.7579 16.8496L48.3146 16.5282L48.8714 16.8496L48.3146 17.171L47.7579 16.8496ZM47.2012 16.5282L47.7579 16.2067L48.3146 16.5282L47.7579 16.8496L47.2012 16.5282ZM46.6444 16.2067L47.2012 15.8853L47.7579 16.2067L47.2012 16.5282L46.6444 16.2067ZM48.3146 17.171L48.8714 16.8496L49.4281 17.171L48.8714 17.4924L48.3146 17.171ZM48.8714 17.4924L49.4281 17.171L49.9848 17.4924L49.4281 17.8139L48.8714 17.4924ZM49.4281 17.8139L49.9848 17.4924L50.5416 17.8139L49.9848 18.1353L49.4281 17.8139ZM49.4281 17.171L49.9848 16.8496L50.5416 17.171L49.9848 17.4924L49.4281 17.171ZM48.8714 16.8496L49.4281 16.5282L49.9848 16.8496L49.4281 17.171L48.8714 16.8496ZM49.9848 17.4924L50.5416 17.171L51.0983 17.4924L50.5416 17.8139L49.9848 17.4924ZM50.5416 17.8139L51.0983 17.4924L51.655 17.8139L51.0983 18.1353L50.5416 17.8139ZM50.5416 18.4567L51.0983 18.1353L51.655 18.4567L51.0983 18.7782L50.5416 18.4567ZM49.9848 18.1353L50.5416 17.8139L51.0983 18.1353L50.5416 18.4567L49.9848 18.1353ZM51.0983 18.7782L51.655 18.4567L52.2117 18.7782L51.655 19.0996L51.0983 18.7782ZM51.655 18.4567L52.2117 18.1353L52.7685 18.4567L52.2117 18.7782L51.655 18.4567ZM51.0983 18.1353L51.655 17.8139L52.2117 18.1353L51.655 18.4567L51.0983 18.1353ZM52.2117 18.1353L52.7685 17.8139L53.3252 18.1353L52.7685 18.4567L52.2117 18.1353ZM52.7685 17.8139L53.3252 17.4924L53.8819 17.8139L53.3252 18.1353L52.7685 17.8139ZM53.3252 17.4924L53.8819 17.171L54.4387 17.4924L53.8819 17.8139L53.3252 17.4924ZM52.7685 17.171L53.3252 16.8496L53.8819 17.171L53.3252 17.4924L52.7685 17.171ZM52.2117 17.4924L52.7685 17.171L53.3252 17.4924L52.7685 17.8139L52.2117 17.4924ZM51.655 17.8139L52.2117 17.4924L52.7685 17.8139L52.2117 18.1353L51.655 17.8139ZM47.2012 15.2424L47.7579 14.921L48.3146 15.2424L47.7579 15.5639L47.2012 15.2424ZM47.7579 14.921L48.3146 14.5996L48.8714 14.921L48.3146 15.2424L47.7579 14.921ZM48.3146 14.5996L48.8714 14.2782L49.4281 14.5996L48.8714 14.921L48.3146 14.5996ZM48.8714 14.2782L49.4281 13.9567L49.9848 14.2782L49.4281 14.5996L48.8714 14.2782ZM48.8714 14.921L49.4281 14.5996L49.9848 14.921L49.4281 15.2424L48.8714 14.921ZM48.3146 15.2424L48.8714 14.921L49.4281 15.2424L48.8714 15.5639L48.3146 15.2424ZM47.7579 15.5639L48.3146 15.2424L48.8714 15.5639L48.3146 15.8853L47.7579 15.5639ZM49.9848 16.8496L50.5416 16.5282L51.0983 16.8496L50.5416 17.171L49.9848 16.8496ZM49.9848 16.2067L50.5416 15.8853L51.0983 16.2067L50.5416 16.5282L49.9848 16.2067ZM49.4281 16.5282L49.9848 16.2067L50.5416 16.5282L49.9848 16.8496L49.4281 16.5282ZM50.5416 16.5282L51.0983 16.2067L51.655 16.5282L51.0983 16.8496L50.5416 16.5282ZM49.4281 14.5996L49.9848 14.2782L50.5416 14.5996L49.9848 14.921L49.4281 14.5996ZM53.3252 16.8496L53.8819 16.5282L54.4387 16.8496L53.8819 17.171L53.3252 16.8496ZM53.8819 17.171L54.4387 16.8496L54.9954 17.171L54.4387 17.4924L53.8819 17.171ZM50.5416 15.8853L51.0983 15.5639L51.655 15.8853L51.0983 16.2067L50.5416 15.8853ZM51.0983 16.2067L51.655 15.8853L52.2117 16.2067L51.655 16.5282L51.0983 16.2067Z" fill="white"/>
<path d="M54.9954 16.5282L55.5521 16.2067L56.1089 16.5282L55.5521 16.8496L54.9954 16.5282ZM54.4387 16.2067L54.9954 15.8853L55.5521 16.2067L54.9954 16.5282L54.4387 16.2067ZM53.8819 15.8853L54.4387 15.5639L54.9954 15.8853L54.4387 16.2067L53.8819 15.8853ZM53.3252 15.5639L53.8819 15.2424L54.4387 15.5639L53.8819 15.8853L53.3252 15.5639ZM52.7685 15.2424L53.3252 14.921L53.8819 15.2424L53.3252 15.5639L52.7685 15.2424ZM52.2117 14.921L52.7685 14.5996L53.3252 14.921L52.7685 15.2424L52.2117 14.921ZM52.7685 14.5996L53.3252 14.2782L53.8819 14.5996L53.3252 14.921L52.7685 14.5996ZM52.2117 14.2782L52.7685 13.9567L53.3252 14.2782L52.7685 14.5996L52.2117 14.2782ZM51.655 13.9567L52.2117 13.6353L52.7685 13.9567L52.2117 14.2782L51.655 13.9567ZM51.0983 13.6353L51.655 13.3139L52.2117 13.6353L51.655 13.9567L51.0983 13.6353ZM50.5416 13.9567L51.0983 13.6353L51.655 13.9567L51.0983 14.2782L50.5416 13.9567ZM49.9848 13.6353L50.5416 13.3139L51.0983 13.6353L50.5416 13.9567L49.9848 13.6353ZM51.0983 14.2782L51.655 13.9567L52.2117 14.2782L51.655 14.5996L51.0983 14.2782ZM51.655 14.5996L52.2117 14.2782L52.7685 14.5996L52.2117 14.921L51.655 14.5996ZM50.5416 13.3139L51.0983 12.9924L51.655 13.3139L51.0983 13.6353L50.5416 13.3139ZM53.3252 14.921L53.8819 14.5996L54.4387 14.921L53.8819 15.2424L53.3252 14.921ZM53.8819 15.2424L54.4387 14.921L54.9954 15.2424L54.4387 15.5639L53.8819 15.2424ZM54.4387 15.5639L54.9954 15.2424L55.5521 15.5639L54.9954 15.8853L54.4387 15.5639ZM54.9954 15.8853L55.5521 15.5639L56.1089 15.8853L55.5521 16.2067L54.9954 15.8853ZM55.5521 16.2067L56.1089 15.8853L56.6656 16.2067L56.1089 16.5282L55.5521 16.2067ZM52.2117 13.6353L52.7685 13.3139L53.3252 13.6353L52.7685 13.9567L52.2117 13.6353ZM52.7685 13.9567L53.3252 13.6353L53.8819 13.9567L53.3252 14.2782L52.7685 13.9567ZM53.3252 13.6353L53.8819 13.3139L54.4387 13.6353L53.8819 13.9567L53.3252 13.6353ZM53.8819 13.9567L54.4387 13.6353L54.9954 13.9567L54.4387 14.2782L53.8819 13.9567ZM54.4387 13.6353L54.9954 13.3139L55.5521 13.6353L54.9954 13.9567L54.4387 13.6353ZM54.9954 13.9567L55.5521 13.6353L56.1089 13.9567L55.5521 14.2782L54.9954 13.9567ZM54.9954 13.3139L55.5521 12.9924L56.1089 13.3139L55.5521 13.6353L54.9954 13.3139ZM54.4387 12.9924L54.9954 12.671L55.5521 12.9924L54.9954 13.3139L54.4387 12.9924ZM54.9954 12.671L55.5521 12.3496L56.1089 12.671L55.5521 12.9924L54.9954 12.671ZM54.4387 12.3496L54.9954 12.0282L55.5521 12.3496L54.9954 12.671L54.4387 12.3496ZM53.8819 11.3853L54.4387 11.0639L54.9954 11.3853L54.4387 11.7067L53.8819 11.3853ZM54.4387 11.7067L54.9954 11.3853L55.5521 11.7067L54.9954 12.0282L54.4387 11.7067ZM54.9954 12.0282L55.5521 11.7067L56.1089 12.0282L55.5521 12.3496L54.9954 12.0282ZM55.5521 12.3496L56.1089 12.0282L56.6656 12.3496L56.1089 12.671L55.5521 12.3496ZM56.1089 12.671L56.6656 12.3496L57.2223 12.671L56.6656 12.9924L56.1089 12.671ZM56.6656 12.9924L57.2223 12.671L57.779 12.9924L57.2223 13.3139L56.6656 12.9924ZM57.2223 13.3139L57.779 12.9924L58.3358 13.3139L57.779 13.6353L57.2223 13.3139ZM57.779 13.6353L58.3358 13.3139L58.8925 13.6353L58.3358 13.9567L57.779 13.6353ZM58.3358 13.9567L58.8925 13.6353L59.4492 13.9567L58.8925 14.2782L58.3358 13.9567ZM58.8925 14.2782L59.4492 13.9567L60.006 14.2782L59.4492 14.5996L58.8925 14.2782ZM59.4492 13.9567L60.006 13.6353L60.5627 13.9567L60.006 14.2782L59.4492 13.9567ZM58.8925 13.6353L59.4492 13.3139L60.006 13.6353L59.4492 13.9567L58.8925 13.6353ZM58.3358 13.3139L58.8925 12.9924L59.4492 13.3139L58.8925 13.6353L58.3358 13.3139ZM57.779 12.9924L58.3358 12.671L58.8925 12.9924L58.3358 13.3139L57.779 12.9924ZM57.2223 12.671L57.779 12.3496L58.3358 12.671L57.779 12.9924L57.2223 12.671ZM56.6656 12.3496L57.2223 12.0282L57.779 12.3496L57.2223 12.671L56.6656 12.3496ZM56.1089 12.0282L56.6656 11.7067L57.2223 12.0282L56.6656 12.3496L56.1089 12.0282ZM55.5521 11.7067L56.1089 11.3853L56.6656 11.7067L56.1089 12.0282L55.5521 11.7067ZM54.9954 11.3853L55.5521 11.0639L56.1089 11.3853L55.5521 11.7067L54.9954 11.3853ZM54.4387 11.0639L54.9954 10.7424L55.5521 11.0639L54.9954 11.3853L54.4387 11.0639ZM51.655 13.3139L52.2117 12.9924L52.7685 13.3139L52.2117 13.6353L51.655 13.3139ZM52.7685 13.3139L53.3252 12.9924L53.8819 13.3139L53.3252 13.6353L52.7685 13.3139ZM53.8819 13.3139L54.4387 12.9924L54.9954 13.3139L54.4387 13.6353L53.8819 13.3139ZM53.8819 12.671L54.4387 12.3496L54.9954 12.671L54.4387 12.9924L53.8819 12.671ZM53.8819 12.0282L54.4387 11.7067L54.9954 12.0282L54.4387 12.3496L53.8819 12.0282Z" fill="white"/>
<path d="M55.5565 10.4185L56.1132 10.0971L56.6699 10.4185L56.1132 10.7399L55.5565 10.4185ZM56.1132 10.0971L56.6699 9.77564L57.2267 10.0971L56.6699 10.4185L56.1132 10.0971ZM56.6699 10.4185L57.2267 10.0971L57.7834 10.4185L57.2267 10.7399L56.6699 10.4185ZM57.2267 10.7399L57.7834 10.4185L58.3401 10.7399L57.7834 11.0614L57.2267 10.7399ZM57.7834 11.0614L58.3401 10.7399L58.8969 11.0614L58.3401 11.3828L57.7834 11.0614ZM57.2267 11.3828L57.7834 11.0614L58.3401 11.3828L57.7834 11.7042L57.2267 11.3828ZM56.6699 11.0614L57.2267 10.7399L57.7834 11.0614L57.2267 11.3828L56.6699 11.0614ZM56.1132 10.7399L56.6699 10.4185L57.2267 10.7399L56.6699 11.0614L56.1132 10.7399ZM57.7834 11.7042L58.3401 11.3828L58.8969 11.7042L58.3401 12.0256L57.7834 11.7042ZM58.3401 12.0256L58.8969 11.7042L59.4536 12.0256L58.8969 12.3471L58.3401 12.0256ZM58.8969 12.3471L59.4536 12.0256L60.0103 12.3471L59.4536 12.6685L58.8969 12.3471ZM58.8969 11.7042L59.4536 11.3828L60.0103 11.7042L59.4536 12.0256L58.8969 11.7042ZM58.3401 11.3828L58.8969 11.0614L59.4536 11.3828L58.8969 11.7042L58.3401 11.3828ZM59.4536 12.0256L60.0103 11.7042L60.5671 12.0256L60.0103 12.3471L59.4536 12.0256ZM60.0103 12.3471L60.5671 12.0256L61.1238 12.3471L60.5671 12.6685L60.0103 12.3471ZM60.0103 12.9899L60.5671 12.6685L61.1238 12.9899L60.5671 13.3114L60.0103 12.9899ZM59.4536 12.6685L60.0103 12.3471L60.5671 12.6685L60.0103 12.9899L59.4536 12.6685ZM60.5671 13.3114L61.1238 12.9899L61.6805 13.3114L61.1238 13.6328L60.5671 13.3114ZM61.1238 12.9899L61.6805 12.6685L62.2372 12.9899L61.6805 13.3114L61.1238 12.9899ZM60.5671 12.6685L61.1238 12.3471L61.6805 12.6685L61.1238 12.9899L60.5671 12.6685ZM61.6805 12.6685L62.2372 12.3471L62.794 12.6685L62.2372 12.9899L61.6805 12.6685ZM62.2372 12.3471L62.794 12.0256L63.3507 12.3471L62.794 12.6685L62.2372 12.3471ZM62.794 12.0256L63.3507 11.7042L63.9074 12.0256L63.3507 12.3471L62.794 12.0256ZM62.2372 11.7042L62.794 11.3828L63.3507 11.7042L62.794 12.0256L62.2372 11.7042ZM61.6805 12.0256L62.2372 11.7042L62.794 12.0256L62.2372 12.3471L61.6805 12.0256ZM61.1238 12.3471L61.6805 12.0256L62.2372 12.3471L61.6805 12.6685L61.1238 12.3471ZM56.6699 9.77564L57.2267 9.45422L57.7834 9.77564L57.2267 10.0971L56.6699 9.77564ZM57.2267 9.45422L57.7834 9.13279L58.3401 9.45421L57.7834 9.77564L57.2267 9.45422ZM57.7834 9.13279L58.3401 8.81136L58.8969 9.13279L58.3401 9.45421L57.7834 9.13279ZM58.3401 8.81136L58.8969 8.48993L59.4536 8.81136L58.8969 9.13279L58.3401 8.81136ZM58.3401 9.45421L58.8969 9.13279L59.4536 9.45422L58.8969 9.77564L58.3401 9.45421ZM57.7834 9.77564L58.3401 9.45421L58.8969 9.77564L58.3401 10.0971L57.7834 9.77564ZM57.2267 10.0971L57.7834 9.77564L58.3401 10.0971L57.7834 10.4185L57.2267 10.0971ZM59.4536 11.3828L60.0103 11.0614L60.5671 11.3828L60.0103 11.7042L59.4536 11.3828ZM59.4536 10.7399L60.0103 10.4185L60.5671 10.7399L60.0103 11.0614L59.4536 10.7399ZM58.8969 11.0614L59.4536 10.7399L60.0103 11.0614L59.4536 11.3828L58.8969 11.0614ZM60.0103 11.0614L60.5671 10.7399L61.1238 11.0614L60.5671 11.3828L60.0103 11.0614ZM58.8969 9.13279L59.4536 8.81136L60.0103 9.13279L59.4536 9.45422L58.8969 9.13279ZM62.794 11.3828L63.3507 11.0614L63.9074 11.3828L63.3507 11.7042L62.794 11.3828ZM63.3507 11.7042L63.9074 11.3828L64.4642 11.7042L63.9074 12.0256L63.3507 11.7042ZM60.0103 10.4185L60.5671 10.0971L61.1238 10.4185L60.5671 10.7399L60.0103 10.4185ZM60.5671 10.7399L61.1238 10.4185L61.6805 10.7399L61.1238 11.0614L60.5671 10.7399Z" fill="white"/>
<path d="M63.9074 8.81136L64.4642 8.48993L65.0209 8.81136L64.4642 9.13279L63.9074 8.81136ZM63.3507 8.48993L63.9074 8.1685L64.4642 8.48993L63.9074 8.81136L63.3507 8.48993ZM63.9074 8.1685L64.4642 7.84707L65.0209 8.1685L64.4642 8.48993L63.9074 8.1685ZM64.4642 8.48993L65.0209 8.1685L65.5776 8.48993L65.0209 8.81136L64.4642 8.48993ZM65.0209 8.81136L65.5776 8.48993L66.1344 8.81136L65.5776 9.13279L65.0209 8.81136ZM64.4642 9.13279L65.0209 8.81136L65.5776 9.13279L65.0209 9.45422L64.4642 9.13279ZM62.2372 7.84707L62.794 7.52564L63.3507 7.84707L62.794 8.1685L62.2372 7.84707ZM62.794 8.1685L63.3507 7.84707L63.9074 8.1685L63.3507 8.48993L62.794 8.1685ZM62.794 8.81136L63.3507 8.48993L63.9074 8.81136L63.3507 9.13279L62.794 8.81136ZM62.2372 8.48993L62.794 8.1685L63.3507 8.48993L62.794 8.81136L62.2372 8.48993ZM61.6805 8.1685L62.2372 7.84707L62.794 8.1685L62.2372 8.48993L61.6805 8.1685ZM59.4536 8.1685L60.0103 7.84707L60.5671 8.1685L60.0103 8.48993L59.4536 8.1685ZM60.0103 7.84707L60.5671 7.52564L61.1238 7.84707L60.5671 8.1685L60.0103 7.84707ZM60.5671 7.52564L61.1238 7.20421L61.6805 7.52564L61.1238 7.84707L60.5671 7.52564ZM61.1238 7.84707L61.6805 7.52564L62.2372 7.84707L61.6805 8.1685L61.1238 7.84707ZM60.5671 8.1685L61.1238 7.84707L61.6805 8.1685L61.1238 8.48993L60.5671 8.1685ZM60.0103 8.48993L60.5671 8.1685L61.1238 8.48993L60.5671 8.81136L60.0103 8.48993ZM60.5671 8.81136L61.1238 8.48993L61.6805 8.81136L61.1238 9.13279L60.5671 8.81136ZM61.1238 8.48993L61.6805 8.1685L62.2372 8.48993L61.6805 8.81136L61.1238 8.48993ZM61.6805 8.81136L62.2372 8.48993L62.794 8.81136L62.2372 9.13279L61.6805 8.81136ZM62.2372 9.13279L62.794 8.81136L63.3507 9.13279L62.794 9.45422L62.2372 9.13279ZM61.6805 9.45422L62.2372 9.13279L62.794 9.45422L62.2372 9.77564L61.6805 9.45422ZM61.1238 9.13279L61.6805 8.81136L62.2372 9.13279L61.6805 9.45422L61.1238 9.13279ZM62.2372 9.77564L62.794 9.45422L63.3507 9.77564L62.794 10.0971L62.2372 9.77564ZM62.794 9.45422L63.3507 9.13279L63.9074 9.45421L63.3507 9.77564L62.794 9.45422ZM63.3507 9.77564L63.9074 9.45421L64.4642 9.77564L63.9074 10.0971L63.3507 9.77564ZM63.9074 10.0971L64.4642 9.77564L65.0209 10.0971L64.4642 10.4185L63.9074 10.0971ZM64.4642 10.4185L65.0209 10.0971L65.5776 10.4185L65.0209 10.7399L64.4642 10.4185ZM65.0209 10.7399L65.5776 10.4185L66.1344 10.7399L65.5776 11.0614L65.0209 10.7399ZM64.4642 11.0614L65.0209 10.7399L65.5776 11.0614L65.0209 11.3828L64.4642 11.0614ZM63.9074 10.7399L64.4642 10.4185L65.0209 10.7399L64.4642 11.0614L63.9074 10.7399ZM63.3507 10.4185L63.9074 10.0971L64.4642 10.4185L63.9074 10.7399L63.3507 10.4185ZM62.794 10.0971L63.3507 9.77564L63.9074 10.0971L63.3507 10.4185L62.794 10.0971ZM65.5776 9.13279L66.1344 8.81136L66.6911 9.13279L66.1344 9.45421L65.5776 9.13279ZM66.1344 9.45421L66.6911 9.13279L67.2478 9.45422L66.6911 9.77564L66.1344 9.45421ZM66.1344 8.81136L66.6911 8.48993L67.2478 8.81136L66.6911 9.13279L66.1344 8.81136ZM65.5776 8.48993L66.1344 8.1685L66.6911 8.48993L66.1344 8.81136L65.5776 8.48993ZM66.6911 9.13279L67.2478 8.81136L67.8046 9.13279L67.2478 9.45422L66.6911 9.13279ZM67.2478 9.45422L67.8046 9.13279L68.3613 9.45422L67.8046 9.77564L67.2478 9.45422ZM67.8046 9.13279L68.3613 8.81136L68.918 9.13279L68.3613 9.45422L67.8046 9.13279ZM68.3613 8.81136L68.918 8.48993L69.4747 8.81136L68.918 9.13279L68.3613 8.81136ZM67.8046 8.48993L68.3613 8.1685L68.918 8.48993L68.3613 8.81136L67.8046 8.48993ZM67.2478 8.1685L67.8046 7.84707L68.3613 8.1685L67.8046 8.48993L67.2478 8.1685ZM66.6911 8.48993L67.2478 8.1685L67.8046 8.48993L67.2478 8.81136L66.6911 8.48993ZM67.2478 8.81136L67.8046 8.48993L68.3613 8.81136L67.8046 9.13279L67.2478 8.81136ZM66.1344 8.1685L66.6911 7.84707L67.2478 8.1685L66.6911 8.48993L66.1344 8.1685ZM66.1344 7.52564L66.6911 7.20421L67.2478 7.52564L66.6911 7.84707L66.1344 7.52564ZM65.5776 7.20421L66.1344 6.88279L66.6911 7.20421L66.1344 7.52564L65.5776 7.20421ZM66.6911 7.84707L67.2478 7.52564L67.8046 7.84707L67.2478 8.1685L66.6911 7.84707ZM65.5776 7.84707L66.1344 7.52564L66.6911 7.84707L66.1344 8.1685L65.5776 7.84707ZM65.0209 7.52564L65.5776 7.20421L66.1344 7.52564L65.5776 7.84707L65.0209 7.52564ZM64.4642 7.20421L65.0209 6.88279L65.5776 7.20421L65.0209 7.52564L64.4642 7.20421ZM65.0209 6.88279L65.5776 6.56136L66.1344 6.88279L65.5776 7.20421L65.0209 6.88279ZM64.4642 6.56136L65.0209 6.23993L65.5776 6.56136L65.0209 6.88279L64.4642 6.56136ZM62.794 6.23993L63.3507 5.9185L63.9074 6.23993L63.3507 6.56136L62.794 6.23993ZM63.3507 5.9185L63.9074 5.59707L64.4642 5.9185L63.9074 6.23993L63.3507 5.9185ZM63.9074 6.23993L64.4642 5.9185L65.0209 6.23993L64.4642 6.56136L63.9074 6.23993ZM63.3507 6.56136L63.9074 6.23993L64.4642 6.56136L63.9074 6.88279L63.3507 6.56136ZM63.9074 6.88279L64.4642 6.56136L65.0209 6.88279L64.4642 7.20421L63.9074 6.88279Z" fill="white"/>
<path d="M64.4671 5.27397L65.0238 4.95254L65.5805 5.27397L65.0238 5.5954L64.4671 5.27397ZM65.0238 4.95254L65.5805 4.63111L66.1373 4.95254L65.5805 5.27397L65.0238 4.95254ZM65.5805 4.63111L66.1373 4.30968L66.694 4.63111L66.1373 4.95254L65.5805 4.63111ZM66.1373 4.30968L66.694 3.98826L67.2507 4.30968L66.694 4.63111L66.1373 4.30968ZM66.694 3.98826L67.2507 3.66683L67.8074 3.98825L67.2507 4.30968L66.694 3.98826ZM67.2507 3.66683L67.8074 3.3454L68.3642 3.66683L67.8074 3.98825L67.2507 3.66683ZM67.8074 3.98825L68.3642 3.66683L68.9209 3.98825L68.3642 4.30968L67.8074 3.98825ZM67.2507 4.30968L67.8074 3.98825L68.3642 4.30968L67.8074 4.63111L67.2507 4.30968ZM66.694 4.63111L67.2507 4.30968L67.8074 4.63111L67.2507 4.95254L66.694 4.63111ZM66.1373 4.95254L66.694 4.63111L67.2507 4.95254L66.694 5.27397L66.1373 4.95254ZM65.5805 5.27397L66.1373 4.95254L66.694 5.27397L66.1373 5.5954L65.5805 5.27397ZM65.0238 5.5954L65.5805 5.27397L66.1373 5.5954L65.5805 5.91683L65.0238 5.5954ZM66.694 5.27397L67.2507 4.95254L67.8074 5.27397L67.2507 5.5954L66.694 5.27397ZM67.2507 5.5954L67.8074 5.27397L68.3642 5.5954L67.8074 5.91683L67.2507 5.5954ZM67.8074 5.91683L68.3642 5.5954L68.9209 5.91683L68.3642 6.23826L67.8074 5.91683ZM68.3642 6.23826L68.9209 5.91683L69.4776 6.23826L68.9209 6.55968L68.3642 6.23826ZM68.9209 6.55968L69.4776 6.23826L70.0344 6.55968L69.4776 6.88111L68.9209 6.55968ZM69.4776 6.88111L70.0344 6.55968L70.5911 6.88111L70.0344 7.20254L69.4776 6.88111ZM69.4776 6.23826L70.0344 5.91683L70.5911 6.23826L70.0344 6.55968L69.4776 6.23826ZM68.9209 5.91683L69.4776 5.5954L70.0344 5.91683L69.4776 6.23826L68.9209 5.91683ZM68.3642 5.5954L68.9209 5.27397L69.4776 5.5954L68.9209 5.91683L68.3642 5.5954ZM67.8074 5.27397L68.3642 4.95254L68.9209 5.27397L68.3642 5.5954L67.8074 5.27397ZM67.2507 4.95254L67.8074 4.63111L68.3642 4.95254L67.8074 5.27397L67.2507 4.95254ZM70.0344 6.55968L70.5911 6.23826L71.1478 6.55968L70.5911 6.88111L70.0344 6.55968ZM70.5911 6.88111L71.1478 6.55968L71.7046 6.88111L71.1478 7.20254L70.5911 6.88111ZM71.1478 7.20254L71.7046 6.88111L72.2613 7.20254L71.7046 7.52397L71.1478 7.20254ZM70.5911 7.52397L71.1478 7.20254L71.7046 7.52397L71.1478 7.8454L70.5911 7.52397ZM70.0344 7.20254L70.5911 6.88111L71.1478 7.20254L70.5911 7.52397L70.0344 7.20254Z" fill="white"/>
</g>
</g>
</svg>
