<svg width="69" height="45" viewBox="0 0 69 45" fill="none" xmlns="http://www.w3.org/2000/svg">
<g id="SMSNotificationLttr">
<g id="smsLttr">
<path d="M5.54679 37L6.10352 36.6786L6.66025 37L6.10352 37.3214L5.54679 37ZM4.99006 37.3214L5.54679 37L6.10352 37.3214L5.54679 37.6429L4.99006 37.3214ZM4.43333 37L4.99006 36.6786L5.54679 37L4.99006 37.3214L4.43333 37ZM4.99006 36.6786L5.54679 36.3572L6.10352 36.6786L5.54679 37L4.99006 36.6786ZM3.8766 36.6786L4.43333 36.3572L4.99006 36.6786L4.43333 37L3.8766 36.6786ZM3.31987 37L3.8766 36.6786L4.43333 37L3.8766 37.3214L3.31987 37ZM3.8766 37.3214L4.43333 37L4.99006 37.3214L4.43333 37.6429L3.8766 37.3214ZM3.31987 37.6429L3.8766 37.3214L4.43333 37.6429L3.8766 37.9643L3.31987 37.6429ZM2.76313 37.9643L3.31987 37.6429L3.8766 37.9643L3.31987 38.2857L2.76313 37.9643ZM2.2064 37.6429L2.76313 37.3214L3.31987 37.6429L2.76313 37.9643L2.2064 37.6429ZM1.64967 37.9643L2.2064 37.6429L2.76313 37.9643L2.2064 38.2857L1.64967 37.9643ZM2.76313 37.3214L3.31987 37L3.8766 37.3214L3.31987 37.6429L2.76313 37.3214ZM2.2064 38.2857L2.76313 37.9643L3.31987 38.2857L2.76313 38.6072L2.2064 38.2857ZM1.64967 38.6072L2.2064 38.2857L2.76313 38.6072L2.2064 38.9286L1.64967 38.6072ZM2.2064 38.9286L2.76313 38.6072L3.31987 38.9286L2.76313 39.25L2.2064 38.9286ZM2.76313 38.6072L3.31987 38.2857L3.8766 38.6072L3.31987 38.9286L2.76313 38.6072ZM3.31987 38.9286L3.8766 38.6072L4.43333 38.9286L3.8766 39.25L3.31987 38.9286ZM3.8766 39.25L4.43333 38.9286L4.99006 39.25L4.43333 39.5714L3.8766 39.25ZM3.31987 39.5714L3.8766 39.25L4.43333 39.5714L3.8766 39.8929L3.31987 39.5714ZM2.76313 39.25L3.31987 38.9286L3.8766 39.25L3.31987 39.5714L2.76313 39.25ZM4.43333 39.5714L4.99006 39.25L5.54679 39.5714L4.99006 39.8929L4.43333 39.5714ZM4.99006 39.25L5.54679 38.9286L6.10352 39.25L5.54679 39.5714L4.99006 39.25ZM4.43333 38.9286L4.99006 38.6072L5.54679 38.9286L4.99006 39.25L4.43333 38.9286ZM4.99006 38.6072L5.54679 38.2857L6.10352 38.6072L5.54679 38.9286L4.99006 38.6072ZM5.54679 38.2857L6.10352 37.9643L6.66025 38.2857L6.10352 38.6072L5.54679 38.2857ZM6.10352 37.9643L6.66025 37.6429L7.21698 37.9643L6.66025 38.2857L6.10352 37.9643ZM6.66025 38.2857L7.21698 37.9643L7.77371 38.2857L7.21698 38.6072L6.66025 38.2857ZM6.10352 38.6072L6.66025 38.2857L7.21698 38.6072L6.66025 38.9286L6.10352 38.6072ZM5.54679 38.9286L6.10352 38.6072L6.66025 38.9286L6.10352 39.25L5.54679 38.9286ZM7.21698 37.9643L7.77371 37.6429L8.33044 37.9643L7.77371 38.2857L7.21698 37.9643ZM7.77371 38.2857L8.33044 37.9643L8.88717 38.2857L8.33044 38.6072L7.77371 38.2857ZM7.21698 38.6072L7.77371 38.2857L8.33044 38.6072L7.77371 38.9286L7.21698 38.6072ZM7.77371 39.5714L8.33044 39.25L8.88717 39.5714L8.33044 39.8929L7.77371 39.5714ZM8.33044 39.25L8.88717 38.9286L9.4439 39.25L8.88717 39.5714L8.33044 39.25ZM7.77371 38.9286L8.33044 38.6072L8.88717 38.9286L8.33044 39.25L7.77371 38.9286ZM8.33044 38.6072L8.88717 38.2857L9.4439 38.6072L8.88717 38.9286L8.33044 38.6072ZM8.88717 38.9286L9.4439 38.6072L10.0006 38.9286L9.4439 39.25L8.88717 38.9286ZM8.88717 39.5714L9.4439 39.25L10.0006 39.5714L9.4439 39.8929L8.88717 39.5714ZM8.33044 39.8929L8.88717 39.5714L9.4439 39.8929L8.88717 40.2143L8.33044 39.8929ZM7.77371 40.2143L8.33044 39.8929L8.88717 40.2143L8.33044 40.5357L7.77371 40.2143ZM7.21698 40.5357L7.77371 40.2143L8.33044 40.5357L7.77371 40.8572L7.21698 40.5357ZM6.66025 40.8572L7.21698 40.5357L7.77371 40.8572L7.21698 41.1786L6.66025 40.8572ZM6.10352 40.5357L6.66025 40.2143L7.21698 40.5357L6.66025 40.8572L6.10352 40.5357ZM6.66025 40.2143L7.21698 39.8929L7.77371 40.2143L7.21698 40.5357L6.66025 40.2143ZM7.21698 39.8929L7.77371 39.5714L8.33044 39.8929L7.77371 40.2143L7.21698 39.8929ZM5.54679 40.8572L6.10352 40.5357L6.66025 40.8572L6.10352 41.1786L5.54679 40.8572ZM4.99006 40.5357L5.54679 40.2143L6.10352 40.5357L5.54679 40.8572L4.99006 40.5357ZM5.54679 40.2143L6.10352 39.8929L6.66025 40.2143L6.10352 40.5357L5.54679 40.2143Z" fill="white"/>
<path d="M10.5588 38.6063L11.1155 38.2849L11.6723 38.6063L11.1155 38.9277L10.5588 38.6063ZM10.0021 38.2849L10.5588 37.9635L11.1155 38.2849L10.5588 38.6063L10.0021 38.2849ZM9.44535 37.9635L10.0021 37.642L10.5588 37.9635L10.0021 38.2849L9.44535 37.9635ZM8.88862 37.642L9.44535 37.3206L10.0021 37.642L9.44535 37.9635L8.88862 37.642ZM8.33189 37.3206L8.88862 36.9992L9.44535 37.3206L8.88862 37.642L8.33189 37.3206ZM7.77516 36.9992L8.33189 36.6777L8.88862 36.9992L8.33189 37.3206L7.77516 36.9992ZM8.33189 36.6777L8.88862 36.3563L9.44535 36.6777L8.88862 36.9992L8.33189 36.6777ZM7.77516 36.3563L8.33189 36.0349L8.88862 36.3563L8.33189 36.6777L7.77516 36.3563ZM7.21843 36.0349L7.77516 35.7135L8.33189 36.0349L7.77516 36.3563L7.21843 36.0349ZM6.6617 35.7135L7.21843 35.392L7.77516 35.7135L7.21843 36.0349L6.6617 35.7135ZM6.10497 36.0349L6.6617 35.7135L7.21843 36.0349L6.6617 36.3563L6.10497 36.0349ZM5.54824 35.7135L6.10497 35.392L6.6617 35.7135L6.10497 36.0349L5.54824 35.7135ZM6.6617 36.3563L7.21843 36.0349L7.77516 36.3563L7.21843 36.6777L6.6617 36.3563ZM7.21843 36.6777L7.77516 36.3563L8.33189 36.6777L7.77516 36.9992L7.21843 36.6777ZM6.10497 35.392L6.6617 35.0706L7.21843 35.392L6.6617 35.7135L6.10497 35.392ZM8.88862 36.9992L9.44535 36.6777L10.0021 36.9992L9.44535 37.3206L8.88862 36.9992ZM9.44535 37.3206L10.0021 36.9992L10.5588 37.3206L10.0021 37.642L9.44535 37.3206ZM10.0021 37.642L10.5588 37.3206L11.1155 37.642L10.5588 37.9635L10.0021 37.642ZM10.5588 37.9635L11.1155 37.642L11.6723 37.9635L11.1155 38.2849L10.5588 37.9635ZM11.1155 38.2849L11.6723 37.9635L12.229 38.2849L11.6723 38.6063L11.1155 38.2849ZM7.77516 35.7135L8.33189 35.392L8.88862 35.7135L8.33189 36.0349L7.77516 35.7135ZM8.33189 36.0349L8.88862 35.7135L9.44535 36.0349L8.88862 36.3563L8.33189 36.0349ZM8.88862 35.7135L9.44535 35.392L10.0021 35.7135L9.44535 36.0349L8.88862 35.7135ZM9.44535 36.0349L10.0021 35.7135L10.5588 36.0349L10.0021 36.3563L9.44535 36.0349ZM10.0021 35.7135L10.5588 35.392L11.1155 35.7135L10.5588 36.0349L10.0021 35.7135ZM10.5588 36.0349L11.1155 35.7135L11.6723 36.0349L11.1155 36.3563L10.5588 36.0349ZM10.5588 35.392L11.1155 35.0706L11.6723 35.392L11.1155 35.7135L10.5588 35.392ZM10.0021 35.0706L10.5588 34.7492L11.1155 35.0706L10.5588 35.392L10.0021 35.0706ZM10.5588 34.7492L11.1155 34.4277L11.6723 34.7492L11.1155 35.0706L10.5588 34.7492ZM10.0021 34.4277L10.5588 34.1063L11.1155 34.4277L10.5588 34.7492L10.0021 34.4277ZM9.44535 33.4635L10.0021 33.142L10.5588 33.4635L10.0021 33.7849L9.44535 33.4635ZM10.0021 33.7849L10.5588 33.4635L11.1155 33.7849L10.5588 34.1063L10.0021 33.7849ZM10.5588 34.1063L11.1155 33.7849L11.6723 34.1063L11.1155 34.4277L10.5588 34.1063ZM11.1155 34.4277L11.6723 34.1063L12.229 34.4277L11.6723 34.7492L11.1155 34.4277ZM11.6723 34.7492L12.229 34.4277L12.7857 34.7492L12.229 35.0706L11.6723 34.7492ZM12.229 35.0706L12.7857 34.7492L13.3425 35.0706L12.7857 35.392L12.229 35.0706ZM12.7857 35.392L13.3425 35.0706L13.8992 35.392L13.3425 35.7135L12.7857 35.392ZM13.3425 35.7135L13.8992 35.392L14.4559 35.7135L13.8992 36.0349L13.3425 35.7135ZM13.8992 36.0349L14.4559 35.7135L15.0127 36.0349L14.4559 36.3563L13.8992 36.0349ZM14.4559 36.3563L15.0127 36.0349L15.5694 36.3563L15.0127 36.6777L14.4559 36.3563ZM15.0127 36.0349L15.5694 35.7135L16.1261 36.0349L15.5694 36.3563L15.0127 36.0349ZM14.4559 35.7135L15.0127 35.392L15.5694 35.7135L15.0127 36.0349L14.4559 35.7135ZM13.8992 35.392L14.4559 35.0706L15.0127 35.392L14.4559 35.7135L13.8992 35.392ZM13.3425 35.0706L13.8992 34.7492L14.4559 35.0706L13.8992 35.392L13.3425 35.0706ZM12.7857 34.7492L13.3425 34.4277L13.8992 34.7492L13.3425 35.0706L12.7857 34.7492ZM12.229 34.4277L12.7857 34.1063L13.3425 34.4277L12.7857 34.7492L12.229 34.4277ZM11.6723 34.1063L12.229 33.7849L12.7857 34.1063L12.229 34.4277L11.6723 34.1063ZM11.1155 33.7849L11.6723 33.4635L12.229 33.7849L11.6723 34.1063L11.1155 33.7849ZM10.5588 33.4635L11.1155 33.142L11.6723 33.4635L11.1155 33.7849L10.5588 33.4635ZM10.0021 33.142L10.5588 32.8206L11.1155 33.142L10.5588 33.4635L10.0021 33.142ZM7.21843 35.392L7.77516 35.0706L8.33189 35.392L7.77516 35.7135L7.21843 35.392ZM8.33189 35.392L8.88862 35.0706L9.44535 35.392L8.88862 35.7135L8.33189 35.392ZM9.44535 35.392L10.0021 35.0706L10.5588 35.392L10.0021 35.7135L9.44535 35.392ZM9.44535 34.7492L10.0021 34.4277L10.5588 34.7492L10.0021 35.0706L9.44535 34.7492ZM9.44535 34.1063L10.0021 33.7849L10.5588 34.1063L10.0021 34.4277L9.44535 34.1063Z" fill="white"/>
<path d="M15.5737 31.2109L16.1305 30.8895L16.6872 31.2109L16.1305 31.5324L15.5737 31.2109ZM15.017 31.5324L15.5737 31.2109L16.1305 31.5324L15.5737 31.8538L15.017 31.5324ZM14.4603 31.2109L15.017 30.8895L15.5737 31.2109L15.017 31.5324L14.4603 31.2109ZM15.017 30.8895L15.5737 30.5681L16.1305 30.8895L15.5737 31.2109L15.017 30.8895ZM13.9035 30.8895L14.4603 30.5681L15.017 30.8895L14.4603 31.2109L13.9035 30.8895ZM13.3468 31.2109L13.9035 30.8895L14.4603 31.2109L13.9035 31.5324L13.3468 31.2109ZM13.9035 31.5324L14.4603 31.2109L15.017 31.5324L14.4603 31.8538L13.9035 31.5324ZM13.3468 31.8538L13.9035 31.5324L14.4603 31.8538L13.9035 32.1752L13.3468 31.8538ZM12.7901 32.1752L13.3468 31.8538L13.9035 32.1752L13.3468 32.4967L12.7901 32.1752ZM12.2334 31.8538L12.7901 31.5324L13.3468 31.8538L12.7901 32.1752L12.2334 31.8538ZM11.6766 32.1752L12.2334 31.8538L12.7901 32.1752L12.2334 32.4967L11.6766 32.1752ZM12.7901 31.5324L13.3468 31.2109L13.9035 31.5324L13.3468 31.8538L12.7901 31.5324ZM12.2334 32.4967L12.7901 32.1752L13.3468 32.4967L12.7901 32.8181L12.2334 32.4967ZM11.6766 32.8181L12.2334 32.4967L12.7901 32.8181L12.2334 33.1395L11.6766 32.8181ZM12.2334 33.1395L12.7901 32.8181L13.3468 33.1395L12.7901 33.4609L12.2334 33.1395ZM12.7901 32.8181L13.3468 32.4967L13.9035 32.8181L13.3468 33.1395L12.7901 32.8181ZM13.3468 33.1395L13.9035 32.8181L14.4603 33.1395L13.9035 33.4609L13.3468 33.1395ZM13.9035 33.4609L14.4603 33.1395L15.017 33.4609L14.4603 33.7824L13.9035 33.4609ZM13.3468 33.7824L13.9035 33.4609L14.4603 33.7824L13.9035 34.1038L13.3468 33.7824ZM12.7901 33.4609L13.3468 33.1395L13.9035 33.4609L13.3468 33.7824L12.7901 33.4609ZM14.4603 33.7824L15.017 33.4609L15.5737 33.7824L15.017 34.1038L14.4603 33.7824ZM15.017 33.4609L15.5737 33.1395L16.1305 33.4609L15.5737 33.7824L15.017 33.4609ZM14.4603 33.1395L15.017 32.8181L15.5737 33.1395L15.017 33.4609L14.4603 33.1395ZM15.017 32.8181L15.5737 32.4967L16.1305 32.8181L15.5737 33.1395L15.017 32.8181ZM15.5737 32.4967L16.1305 32.1752L16.6872 32.4967L16.1305 32.8181L15.5737 32.4967ZM16.1305 32.1752L16.6872 31.8538L17.2439 32.1752L16.6872 32.4967L16.1305 32.1752ZM16.6872 32.4967L17.2439 32.1752L17.8007 32.4967L17.2439 32.8181L16.6872 32.4967ZM16.1305 32.8181L16.6872 32.4967L17.2439 32.8181L16.6872 33.1395L16.1305 32.8181ZM15.5737 33.1395L16.1305 32.8181L16.6872 33.1395L16.1305 33.4609L15.5737 33.1395ZM17.2439 32.1752L17.8007 31.8538L18.3574 32.1752L17.8007 32.4967L17.2439 32.1752ZM17.8007 32.4967L18.3574 32.1752L18.9141 32.4967L18.3574 32.8181L17.8007 32.4967ZM17.2439 32.8181L17.8007 32.4967L18.3574 32.8181L17.8007 33.1395L17.2439 32.8181ZM17.8007 33.7824L18.3574 33.4609L18.9141 33.7824L18.3574 34.1038L17.8007 33.7824ZM18.3574 33.4609L18.9141 33.1395L19.4709 33.4609L18.9141 33.7824L18.3574 33.4609ZM17.8007 33.1395L18.3574 32.8181L18.9141 33.1395L18.3574 33.4609L17.8007 33.1395ZM18.3574 32.8181L18.9141 32.4967L19.4709 32.8181L18.9141 33.1395L18.3574 32.8181ZM18.9141 33.1395L19.4709 32.8181L20.0276 33.1395L19.4709 33.4609L18.9141 33.1395ZM18.9141 33.7824L19.4709 33.4609L20.0276 33.7824L19.4709 34.1038L18.9141 33.7824ZM18.3574 34.1038L18.9141 33.7824L19.4709 34.1038L18.9141 34.4252L18.3574 34.1038ZM17.8007 34.4252L18.3574 34.1038L18.9141 34.4252L18.3574 34.7467L17.8007 34.4252ZM17.2439 34.7467L17.8007 34.4252L18.3574 34.7467L17.8007 35.0681L17.2439 34.7467ZM16.6872 35.0681L17.2439 34.7467L17.8007 35.0681L17.2439 35.3895L16.6872 35.0681ZM16.1305 34.7467L16.6872 34.4252L17.2439 34.7467L16.6872 35.0681L16.1305 34.7467ZM16.6872 34.4252L17.2439 34.1038L17.8007 34.4252L17.2439 34.7467L16.6872 34.4252ZM17.2439 34.1038L17.8007 33.7824L18.3574 34.1038L17.8007 34.4252L17.2439 34.1038ZM15.5737 35.0681L16.1305 34.7467L16.6872 35.0681L16.1305 35.3895L15.5737 35.0681ZM15.017 34.7467L15.5737 34.4252L16.1305 34.7467L15.5737 35.0681L15.017 34.7467ZM15.5737 34.4252L16.1305 34.1038L16.6872 34.4252L16.1305 34.7467L15.5737 34.4252Z" fill="white"/>
<path d="M22.2516 29.284L22.8083 28.9626L23.3651 29.284L22.8083 29.6055L22.2516 29.284ZM21.6949 28.9626L22.2516 28.6412L22.8083 28.9626L22.2516 29.284L21.6949 28.9626ZM22.2516 28.6412L22.8083 28.3198L23.3651 28.6412L22.8083 28.9626L22.2516 28.6412ZM22.8083 28.9626L23.3651 28.6412L23.9218 28.9626L23.3651 29.284L22.8083 28.9626ZM23.3651 29.284L23.9218 28.9626L24.4785 29.284L23.9218 29.6055L23.3651 29.284ZM22.8083 29.6055L23.3651 29.284L23.9218 29.6055L23.3651 29.9269L22.8083 29.6055ZM20.5814 28.3198L21.1381 27.9983L21.6949 28.3198L21.1381 28.6412L20.5814 28.3198ZM21.1381 28.6412L21.6949 28.3198L22.2516 28.6412L21.6949 28.9626L21.1381 28.6412ZM21.1381 29.284L21.6949 28.9626L22.2516 29.284L21.6949 29.6055L21.1381 29.284ZM20.5814 28.9626L21.1381 28.6412L21.6949 28.9626L21.1381 29.284L20.5814 28.9626ZM20.0247 28.6412L20.5814 28.3198L21.1381 28.6412L20.5814 28.9626L20.0247 28.6412ZM17.7978 28.6412L18.3545 28.3198L18.9112 28.6412L18.3545 28.9626L17.7978 28.6412ZM18.3545 28.3198L18.9112 27.9983L19.468 28.3198L18.9112 28.6412L18.3545 28.3198ZM18.9112 27.9983L19.468 27.6769L20.0247 27.9983L19.468 28.3198L18.9112 27.9983ZM19.468 28.3198L20.0247 27.9983L20.5814 28.3198L20.0247 28.6412L19.468 28.3198ZM18.9112 28.6412L19.468 28.3198L20.0247 28.6412L19.468 28.9626L18.9112 28.6412ZM18.3545 28.9626L18.9112 28.6412L19.468 28.9626L18.9112 29.284L18.3545 28.9626ZM18.9112 29.284L19.468 28.9626L20.0247 29.284L19.468 29.6055L18.9112 29.284ZM19.468 28.9626L20.0247 28.6412L20.5814 28.9626L20.0247 29.284L19.468 28.9626ZM20.0247 29.284L20.5814 28.9626L21.1381 29.284L20.5814 29.6055L20.0247 29.284ZM20.5814 29.6055L21.1381 29.284L21.6949 29.6055L21.1381 29.9269L20.5814 29.6055ZM20.0247 29.9269L20.5814 29.6055L21.1381 29.9269L20.5814 30.2483L20.0247 29.9269ZM19.468 29.6055L20.0247 29.284L20.5814 29.6055L20.0247 29.9269L19.468 29.6055ZM20.5814 30.2483L21.1381 29.9269L21.6949 30.2483L21.1381 30.5698L20.5814 30.2483ZM21.1381 29.9269L21.6949 29.6055L22.2516 29.9269L21.6949 30.2483L21.1381 29.9269ZM21.6949 30.2483L22.2516 29.9269L22.8083 30.2483L22.2516 30.5698L21.6949 30.2483ZM22.2516 30.5698L22.8083 30.2483L23.3651 30.5698L22.8083 30.8912L22.2516 30.5698ZM22.8083 30.8912L23.3651 30.5698L23.9218 30.8912L23.3651 31.2126L22.8083 30.8912ZM23.3651 31.2126L23.9218 30.8912L24.4785 31.2126L23.9218 31.534L23.3651 31.2126ZM22.8083 31.534L23.3651 31.2126L23.9218 31.534L23.3651 31.8555L22.8083 31.534ZM22.2516 31.2126L22.8083 30.8912L23.3651 31.2126L22.8083 31.534L22.2516 31.2126ZM21.6949 30.8912L22.2516 30.5698L22.8083 30.8912L22.2516 31.2126L21.6949 30.8912ZM21.1381 30.5698L21.6949 30.2483L22.2516 30.5698L21.6949 30.8912L21.1381 30.5698ZM23.9218 29.6055L24.4785 29.284L25.0353 29.6055L24.4785 29.9269L23.9218 29.6055ZM24.4785 29.9269L25.0353 29.6055L25.592 29.9269L25.0353 30.2483L24.4785 29.9269ZM24.4785 29.284L25.0353 28.9626L25.592 29.284L25.0353 29.6055L24.4785 29.284ZM23.9218 28.9626L24.4785 28.6412L25.0353 28.9626L24.4785 29.284L23.9218 28.9626ZM25.0353 29.6055L25.592 29.284L26.1487 29.6055L25.592 29.9269L25.0353 29.6055ZM25.592 29.9269L26.1487 29.6055L26.7055 29.9269L26.1487 30.2483L25.592 29.9269ZM26.1487 29.6055L26.7055 29.284L27.2622 29.6055L26.7055 29.9269L26.1487 29.6055ZM26.7055 29.284L27.2622 28.9626L27.8189 29.284L27.2622 29.6055L26.7055 29.284ZM26.1487 28.9626L26.7055 28.6412L27.2622 28.9626L26.7055 29.284L26.1487 28.9626ZM25.592 28.6412L26.1487 28.3198L26.7055 28.6412L26.1487 28.9626L25.592 28.6412ZM25.0353 28.9626L25.592 28.6412L26.1487 28.9626L25.592 29.284L25.0353 28.9626ZM25.592 29.284L26.1487 28.9626L26.7055 29.284L26.1487 29.6055L25.592 29.284ZM24.4785 28.6412L25.0353 28.3198L25.592 28.6412L25.0353 28.9626L24.4785 28.6412ZM24.4785 27.9983L25.0353 27.6769L25.592 27.9983L25.0353 28.3198L24.4785 27.9983ZM23.9218 27.6769L24.4785 27.3555L25.0353 27.6769L24.4785 27.9983L23.9218 27.6769ZM25.0353 28.3198L25.592 27.9983L26.1487 28.3198L25.592 28.6412L25.0353 28.3198ZM23.9218 28.3198L24.4785 27.9983L25.0353 28.3198L24.4785 28.6412L23.9218 28.3198ZM23.3651 27.9983L23.9218 27.6769L24.4785 27.9983L23.9218 28.3198L23.3651 27.9983ZM22.8083 27.6769L23.3651 27.3555L23.9218 27.6769L23.3651 27.9983L22.8083 27.6769ZM23.3651 27.3555L23.9218 27.034L24.4785 27.3555L23.9218 27.6769L23.3651 27.3555ZM22.8083 27.034L23.3651 26.7126L23.9218 27.034L23.3651 27.3555L22.8083 27.034ZM21.1381 26.7126L21.6949 26.3912L22.2516 26.7126L21.6949 27.034L21.1381 26.7126ZM21.6949 26.3912L22.2516 26.0698L22.8083 26.3912L22.2516 26.7126L21.6949 26.3912ZM22.2516 26.7126L22.8083 26.3912L23.3651 26.7126L22.8083 27.034L22.2516 26.7126ZM21.6949 27.034L22.2516 26.7126L22.8083 27.034L22.2516 27.3555L21.6949 27.034ZM22.2516 27.3555L22.8083 27.034L23.3651 27.3555L22.8083 27.6769L22.2516 27.3555Z" fill="white"/>
<path d="M23.9247 25.1038L24.4814 24.7824L25.0382 25.1038L24.4814 25.4252L23.9247 25.1038ZM23.368 25.4252L23.9247 25.1038L24.4814 25.4252L23.9247 25.7467L23.368 25.4252ZM23.9247 25.7467L24.4814 25.4252L25.0382 25.7467L24.4814 26.0681L23.9247 25.7467ZM24.4814 25.4252L25.0382 25.1038L25.5949 25.4252L25.0382 25.7467L24.4814 25.4252ZM25.0382 25.1038L25.5949 24.7824L26.1516 25.1038L25.5949 25.4252L25.0382 25.1038ZM24.4814 24.7824L25.0382 24.4609L25.5949 24.7824L25.0382 25.1038L24.4814 24.7824ZM25.0382 24.4609L25.5949 24.1395L26.1516 24.4609L25.5949 24.7824L25.0382 24.4609ZM25.5949 24.1395L26.1516 23.8181L26.7083 24.1395L26.1516 24.4609L25.5949 24.1395ZM26.1516 24.4609L26.7083 24.1395L27.2651 24.4609L26.7083 24.7824L26.1516 24.4609ZM25.5949 24.7824L26.1516 24.4609L26.7083 24.7824L26.1516 25.1038L25.5949 24.7824ZM26.1516 25.1038L26.7083 24.7824L27.2651 25.1038L26.7083 25.4252L26.1516 25.1038ZM26.7083 24.7824L27.2651 24.4609L27.8218 24.7824L27.2651 25.1038L26.7083 24.7824ZM26.7083 24.1395L27.2651 23.8181L27.8218 24.1395L27.2651 24.4609L26.7083 24.1395ZM27.2651 24.4609L27.8218 24.1395L28.3785 24.4609L27.8218 24.7824L27.2651 24.4609ZM27.8218 24.7824L28.3785 24.4609L28.9353 24.7824L28.3785 25.1038L27.8218 24.7824ZM28.3785 25.1038L28.9353 24.7824L29.492 25.1038L28.9353 25.4252L28.3785 25.1038ZM28.9353 25.4252L29.492 25.1038L30.0487 25.4252L29.492 25.7467L28.9353 25.4252ZM29.492 25.7467L30.0487 25.4252L30.6055 25.7467L30.0487 26.0681L29.492 25.7467ZM30.0487 26.0681L30.6055 25.7467L31.1622 26.0681L30.6055 26.3895L30.0487 26.0681ZM30.6055 26.3895L31.1622 26.0681L31.7189 26.3895L31.1622 26.7109L30.6055 26.3895ZM30.0487 26.7109L30.6055 26.3895L31.1622 26.7109L30.6055 27.0324L30.0487 26.7109ZM29.492 26.3895L30.0487 26.0681L30.6055 26.3895L30.0487 26.7109L29.492 26.3895ZM28.9353 26.0681L29.492 25.7467L30.0487 26.0681L29.492 26.3895L28.9353 26.0681ZM28.3785 25.7467L28.9353 25.4252L29.492 25.7467L28.9353 26.0681L28.3785 25.7467ZM27.8218 25.4252L28.3785 25.1038L28.9353 25.4252L28.3785 25.7467L27.8218 25.4252ZM27.2651 25.1038L27.8218 24.7824L28.3785 25.1038L27.8218 25.4252L27.2651 25.1038ZM28.9353 26.7109L29.492 26.3895L30.0487 26.7109L29.492 27.0324L28.9353 26.7109ZM29.492 27.0324L30.0487 26.7109L30.6055 27.0324L30.0487 27.3538L29.492 27.0324ZM30.6055 27.0324L31.1622 26.7109L31.7189 27.0324L31.1622 27.3538L30.6055 27.0324ZM30.0487 27.3538L30.6055 27.0324L31.1622 27.3538L30.6055 27.6752L30.0487 27.3538ZM29.492 27.6752L30.0487 27.3538L30.6055 27.6752L30.0487 27.9967L29.492 27.6752ZM28.9353 27.3538L29.492 27.0324L30.0487 27.3538L29.492 27.6752L28.9353 27.3538ZM28.9353 27.9967L29.492 27.6752L30.0487 27.9967L29.492 28.3181L28.9353 27.9967ZM28.3785 28.3181L28.9353 27.9967L29.492 28.3181L28.9353 28.6395L28.3785 28.3181ZM27.8218 27.9967L28.3785 27.6752L28.9353 27.9967L28.3785 28.3181L27.8218 27.9967ZM28.3785 27.6752L28.9353 27.3538L29.492 27.6752L28.9353 27.9967L28.3785 27.6752ZM27.8218 27.3538L28.3785 27.0324L28.9353 27.3538L28.3785 27.6752L27.8218 27.3538ZM27.2651 27.6752L27.8218 27.3538L28.3785 27.6752L27.8218 27.9967L27.2651 27.6752ZM27.2651 28.3181L27.8218 27.9967L28.3785 28.3181L27.8218 28.6395L27.2651 28.3181ZM26.7083 27.9967L27.2651 27.6752L27.8218 27.9967L27.2651 28.3181L26.7083 27.9967ZM26.1516 27.6752L26.7083 27.3538L27.2651 27.6752L26.7083 27.9967L26.1516 27.6752ZM25.5949 27.3538L26.1516 27.0324L26.7083 27.3538L26.1516 27.6752L25.5949 27.3538ZM25.0382 27.0324L25.5949 26.7109L26.1516 27.0324L25.5949 27.3538L25.0382 27.0324ZM24.4814 26.7109L25.0382 26.3895L25.5949 26.7109L25.0382 27.0324L24.4814 26.7109ZM23.9247 26.3895L24.4814 26.0681L25.0382 26.3895L24.4814 26.7109L23.9247 26.3895ZM24.4814 26.0681L25.0382 25.7467L25.5949 26.0681L25.0382 26.3895L24.4814 26.0681ZM23.368 26.0681L23.9247 25.7467L24.4814 26.0681L23.9247 26.3895L23.368 26.0681ZM25.0382 25.7467L25.5949 25.4252L26.1516 25.7467L25.5949 26.0681L25.0382 25.7467ZM25.0382 26.3895L25.5949 26.0681L26.1516 26.3895L25.5949 26.7109L25.0382 26.3895ZM25.5949 26.7109L26.1516 26.3895L26.7084 26.7109L26.1516 27.0324L25.5949 26.7109ZM26.1516 27.0324L26.7084 26.7109L27.2651 27.0324L26.7083 27.3538L26.1516 27.0324ZM26.7083 27.3538L27.2651 27.0324L27.8218 27.3538L27.2651 27.6752L26.7083 27.3538Z" fill="white"/>
<path d="M27.2665 23.1744L27.8233 22.853L28.38 23.1744L27.8233 23.4958L27.2665 23.1744ZM27.8233 22.853L28.38 22.5315L28.9367 22.853L28.38 23.1744L27.8233 22.853ZM28.38 22.5315L28.9367 22.2101L29.4935 22.5315L28.9367 22.853L28.38 22.5315ZM28.9367 22.2101L29.4935 21.8887L30.0502 22.2101L29.4935 22.5315L28.9367 22.2101ZM29.4935 21.8887L30.0502 21.5673L30.6069 21.8887L30.0502 22.2101L29.4935 21.8887ZM30.0502 21.5673L30.6069 21.2458L31.1636 21.5673L30.6069 21.8887L30.0502 21.5673ZM30.6069 21.8887L31.1636 21.5673L31.7204 21.8887L31.1636 22.2101L30.6069 21.8887ZM30.0502 22.2101L30.6069 21.8887L31.1636 22.2101L30.6069 22.5315L30.0502 22.2101ZM29.4935 22.5315L30.0502 22.2101L30.6069 22.5315L30.0502 22.853L29.4935 22.5315ZM28.9367 22.853L29.4935 22.5315L30.0502 22.853L29.4935 23.1744L28.9367 22.853ZM28.38 23.1744L28.9367 22.853L29.4935 23.1744L28.9367 23.4958L28.38 23.1744ZM27.8233 23.4958L28.38 23.1744L28.9367 23.4958L28.38 23.8173L27.8233 23.4958ZM29.4935 23.1744L30.0502 22.853L30.6069 23.1744L30.0502 23.4958L29.4935 23.1744ZM30.0502 23.4958L30.6069 23.1744L31.1636 23.4958L30.6069 23.8173L30.0502 23.4958ZM30.6069 23.8173L31.1636 23.4958L31.7204 23.8173L31.1636 24.1387L30.6069 23.8173ZM31.1636 24.1387L31.7204 23.8173L32.2771 24.1387L31.7204 24.4601L31.1636 24.1387ZM31.7204 24.4601L32.2771 24.1387L32.8338 24.4601L32.2771 24.7815L31.7204 24.4601ZM32.2771 24.7815L32.8338 24.4601L33.3906 24.7815L32.8338 25.103L32.2771 24.7815ZM32.2771 24.1387L32.8338 23.8173L33.3906 24.1387L32.8338 24.4601L32.2771 24.1387ZM31.7204 23.8173L32.2771 23.4958L32.8338 23.8173L32.2771 24.1387L31.7204 23.8173ZM31.1636 23.4958L31.7204 23.1744L32.2771 23.4958L31.7204 23.8173L31.1636 23.4958ZM30.6069 23.1744L31.1636 22.853L31.7204 23.1744L31.1636 23.4958L30.6069 23.1744ZM30.0502 22.853L30.6069 22.5315L31.1636 22.853L30.6069 23.1744L30.0502 22.853ZM32.8338 24.4601L33.3906 24.1387L33.9473 24.4601L33.3906 24.7815L32.8338 24.4601ZM33.3906 24.7815L33.9473 24.4601L34.504 24.7815L33.9473 25.103L33.3906 24.7815ZM33.9473 25.103L34.504 24.7815L35.0608 25.103L34.504 25.4244L33.9473 25.103ZM33.3906 25.4244L33.9473 25.103L34.504 25.4244L33.9473 25.7458L33.3906 25.4244ZM32.8338 25.103L33.3906 24.7815L33.9473 25.103L33.3906 25.4244L32.8338 25.103Z" fill="white"/>
<path d="M36.1742 23.8173L36.7309 23.4958L37.2877 23.8173L36.7309 24.1387L36.1742 23.8173ZM36.7309 23.4958L37.2877 23.1744L37.8444 23.4958L37.2877 23.8173L36.7309 23.4958ZM36.1742 23.1744L36.7309 22.853L37.2877 23.1744L36.7309 23.4958L36.1742 23.1744ZM35.6175 22.853L36.1742 22.5315L36.7309 22.853L36.1742 23.1744L35.6175 22.853ZM35.0608 22.5315L35.6175 22.2101L36.1742 22.5315L35.6175 22.853L35.0608 22.5315ZM34.504 22.2101L35.0608 21.8887L35.6175 22.2101L35.0608 22.5315L34.504 22.2101ZM33.9473 21.8887L34.504 21.5673L35.0608 21.8887L34.504 22.2101L33.9473 21.8887ZM33.3906 22.2101L33.9473 21.8887L34.504 22.2101L33.9473 22.5315L33.3906 22.2101ZM33.9473 22.5315L34.504 22.2101L35.0608 22.5315L34.504 22.853L33.9473 22.5315ZM34.504 22.853L35.0608 22.5315L35.6175 22.853L35.0608 23.1744L34.504 22.853ZM35.0608 23.1744L35.6175 22.853L36.1742 23.1744L35.6175 23.4958L35.0608 23.1744ZM35.6175 23.4958L36.1742 23.1744L36.7309 23.4958L36.1742 23.8173L35.6175 23.4958ZM32.8338 21.8887L33.3906 21.5673L33.9473 21.8887L33.3906 22.2101L32.8338 21.8887ZM33.3906 21.5673L33.9473 21.2458L34.504 21.5673L33.9473 21.8887L33.3906 21.5673ZM32.8338 21.2458L33.3906 20.9244L33.9473 21.2458L33.3906 21.5673L32.8338 21.2458ZM32.2771 20.9244L32.8338 20.603L33.3906 20.9244L32.8338 21.2458L32.2771 20.9244ZM31.7204 20.603L32.2771 20.2815L32.8338 20.603L32.2771 20.9244L31.7204 20.603ZM31.1636 20.9244L31.7204 20.603L32.2771 20.9244L31.7204 21.2458L31.1636 20.9244ZM31.7204 21.2458L32.2771 20.9244L32.8338 21.2458L32.2771 21.5673L31.7204 21.2458ZM32.2771 21.5673L32.8338 21.2458L33.3906 21.5673L32.8338 21.8887L32.2771 21.5673Z" fill="white"/>
<path d="M32.8382 19.9576L33.3949 19.6362L33.9516 19.9576L33.3949 20.279L32.8382 19.9576ZM33.3949 19.6362L33.9516 19.3147L34.5084 19.6362L33.9516 19.9576L33.3949 19.6362ZM33.9516 19.9576L34.5084 19.6362L35.0651 19.9576L34.5084 20.279L33.9516 19.9576ZM34.5084 20.279L35.0651 19.9576L35.6218 20.279L35.0651 20.6005L34.5084 20.279ZM35.0651 20.6005L35.6218 20.279L36.1786 20.6005L35.6218 20.9219L35.0651 20.6005ZM34.5084 20.9219L35.0651 20.6005L35.6218 20.9219L35.0651 21.2433L34.5084 20.9219ZM33.9516 20.6005L34.5084 20.279L35.0651 20.6005L34.5084 20.9219L33.9516 20.6005ZM33.3949 20.279L33.9516 19.9576L34.5084 20.279L33.9516 20.6005L33.3949 20.279ZM35.0651 21.2433L35.6218 20.9219L36.1786 21.2433L35.6218 21.5647L35.0651 21.2433ZM35.6218 21.5647L36.1786 21.2433L36.7353 21.5647L36.1786 21.8862L35.6218 21.5647ZM36.1786 21.8862L36.7353 21.5647L37.292 21.8862L36.7353 22.2076L36.1786 21.8862ZM36.1786 21.2433L36.7353 20.9219L37.292 21.2433L36.7353 21.5647L36.1786 21.2433ZM35.6218 20.9219L36.1786 20.6005L36.7353 20.9219L36.1786 21.2433L35.6218 20.9219ZM36.7353 21.5647L37.292 21.2433L37.8488 21.5647L37.292 21.8862L36.7353 21.5647ZM37.292 21.8862L37.8488 21.5647L38.4055 21.8862L37.8488 22.2076L37.292 21.8862ZM37.292 22.529L37.8488 22.2076L38.4055 22.529L37.8488 22.8505L37.292 22.529ZM36.7353 22.2076L37.292 21.8862L37.8488 22.2076L37.292 22.529L36.7353 22.2076ZM37.8488 22.8505L38.4055 22.529L38.9622 22.8505L38.4055 23.1719L37.8488 22.8505ZM38.4055 22.529L38.9622 22.2076L39.519 22.529L38.9622 22.8505L38.4055 22.529ZM37.8488 22.2076L38.4055 21.8862L38.9622 22.2076L38.4055 22.529L37.8488 22.2076ZM33.9516 19.3147L34.5084 18.9933L35.0651 19.3147L34.5084 19.6362L33.9516 19.3147ZM34.5084 18.9933L35.0651 18.6719L35.6218 18.9933L35.0651 19.3147L34.5084 18.9933ZM35.0651 18.6719L35.6218 18.3505L36.1786 18.6719L35.6218 18.9933L35.0651 18.6719ZM35.6218 18.3505L36.1786 18.029L36.7353 18.3505L36.1786 18.6719L35.6218 18.3505ZM35.6218 18.9933L36.1786 18.6719L36.7353 18.9933L36.1786 19.3147L35.6218 18.9933ZM35.0651 19.3147L35.6218 18.9933L36.1786 19.3147L35.6218 19.6362L35.0651 19.3147ZM34.5084 19.6362L35.0651 19.3147L35.6218 19.6362L35.0651 19.9576L34.5084 19.6362ZM36.7353 20.9219L37.292 20.6005L37.8488 20.9219L37.292 21.2433L36.7353 20.9219ZM36.7353 20.279L37.292 19.9576L37.8488 20.279L37.292 20.6005L36.7353 20.279ZM36.1786 20.6005L36.7353 20.279L37.292 20.6005L36.7353 20.9219L36.1786 20.6005ZM37.292 20.6005L37.8488 20.279L38.4055 20.6005L37.8488 20.9219L37.292 20.6005ZM36.1786 18.6719L36.7353 18.3505L37.292 18.6719L36.7353 18.9933L36.1786 18.6719ZM37.292 19.9576L37.8488 19.6362L38.4055 19.9576L37.8488 20.279L37.292 19.9576ZM37.8488 20.279L38.4055 19.9576L38.9622 20.279L38.4055 20.6005L37.8488 20.279Z" fill="white"/>
<path d="M41.7459 20.6005L42.3026 20.279L42.8593 20.6005L42.3026 20.9219L41.7459 20.6005ZM42.3026 20.279L42.8593 19.9576L43.4161 20.279L42.8593 20.6005L42.3026 20.279ZM41.7459 19.9576L42.3026 19.6362L42.8593 19.9576L42.3026 20.279L41.7459 19.9576ZM41.1891 19.6362L41.7459 19.3147L42.3026 19.6362L41.7459 19.9576L41.1891 19.6362ZM40.6324 19.3147L41.1891 18.9933L41.7459 19.3147L41.1891 19.6362L40.6324 19.3147ZM40.0757 18.9933L40.6324 18.6719L41.1891 18.9933L40.6324 19.3147L40.0757 18.9933ZM39.519 18.6719L40.0757 18.3505L40.6324 18.6719L40.0757 18.9933L39.519 18.6719ZM38.9622 18.9933L39.519 18.6719L40.0757 18.9933L39.519 19.3147L38.9622 18.9933ZM39.519 19.3147L40.0757 18.9933L40.6324 19.3147L40.0757 19.6362L39.519 19.3147ZM40.0757 19.6362L40.6324 19.3147L41.1891 19.6362L40.6324 19.9576L40.0757 19.6362ZM40.6324 19.9576L41.1891 19.6362L41.7459 19.9576L41.1891 20.279L40.6324 19.9576ZM41.1891 20.279L41.7459 19.9576L42.3026 20.279L41.7459 20.6005L41.1891 20.279ZM38.4055 18.6719L38.9622 18.3505L39.519 18.6719L38.9622 18.9933L38.4055 18.6719ZM38.9622 18.3505L39.519 18.029L40.0757 18.3505L39.519 18.6719L38.9622 18.3505ZM38.4055 18.029L38.9622 17.7076L39.519 18.029L38.9622 18.3505L38.4055 18.029ZM37.8488 17.7076L38.4055 17.3862L38.9622 17.7076L38.4055 18.029L37.8488 17.7076ZM37.292 17.3862L37.8488 17.0647L38.4055 17.3862L37.8488 17.7076L37.292 17.3862ZM36.7353 17.7076L37.292 17.3862L37.8488 17.7076L37.292 18.029L36.7353 17.7076ZM37.292 18.029L37.8488 17.7076L38.4055 18.029L37.8488 18.3505L37.292 18.029ZM37.8488 18.3505L38.4055 18.029L38.9622 18.3505L38.4055 18.6719L37.8488 18.3505Z" fill="white"/>
<path d="M39.5233 16.0979L40.08 15.7765L40.6368 16.0979L40.08 16.4194L39.5233 16.0979ZM38.9666 16.4194L39.5233 16.0979L40.08 16.4194L39.5233 16.7408L38.9666 16.4194ZM39.5233 16.7408L40.08 16.4194L40.6368 16.7408L40.08 17.0622L39.5233 16.7408ZM40.08 16.4194L40.6368 16.0979L41.1935 16.4194L40.6368 16.7408L40.08 16.4194ZM40.6368 16.0979L41.1935 15.7765L41.7502 16.0979L41.1935 16.4194L40.6368 16.0979ZM40.08 15.7765L40.6368 15.4551L41.1935 15.7765L40.6368 16.0979L40.08 15.7765ZM40.6368 15.4551L41.1935 15.1337L41.7502 15.4551L41.1935 15.7765L40.6368 15.4551ZM41.1935 15.1337L41.7502 14.8122L42.307 15.1337L41.7502 15.4551L41.1935 15.1337ZM41.7502 15.4551L42.307 15.1337L42.8637 15.4551L42.307 15.7765L41.7502 15.4551ZM41.1935 15.7765L41.7502 15.4551L42.307 15.7765L41.7502 16.0979L41.1935 15.7765ZM42.307 15.7765L42.8637 15.4551L43.4204 15.7765L42.8637 16.0979L42.307 15.7765ZM42.307 15.1337L42.8637 14.8122L43.4204 15.1337L42.8637 15.4551L42.307 15.1337ZM42.8637 15.4551L43.4204 15.1337L43.9771 15.4551L43.4204 15.7765L42.8637 15.4551ZM45.6473 17.0622L46.2041 16.7408L46.7608 17.0622L46.2041 17.3837L45.6473 17.0622ZM46.2041 17.3837L46.7608 17.0622L47.3175 17.3837L46.7608 17.7051L46.2041 17.3837ZM45.6473 17.7051L46.2041 17.3837L46.7608 17.7051L46.2041 18.0265L45.6473 17.7051ZM45.0906 17.3837L45.6473 17.0622L46.2041 17.3837L45.6473 17.7051L45.0906 17.3837ZM45.0906 18.0265L45.6473 17.7051L46.2041 18.0265L45.6473 18.3479L45.0906 18.0265ZM46.2041 18.0265L46.7608 17.7051L47.3175 18.0265L46.7608 18.3479L46.2041 18.0265ZM45.6473 18.3479L46.2041 18.0265L46.7608 18.3479L46.2041 18.6694L45.6473 18.3479ZM45.0906 18.6694L45.6473 18.3479L46.2041 18.6694L45.6473 18.9908L45.0906 18.6694ZM44.5339 18.3479L45.0906 18.0265L45.6473 18.3479L45.0906 18.6694L44.5339 18.3479ZM44.5339 18.9908L45.0906 18.6694L45.6473 18.9908L45.0906 19.3122L44.5339 18.9908ZM43.9771 19.3122L44.5339 18.9908L45.0906 19.3122L44.5339 19.6337L43.9771 19.3122ZM43.4204 18.9908L43.9771 18.6694L44.5339 18.9908L43.9771 19.3122L43.4204 18.9908ZM43.9771 18.6694L44.5339 18.3479L45.0906 18.6694L44.5339 18.9908L43.9771 18.6694ZM43.4204 18.3479L43.9771 18.0265L44.5339 18.3479L43.9771 18.6694L43.4204 18.3479ZM42.8637 18.6694L43.4204 18.3479L43.9771 18.6694L43.4204 18.9908L42.8637 18.6694ZM42.8637 19.3122L43.4204 18.9908L43.9771 19.3122L43.4204 19.6337L42.8637 19.3122ZM42.307 18.9908L42.8637 18.6694L43.4204 18.9908L42.8637 19.3122L42.307 18.9908ZM41.7502 18.6694L42.307 18.3479L42.8637 18.6694L42.307 18.9908L41.7502 18.6694ZM41.1935 18.3479L41.7502 18.0265L42.307 18.3479L41.7502 18.6694L41.1935 18.3479ZM40.6368 18.0265L41.1935 17.7051L41.7502 18.0265L41.1935 18.3479L40.6368 18.0265ZM40.08 17.7051L40.6368 17.3837L41.1935 17.7051L40.6368 18.0265L40.08 17.7051ZM39.5233 17.3837L40.08 17.0622L40.6368 17.3837L40.08 17.7051L39.5233 17.3837ZM40.08 17.0622L40.6368 16.7408L41.1935 17.0622L40.6368 17.3837L40.08 17.0622ZM38.9666 17.0622L39.5233 16.7408L40.08 17.0622L39.5233 17.3837L38.9666 17.0622ZM40.6368 16.7408L41.1935 16.4194L41.7502 16.7408L41.1935 17.0622L40.6368 16.7408ZM40.6368 17.3837L41.1935 17.0622L41.7502 17.3837L41.1935 17.7051L40.6368 17.3837ZM41.1935 17.7051L41.7502 17.3837L42.307 17.7051L41.7502 18.0265L41.1935 17.7051ZM41.7502 18.0265L42.307 17.7051L42.8637 18.0265L42.307 18.3479L41.7502 18.0265ZM42.307 18.3479L42.8637 18.0265L43.4204 18.3479L42.8637 18.6694L42.307 18.3479Z" fill="white"/>
<path d="M44.5353 13.8471L45.0921 13.5257L45.6488 13.8471L45.0921 14.1685L44.5353 13.8471ZM45.0921 13.5257L45.6488 13.2042L46.2055 13.5257L45.6488 13.8471L45.0921 13.5257ZM44.5353 13.2042L45.0921 12.8828L45.6488 13.2042L45.0921 13.5257L44.5353 13.2042ZM45.6488 13.2042L46.2055 12.8828L46.7622 13.2042L46.2055 13.5257L45.6488 13.2042ZM46.2055 13.5257L46.7622 13.2042L47.319 13.5257L46.7622 13.8471L46.2055 13.5257ZM46.7622 13.2042L47.319 12.8828L47.8757 13.2042L47.319 13.5257L46.7622 13.2042ZM45.6488 13.8471L46.2055 13.5257L46.7622 13.8471L46.2055 14.1685L45.6488 13.8471ZM45.0921 14.1685L45.6488 13.8471L46.2055 14.1685L45.6488 14.49L45.0921 14.1685ZM44.5353 14.49L45.0921 14.1685L45.6488 14.49L45.0921 14.8114L44.5353 14.49ZM45.0921 14.8114L45.6488 14.49L46.2055 14.8114L45.6488 15.1328L45.0921 14.8114ZM44.5353 15.1328L45.0921 14.8114L45.6488 15.1328L45.0921 15.4542L44.5353 15.1328ZM45.6488 14.49L46.2055 14.1685L46.7622 14.49L46.2055 14.8114L45.6488 14.49ZM45.6488 15.1328L46.2055 14.8114L46.7622 15.1328L46.2055 15.4542L45.6488 15.1328ZM46.2055 15.4542L46.7622 15.1328L47.319 15.4542L46.7622 15.7757L46.2055 15.4542ZM46.7622 15.7757L47.319 15.4542L47.8757 15.7757L47.319 16.0971L46.7622 15.7757ZM47.319 15.4542L47.8757 15.1328L48.4324 15.4542L47.8757 15.7757L47.319 15.4542ZM47.8757 15.1328L48.4324 14.8114L48.9892 15.1328L48.4324 15.4542L47.8757 15.1328ZM48.4324 14.8114L48.9892 14.49L49.5459 14.8114L48.9892 15.1328L48.4324 14.8114ZM48.9892 14.49L49.5459 14.1685L50.1026 14.49L49.5459 14.8114L48.9892 14.49ZM49.5459 14.1685L50.1026 13.8471L50.6594 14.1685L50.1026 14.49L49.5459 14.1685ZM48.9892 13.8471L49.5459 13.5257L50.1026 13.8471L49.5459 14.1685L48.9892 13.8471ZM48.4324 13.5257L48.9892 13.2042L49.5459 13.5257L48.9892 13.8471L48.4324 13.5257ZM47.8757 13.2042L48.4324 12.8828L48.9892 13.2042L48.4324 13.5257L47.8757 13.2042ZM47.319 13.5257L47.8757 13.2042L48.4324 13.5257L47.8757 13.8471L47.319 13.5257ZM46.7622 13.8471L47.319 13.5257L47.8757 13.8471L47.319 14.1685L46.7622 13.8471ZM47.8757 13.8471L48.4324 13.5257L48.9892 13.8471L48.4324 14.1685L47.8757 13.8471ZM48.4324 14.1685L48.9892 13.8471L49.5459 14.1685L48.9892 14.49L48.4324 14.1685ZM49.5459 14.8114L50.1026 14.49L50.6594 14.8114L50.1026 15.1328L49.5459 14.8114ZM50.1026 14.49L50.6594 14.1685L51.2161 14.49L50.6594 14.8114L50.1026 14.49ZM50.6594 14.8114L51.2161 14.49L51.7728 14.8114L51.2161 15.1328L50.6594 14.8114ZM51.2161 15.1328L51.7728 14.8114L52.3296 15.1328L51.7728 15.4542L51.2161 15.1328ZM50.6594 15.4542L51.2161 15.1328L51.7728 15.4542L51.2161 15.7757L50.6594 15.4542ZM50.1026 15.1328L50.6594 14.8114L51.2161 15.1328L50.6594 15.4542L50.1026 15.1328ZM48.9892 15.1328L49.5459 14.8114L50.1026 15.1328L49.5459 15.4542L48.9892 15.1328ZM48.4324 15.4542L48.9892 15.1328L49.5459 15.4542L48.9892 15.7757L48.4324 15.4542ZM47.8757 15.7757L48.4324 15.4542L48.9892 15.7757L48.4324 16.0971L47.8757 15.7757ZM47.319 16.0971L47.8757 15.7757L48.4324 16.0971L47.8757 16.4185L47.319 16.0971ZM47.8757 16.4185L48.4324 16.0971L48.9892 16.4185L48.4324 16.74L47.8757 16.4185ZM48.4324 16.74L48.9892 16.4185L49.5459 16.74L48.9892 17.0614L48.4324 16.74ZM47.8757 17.0614L48.4324 16.74L48.9892 17.0614L48.4324 17.3828L47.8757 17.0614ZM47.319 16.74L47.8757 16.4185L48.4324 16.74L47.8757 17.0614L47.319 16.74ZM46.7622 16.4185L47.319 16.0971L47.8757 16.4185L47.319 16.74L46.7622 16.4185ZM46.2055 16.0971L46.7622 15.7757L47.319 16.0971L46.7622 16.4185L46.2055 16.0971ZM45.6488 15.7757L46.2055 15.4542L46.7622 15.7757L46.2055 16.0971L45.6488 15.7757ZM45.0921 15.4542L45.6488 15.1328L46.2055 15.4542L45.6488 15.7757L45.0921 15.4542Z" fill="white"/>
<path d="M47.3204 11.5963L47.8772 11.2748L48.4339 11.5963L47.8772 11.9177L47.3204 11.5963ZM47.8772 11.2748L48.4339 10.9534L48.9906 11.2748L48.4339 11.5963L47.8772 11.2748ZM48.4339 10.9534L48.9906 10.632L49.5474 10.9534L48.9906 11.2748L48.4339 10.9534ZM48.9906 10.632L49.5474 10.3106L50.1041 10.632L49.5474 10.9534L48.9906 10.632ZM49.5474 10.3106L50.1041 9.98913L50.6608 10.3106L50.1041 10.632L49.5474 10.3106ZM50.1041 9.98913L50.6608 9.6677L51.2175 9.98913L50.6608 10.3106L50.1041 9.98913ZM50.6608 10.3106L51.2175 9.98913L51.7743 10.3106L51.2175 10.632L50.6608 10.3106ZM50.1041 10.632L50.6608 10.3106L51.2175 10.632L50.6608 10.9534L50.1041 10.632ZM49.5474 10.9534L50.1041 10.632L50.6608 10.9534L50.1041 11.2748L49.5474 10.9534ZM48.9906 11.2748L49.5474 10.9534L50.1041 11.2748L49.5474 11.5963L48.9906 11.2748ZM48.4339 11.5963L48.9906 11.2748L49.5474 11.5963L48.9906 11.9177L48.4339 11.5963ZM47.8772 11.9177L48.4339 11.5963L48.9906 11.9177L48.4339 12.2391L47.8772 11.9177ZM49.5474 11.5963L50.1041 11.2748L50.6608 11.5963L50.1041 11.9177L49.5474 11.5963ZM50.1041 11.9177L50.6608 11.5963L51.2175 11.9177L50.6608 12.2391L50.1041 11.9177ZM50.6608 12.2391L51.2175 11.9177L51.7743 12.2391L51.2175 12.5606L50.6608 12.2391ZM51.2175 12.5606L51.7743 12.2391L52.331 12.5606L51.7743 12.882L51.2175 12.5606ZM51.7743 12.882L52.331 12.5606L52.8877 12.882L52.331 13.2034L51.7743 12.882ZM52.331 13.2034L52.8877 12.882L53.4445 13.2034L52.8877 13.5248L52.331 13.2034ZM52.331 12.5606L52.8877 12.2391L53.4445 12.5606L52.8877 12.882L52.331 12.5606ZM51.7743 12.2391L52.331 11.9177L52.8877 12.2391L52.331 12.5606L51.7743 12.2391ZM51.2175 11.9177L51.7743 11.5963L52.331 11.9177L51.7743 12.2391L51.2175 11.9177ZM50.6608 11.5963L51.2175 11.2748L51.7743 11.5963L51.2175 11.9177L50.6608 11.5963ZM50.1041 11.2748L50.6608 10.9534L51.2175 11.2748L50.6608 11.5963L50.1041 11.2748ZM52.8877 12.882L53.4445 12.5606L54.0012 12.882L53.4445 13.2034L52.8877 12.882ZM53.4445 13.2034L54.0012 12.882L54.5579 13.2034L54.0012 13.5248L53.4445 13.2034ZM54.0012 13.5248L54.5579 13.2034L55.1147 13.5248L54.5579 13.8463L54.0012 13.5248ZM53.4445 13.8463L54.0012 13.5248L54.5579 13.8463L54.0012 14.1677L53.4445 13.8463ZM52.8877 13.5248L53.4445 13.2034L54.0012 13.5248L53.4445 13.8463L52.8877 13.5248Z" fill="white"/>
<path d="M56.2281 12.2391L56.7849 11.9177L57.3416 12.2391L56.7849 12.5606L56.2281 12.2391ZM56.7849 11.9177L57.3416 11.5963L57.8983 11.9177L57.3416 12.2391L56.7849 11.9177ZM56.2281 11.5963L56.7849 11.2748L57.3416 11.5963L56.7849 11.9177L56.2281 11.5963ZM55.6714 11.2748L56.2281 10.9534L56.7849 11.2748L56.2281 11.5963L55.6714 11.2748ZM55.1147 10.9534L55.6714 10.632L56.2281 10.9534L55.6714 11.2748L55.1147 10.9534ZM54.5579 10.632L55.1147 10.3106L55.6714 10.632L55.1147 10.9534L54.5579 10.632ZM54.0012 10.3106L54.5579 9.98913L55.1147 10.3106L54.5579 10.632L54.0012 10.3106ZM53.4445 10.632L54.0012 10.3106L54.5579 10.632L54.0012 10.9534L53.4445 10.632ZM54.0012 10.9534L54.5579 10.632L55.1147 10.9534L54.5579 11.2748L54.0012 10.9534ZM54.5579 11.2748L55.1147 10.9534L55.6714 11.2748L55.1147 11.5963L54.5579 11.2748ZM55.1147 11.5963L55.6714 11.2748L56.2281 11.5963L55.6714 11.9177L55.1147 11.5963ZM55.6714 11.9177L56.2281 11.5963L56.7849 11.9177L56.2281 12.2391L55.6714 11.9177ZM52.8877 10.3106L53.4445 9.98913L54.0012 10.3106L53.4445 10.632L52.8877 10.3106ZM53.4445 9.98913L54.0012 9.6677L54.5579 9.98913L54.0012 10.3106L53.4445 9.98913ZM52.8877 9.6677L53.4445 9.34627L54.0012 9.6677L53.4445 9.98913L52.8877 9.6677ZM52.331 9.34627L52.8877 9.02484L53.4445 9.34627L52.8877 9.6677L52.331 9.34627ZM51.7743 9.02484L52.331 8.70341L52.8877 9.02484L52.331 9.34627L51.7743 9.02484ZM51.2175 9.34627L51.7743 9.02484L52.331 9.34627L51.7743 9.6677L51.2175 9.34627ZM51.7743 9.6677L52.331 9.34627L52.8877 9.6677L52.331 9.98913L51.7743 9.6677ZM52.331 9.98913L52.8877 9.6677L53.4445 9.98913L52.8877 10.3106L52.331 9.98913Z" fill="white"/>
<path d="M54.0055 7.73662L54.5623 7.41519L55.119 7.73662L54.5623 8.05804L54.0055 7.73662ZM53.4488 8.05804L54.0055 7.73662L54.5623 8.05804L54.0055 8.37947L53.4488 8.05804ZM54.0055 8.37947L54.5623 8.05804L55.119 8.37947L54.5623 8.7009L54.0055 8.37947ZM54.5623 8.05804L55.119 7.73662L55.6757 8.05804L55.119 8.37947L54.5623 8.05804ZM55.119 7.73662L55.6757 7.41519L56.2325 7.73662L55.6757 8.05804L55.119 7.73662ZM54.5623 7.41519L55.119 7.09376L55.6757 7.41519L55.119 7.73662L54.5623 7.41519ZM55.119 7.09376L55.6757 6.77233L56.2325 7.09376L55.6757 7.41519L55.119 7.09376ZM55.6757 6.77233L56.2325 6.4509L56.7892 6.77233L56.2325 7.09376L55.6757 6.77233ZM56.2325 7.09376L56.7892 6.77233L57.3459 7.09376L56.7892 7.41519L56.2325 7.09376ZM55.6757 7.41519L56.2325 7.09376L56.7892 7.41519L56.2325 7.73662L55.6757 7.41519ZM56.2325 7.73662L56.7892 7.41519L57.3459 7.73662L56.7892 8.05804L56.2325 7.73662ZM56.7892 7.41519L57.3459 7.09376L57.9027 7.41519L57.3459 7.73662L56.7892 7.41519ZM56.7892 6.77233L57.3459 6.4509L57.9027 6.77233L57.3459 7.09376L56.7892 6.77233ZM57.3459 7.09376L57.9027 6.77233L58.4594 7.09376L57.9027 7.41519L57.3459 7.09376ZM57.9027 7.41519L58.4594 7.09376L59.0161 7.41519L58.4594 7.73662L57.9027 7.41519ZM58.4594 7.73662L59.0161 7.41519L59.5729 7.73662L59.0161 8.05804L58.4594 7.73662ZM59.0161 8.05804L59.5729 7.73662L60.1296 8.05804L59.5729 8.37947L59.0161 8.05804ZM59.5729 8.37947L60.1296 8.05804L60.6863 8.37947L60.1296 8.7009L59.5729 8.37947ZM60.1296 8.7009L60.6863 8.37947L61.243 8.7009L60.6863 9.02233L60.1296 8.7009ZM60.6863 9.02233L61.243 8.7009L61.7998 9.02233L61.243 9.34376L60.6863 9.02233ZM60.1296 9.34376L60.6863 9.02233L61.243 9.34376L60.6863 9.66519L60.1296 9.34376ZM59.5729 9.02233L60.1296 8.7009L60.6863 9.02233L60.1296 9.34376L59.5729 9.02233ZM59.0161 8.7009L59.5729 8.37947L60.1296 8.7009L59.5729 9.02233L59.0161 8.7009ZM58.4594 8.37947L59.0161 8.05804L59.5729 8.37947L59.0161 8.7009L58.4594 8.37947ZM57.9027 8.05804L58.4594 7.73662L59.0161 8.05804L58.4594 8.37947L57.9027 8.05804ZM57.3459 7.73662L57.9027 7.41519L58.4594 7.73662L57.9027 8.05804L57.3459 7.73662ZM59.0161 9.34376L59.5729 9.02233L60.1296 9.34376L59.5729 9.66519L59.0161 9.34376ZM59.5729 9.66519L60.1296 9.34376L60.6863 9.66519L60.1296 9.98662L59.5729 9.66519ZM60.6863 9.66519L61.243 9.34376L61.7998 9.66519L61.243 9.98662L60.6863 9.66519ZM60.1296 9.98662L60.6863 9.66519L61.243 9.98662L60.6863 10.308L60.1296 9.98662ZM59.5729 10.308L60.1296 9.98662L60.6863 10.308L60.1296 10.6295L59.5729 10.308ZM59.0161 9.98662L59.5729 9.66519L60.1296 9.98662L59.5729 10.308L59.0161 9.98662ZM59.0161 10.6295L59.5729 10.308L60.1296 10.6295L59.5729 10.9509L59.0161 10.6295ZM58.4594 10.9509L59.0161 10.6295L59.5729 10.9509L59.0161 11.2723L58.4594 10.9509ZM57.9027 10.6295L58.4594 10.308L59.0161 10.6295L58.4594 10.9509L57.9027 10.6295ZM58.4594 10.308L59.0161 9.98662L59.5729 10.308L59.0161 10.6295L58.4594 10.308ZM57.9027 9.98662L58.4594 9.66519L59.0161 9.98662L58.4594 10.308L57.9027 9.98662ZM57.3459 10.308L57.9027 9.98662L58.4594 10.308L57.9027 10.6295L57.3459 10.308ZM57.3459 10.9509L57.9027 10.6295L58.4594 10.9509L57.9027 11.2723L57.3459 10.9509ZM56.7892 10.6295L57.3459 10.308L57.9027 10.6295L57.3459 10.9509L56.7892 10.6295ZM56.2325 10.308L56.7892 9.98662L57.3459 10.308L56.7892 10.6295L56.2325 10.308ZM55.6757 9.98662L56.2325 9.66519L56.7892 9.98662L56.2325 10.308L55.6757 9.98662ZM55.119 9.66519L55.6757 9.34376L56.2325 9.66519L55.6757 9.98662L55.119 9.66519ZM54.5623 9.34376L55.119 9.02233L55.6757 9.34376L55.119 9.66519L54.5623 9.34376ZM54.0055 9.02233L54.5623 8.7009L55.119 9.02233L54.5623 9.34376L54.0055 9.02233ZM54.5623 8.7009L55.119 8.37947L55.6757 8.7009L55.119 9.02233L54.5623 8.7009ZM53.4488 8.7009L54.0055 8.37947L54.5623 8.7009L54.0055 9.02233L53.4488 8.7009ZM55.119 8.37947L55.6757 8.05804L56.2325 8.37947L55.6757 8.7009L55.119 8.37947ZM55.119 9.02233L55.6757 8.7009L56.2325 9.02233L55.6757 9.34376L55.119 9.02233ZM55.6757 9.34376L56.2325 9.02233L56.7892 9.34376L56.2325 9.66519L55.6757 9.34376ZM56.2325 9.66519L56.7892 9.34376L57.3459 9.66519L56.7892 9.98662L56.2325 9.66519ZM56.7892 9.98662L57.3459 9.66519L57.9027 9.98662L57.3459 10.308L56.7892 9.98662Z" fill="white"/>
<path d="M61.8012 6.45006L62.358 6.12864L62.9147 6.45006L62.358 6.77149L61.8012 6.45006ZM61.2445 6.12864L61.8012 5.80721L62.358 6.12864L61.8012 6.45006L61.2445 6.12864ZM61.8012 5.80721L62.358 5.48578L62.9147 5.80721L62.358 6.12864L61.8012 5.80721ZM62.358 6.12864L62.9147 5.80721L63.4714 6.12864L62.9147 6.45006L62.358 6.12864ZM62.9147 6.45006L63.4714 6.12864L64.0281 6.45006L63.4714 6.77149L62.9147 6.45006ZM62.358 6.77149L62.9147 6.45006L63.4714 6.77149L62.9147 7.09292L62.358 6.77149ZM60.131 5.48578L60.6878 5.16435L61.2445 5.48578L60.6878 5.80721L60.131 5.48578ZM60.6878 5.80721L61.2445 5.48578L61.8012 5.80721L61.2445 6.12864L60.6878 5.80721ZM60.6878 6.45006L61.2445 6.12864L61.8012 6.45006L61.2445 6.77149L60.6878 6.45006ZM60.131 6.12864L60.6878 5.80721L61.2445 6.12864L60.6878 6.45006L60.131 6.12864ZM59.5743 5.80721L60.131 5.48578L60.6878 5.80721L60.131 6.12864L59.5743 5.80721ZM57.3474 5.80721L57.9041 5.48578L58.4608 5.80721L57.9041 6.12864L57.3474 5.80721ZM57.9041 5.48578L58.4608 5.16435L59.0176 5.48578L58.4608 5.80721L57.9041 5.48578ZM58.4608 5.16435L59.0176 4.84292L59.5743 5.16435L59.0176 5.48578L58.4608 5.16435ZM59.0176 5.48578L59.5743 5.16435L60.131 5.48578L59.5743 5.80721L59.0176 5.48578ZM58.4608 5.80721L59.0176 5.48578L59.5743 5.80721L59.0176 6.12864L58.4608 5.80721ZM57.9041 6.12864L58.4608 5.80721L59.0176 6.12864L58.4608 6.45006L57.9041 6.12864ZM58.4608 6.45006L59.0176 6.12864L59.5743 6.45006L59.0176 6.77149L58.4608 6.45006ZM59.0176 6.12864L59.5743 5.80721L60.131 6.12864L59.5743 6.45006L59.0176 6.12864ZM59.5743 6.45006L60.131 6.12864L60.6878 6.45006L60.131 6.77149L59.5743 6.45006ZM60.131 6.77149L60.6878 6.45006L61.2445 6.77149L60.6878 7.09292L60.131 6.77149ZM59.5743 7.09292L60.131 6.77149L60.6878 7.09292L60.131 7.41435L59.5743 7.09292ZM59.0176 6.77149L59.5743 6.45006L60.131 6.77149L59.5743 7.09292L59.0176 6.77149ZM60.131 7.41435L60.6878 7.09292L61.2445 7.41435L60.6878 7.73578L60.131 7.41435ZM60.6878 7.09292L61.2445 6.77149L61.8012 7.09292L61.2445 7.41435L60.6878 7.09292ZM61.2445 7.41435L61.8012 7.09292L62.358 7.41435L61.8012 7.73578L61.2445 7.41435ZM61.8012 7.73578L62.358 7.41435L62.9147 7.73578L62.358 8.05721L61.8012 7.73578ZM62.358 8.05721L62.9147 7.73578L63.4714 8.05721L62.9147 8.37864L62.358 8.05721ZM62.9147 8.37864L63.4714 8.05721L64.0281 8.37864L63.4714 8.70006L62.9147 8.37864ZM62.358 8.70006L62.9147 8.37864L63.4714 8.70006L62.9147 9.02149L62.358 8.70006ZM61.8012 8.37864L62.358 8.05721L62.9147 8.37864L62.358 8.70006L61.8012 8.37864ZM61.2445 8.05721L61.8012 7.73578L62.358 8.05721L61.8012 8.37864L61.2445 8.05721ZM60.6878 7.73578L61.2445 7.41435L61.8012 7.73578L61.2445 8.05721L60.6878 7.73578ZM63.4714 6.77149L64.0281 6.45006L64.5849 6.77149L64.0281 7.09292L63.4714 6.77149ZM64.0281 7.09292L64.5849 6.77149L65.1416 7.09292L64.5849 7.41435L64.0281 7.09292ZM64.0281 6.45006L64.5849 6.12864L65.1416 6.45006L64.5849 6.77149L64.0281 6.45006ZM63.4714 6.12864L64.0281 5.80721L64.5849 6.12864L64.0281 6.45006L63.4714 6.12864ZM64.5849 6.77149L65.1416 6.45006L65.6983 6.77149L65.1416 7.09292L64.5849 6.77149ZM65.1416 7.09292L65.6983 6.77149L66.2551 7.09292L65.6983 7.41435L65.1416 7.09292ZM65.6983 6.77149L66.2551 6.45006L66.8118 6.77149L66.2551 7.09292L65.6983 6.77149ZM66.2551 6.45006L66.8118 6.12864L67.3685 6.45006L66.8118 6.77149L66.2551 6.45006ZM65.6983 6.12864L66.2551 5.80721L66.8118 6.12864L66.2551 6.45006L65.6983 6.12864ZM65.1416 5.80721L65.6983 5.48578L66.2551 5.80721L65.6983 6.12864L65.1416 5.80721ZM64.5849 6.12864L65.1416 5.80721L65.6983 6.12864L65.1416 6.45006L64.5849 6.12864ZM65.1416 6.45006L65.6983 6.12864L66.2551 6.45006L65.6983 6.77149L65.1416 6.45006ZM64.0281 5.80721L64.5849 5.48578L65.1416 5.80721L64.5849 6.12864L64.0281 5.80721ZM64.0281 5.16435L64.5849 4.84292L65.1416 5.16435L64.5849 5.48578L64.0281 5.16435ZM63.4714 4.84292L64.0281 4.52149L64.5849 4.84292L64.0281 5.16435L63.4714 4.84292ZM64.5849 5.48578L65.1416 5.16435L65.6983 5.48578L65.1416 5.80721L64.5849 5.48578ZM63.4714 5.48578L64.0281 5.16435L64.5849 5.48578L64.0281 5.80721L63.4714 5.48578ZM62.9147 5.16435L63.4714 4.84292L64.0281 5.16435L63.4714 5.48578L62.9147 5.16435ZM62.358 4.84292L62.9147 4.52149L63.4714 4.84292L62.9147 5.16435L62.358 4.84292ZM62.9147 4.52149L63.4714 4.20006L64.0281 4.52149L63.4714 4.84292L62.9147 4.52149ZM62.358 4.20006L62.9147 3.87864L63.4714 4.20006L62.9147 4.52149L62.358 4.20006ZM60.6878 3.87864L61.2445 3.55721L61.8012 3.87864L61.2445 4.20006L60.6878 3.87864ZM61.2445 3.55721L61.8012 3.23578L62.358 3.55721L61.8012 3.87864L61.2445 3.55721ZM61.8012 3.87864L62.358 3.55721L62.9147 3.87864L62.358 4.20006L61.8012 3.87864ZM61.2445 4.20006L61.8012 3.87864L62.358 4.20006L61.8012 4.52149L61.2445 4.20006ZM61.8012 4.52149L62.358 4.20006L62.9147 4.52149L62.358 4.84292L61.8012 4.52149Z" fill="white"/>
</g>
</g>
</svg>
