<svg width="120" height="100" viewBox="0 0 120 100" fill="none" xmlns="http://www.w3.org/2000/svg">
<g id="centralletters">
<g id="OnlineLttrs">
<g id="ONLINE">
<path d="M38.9528 62.024C39.6957 62.453 40.2007 62.918 40.4678 63.4192C40.6056 63.6728 40.6745 63.9264 40.6746 64.18C40.6747 64.418 40.6141 64.656 40.4928 64.8939C40.2508 65.3807 39.7625 65.8361 39.0279 66.2602C37.901 66.9108 36.6907 67.2289 35.3969 67.2144C34.103 67.2 32.8802 66.8602 31.7283 66.1951C30.5847 65.5349 30.0087 64.8361 30.0004 64.0987C29.9837 63.3566 30.5429 62.6578 31.6782 62.0024C32.8134 61.3469 34.0237 61.024 35.3092 61.0337C36.603 61.0385 37.8176 61.3686 38.9528 62.024ZM37.4252 62.906C36.6573 62.4626 35.8685 62.2192 35.0588 62.1759C34.2491 62.1325 33.5146 62.3012 32.8551 62.6819C32.255 63.0284 31.9548 63.408 31.9548 63.8207C31.9547 63.8672 31.9585 63.9141 31.9662 63.9614C32.0329 64.424 32.4545 64.8795 33.2308 65.3277C34.0154 65.7807 34.8209 66.0289 35.6473 66.0722C36.4737 66.1156 37.2082 65.9518 37.851 65.5807C38.5187 65.1951 38.8192 64.771 38.7525 64.3084C38.6773 63.8409 38.2349 63.3734 37.4252 62.906Z" fill="#D0D0D0"/>
<path d="M49.7995 59.9255L41.1727 58.5448C41.7653 58.8195 42.2286 59.0484 42.5625 59.2316L46.782 61.6677L45.4548 62.434L38.3054 58.3063L40.0082 57.3231L48.7227 58.6966C48.1551 58.4364 47.6585 58.1882 47.2328 57.952L43.0758 55.552L44.4031 54.7858L51.5525 58.9135L49.7995 59.9255Z" fill="#D0D0D0"/>
<path d="M54.7214 57.0839L47.572 52.9562L49.062 52.0959L55.0595 55.5586L58.8909 53.3465L60.0428 54.0116L54.7214 57.0839Z" fill="#D0D0D0"/>
<path d="M62.8209 52.4076L55.6715 48.2799L57.1615 47.4197L64.3109 51.5474L62.8209 52.4076Z" fill="#D0D0D0"/>
<path d="M71.8146 47.2151L63.1877 45.8344C63.7804 46.1091 64.2436 46.338 64.5775 46.5212L68.7971 48.9573L67.4698 49.7236L60.3204 45.5959L62.0233 44.6127L70.7378 45.9862C70.1702 45.726 69.6735 45.4778 69.2478 45.2416L65.0909 42.8416L66.4181 42.0754L73.5675 46.2031L71.8146 47.2151Z" fill="#D0D0D0"/>
<path d="M76.7365 44.3735L69.587 40.2458L75.2089 37L76.3608 37.6651L72.2289 40.0506L74.0319 41.0916L77.8508 38.8867L79.0027 39.5518L75.1839 41.7566L77.0745 42.8482L81.4067 40.347L82.5586 41.012L76.7365 44.3735Z" fill="#D0D0D0"/>
</g>
<g id="Vector">
<path d="M76.3608 29.6651L75.2089 29V37L76.3608 37.6651V29.6651Z" fill="#D0D0D0"/>
<path d="M75.2089 29L69.587 32.2458V40.2458L75.2089 37V29Z" fill="#D0D0D0"/>
<path d="M72.2289 32.0506L76.3608 29.6651V37.6651L72.2289 40.0506V32.0506Z" fill="#D0D0D0"/>
<path d="M79.0027 31.5518L77.8508 30.8867V38.8867L79.0027 39.5518V31.5518Z" fill="#D0D0D0"/>
<path d="M77.8508 30.8867L74.0319 33.0915V41.0915L77.8508 38.8867V30.8867Z" fill="#D0D0D0"/>
<path d="M74.0319 33.0915L72.2289 32.0506V40.0506L74.0319 41.0915V33.0915Z" fill="#D0D0D0"/>
<path d="M75.1839 33.7566L79.0027 31.5518V39.5518L75.1839 41.7566V33.7566Z" fill="#D0D0D0"/>
<path d="M82.5586 33.012L81.4067 32.347V40.347L82.5586 41.012V33.012Z" fill="#D0D0D0"/>
<path d="M81.4067 32.347L77.0745 34.8482V42.8482L81.4067 40.347V32.347Z" fill="#D0D0D0"/>
<path d="M77.0745 34.8482L75.1839 33.7566V41.7566L77.0745 42.8482V34.8482Z" fill="#D0D0D0"/>
<path d="M69.587 32.2458L76.7364 36.3735V44.3735L69.587 40.2458V32.2458Z" fill="#D0D0D0"/>
<path d="M66.4181 34.0754L65.0909 34.8416V42.8416L66.4181 42.0754V34.0754Z" fill="#D0D0D0"/>
<path d="M76.7364 36.3735L82.5586 33.012V41.012L76.7364 44.3735V36.3735Z" fill="#D0D0D0"/>
<path d="M65.0909 34.8416L69.2478 37.2416V45.2416L65.0909 42.8416V34.8416Z" fill="#D0D0D0"/>
<path d="M73.5675 38.2031L66.4181 34.0754V42.0754L73.5675 46.2031V38.2031Z" fill="#D0D0D0"/>
<path d="M62.0233 36.6127L60.3204 37.5959V45.5959L62.0233 44.6127V36.6127Z" fill="#D0D0D0"/>
<path d="M70.7378 37.9862L62.0233 36.6127V44.6127L70.7378 45.9862V37.9862Z" fill="#D0D0D0"/>
<path d="M69.2478 37.2416C69.6735 37.4778 70.1702 37.726 70.7378 37.9862V45.9862C70.1702 45.726 69.6735 45.4778 69.2478 45.2416V37.2416Z" fill="#D0D0D0"/>
<path d="M64.5775 38.5212C64.2436 38.338 63.7804 38.1091 63.1877 37.8344V45.8344C63.7804 46.1091 64.2436 46.338 64.5775 46.5212V38.5212Z" fill="#D0D0D0"/>
<path d="M63.1877 37.8344L71.8146 39.2151V47.2151L63.1877 45.8344V37.8344Z" fill="#D0D0D0"/>
<path d="M71.8146 39.2151L73.5675 38.2031V46.2031L71.8146 47.2151V39.2151Z" fill="#D0D0D0"/>
<path d="M60.3204 37.5959L67.4698 41.7236V49.7236L60.3204 45.5959V37.5959Z" fill="#D0D0D0"/>
<path d="M68.797 40.9573L64.5775 38.5212V46.5212L68.797 48.9573V40.9573Z" fill="#D0D0D0"/>
<path d="M57.1615 39.4197L55.6715 40.2799V48.2799L57.1615 47.4197V39.4197Z" fill="#D0D0D0"/>
<path d="M67.4698 41.7236L68.797 40.9573V48.9573L67.4698 49.7236V41.7236Z" fill="#D0D0D0"/>
<path d="M64.3109 43.5474L57.1615 39.4197V47.4197L64.3109 51.5474V43.5474Z" fill="#D0D0D0"/>
<path d="M55.6715 40.2799L62.8209 44.4076V52.4076L55.6715 48.2799V40.2799Z" fill="#D0D0D0"/>
<path d="M62.8209 44.4076L64.3109 43.5474V51.5474L62.8209 52.4076V44.4076Z" fill="#D0D0D0"/>
<path d="M49.062 44.0959L47.572 44.9562V52.9562L49.062 52.0959V44.0959Z" fill="#D0D0D0"/>
<path d="M60.0428 46.0116L58.8909 45.3466V53.3466L60.0428 54.0116V46.0116Z" fill="#D0D0D0"/>
<path d="M55.0595 47.5586L49.062 44.0959V52.0959L55.0595 55.5586V47.5586Z" fill="#D0D0D0"/>
<path d="M58.8909 45.3466L55.0595 47.5586V55.5586L58.8909 53.3466V45.3466Z" fill="#D0D0D0"/>
<path d="M47.572 44.9562L54.7214 49.0839V57.0839L47.572 52.9562V44.9562Z" fill="#D0D0D0"/>
<path d="M44.403 46.7858L43.0758 47.552V55.552L44.403 54.7858V46.7858Z" fill="#D0D0D0"/>
<path d="M54.7214 49.0839L60.0428 46.0116V54.0116L54.7214 57.0839V49.0839Z" fill="#D0D0D0"/>
<path d="M43.0758 47.552L47.2328 49.9521V57.9521L43.0758 55.552V47.552Z" fill="#D0D0D0"/>
<path d="M51.5525 50.9135L44.403 46.7858V54.7858L51.5525 58.9135V50.9135Z" fill="#D0D0D0"/>
<path d="M40.0082 49.3231L38.3054 50.3063V58.3063L40.0082 57.3231V49.3231Z" fill="#D0D0D0"/>
<path d="M48.7227 50.6966L40.0082 49.3231V57.3231L48.7227 58.6966V50.6966Z" fill="#D0D0D0"/>
<path d="M47.2328 49.9521C47.6585 50.1882 48.1551 50.4364 48.7227 50.6966V58.6966C48.1551 58.4364 47.6585 58.1882 47.2328 57.9521V49.9521Z" fill="#D0D0D0"/>
<path d="M42.5625 51.2315C42.2286 51.0484 41.7653 50.8195 41.1727 50.5448V58.5448C41.7653 58.8195 42.2286 59.0484 42.5625 59.2315V51.2315Z" fill="#D0D0D0"/>
<path d="M41.1727 50.5448L49.7995 51.9255V59.9255L41.1727 58.5448V50.5448Z" fill="#D0D0D0"/>
<path d="M49.7995 51.9255L51.5525 50.9135V58.9135L49.7995 59.9255V51.9255Z" fill="#D0D0D0"/>
<path d="M38.3054 50.3063L45.4548 54.434V62.434L38.3054 58.3063V50.3063Z" fill="#D0D0D0"/>
<path d="M46.782 53.6677L42.5625 51.2315V59.2315L46.782 61.6677V53.6677Z" fill="#D0D0D0"/>
<path d="M35.3092 53.0337C34.0237 53.024 32.8134 53.3469 31.6782 54.0023V62.0023C32.8134 61.3469 34.0237 61.024 35.3092 61.0337V53.0337Z" fill="#D0D0D0"/>
<path d="M38.9528 54.0241C37.8176 53.3686 36.603 53.0385 35.3092 53.0337V61.0337C36.603 61.0385 37.8176 61.3686 38.9528 62.0241V54.0241Z" fill="#D0D0D0"/>
<path d="M45.4548 54.434L46.782 53.6677V61.6677L45.4548 62.434V54.434Z" fill="#D0D0D0"/>
<path d="M32.8551 54.6819C33.5145 54.3011 34.2491 54.1325 35.0588 54.1758V62.1758C34.2491 62.1325 33.5145 62.3011 32.8551 62.6819V54.6819Z" fill="#D0D0D0"/>
<path d="M35.0588 54.1758C35.8685 54.2192 36.6573 54.4626 37.4252 54.906V62.906C36.6573 62.4626 35.8685 62.2192 35.0588 62.1758V54.1758Z" fill="#D0D0D0"/>
<path d="M40.4678 55.4192C40.2007 54.918 39.6957 54.453 38.9528 54.0241V62.0241C39.6957 62.453 40.2007 62.918 40.4678 63.4192V55.4192Z" fill="#D0D0D0"/>
<path d="M30.0004 56.0988C29.9837 55.3566 30.5429 54.6578 31.6782 54.0023V62.0023C30.5758 62.6388 30.0166 63.3161 30.0004 64.0343L30.0004 64.0988C29.9999 64.0773 29.9999 64.0558 30.0004 64.0343L30.0004 56.0988Z" fill="#D0D0D0"/>
<path d="M31.9547 55.8207C31.9548 55.408 32.2549 55.0284 32.8551 54.6819V62.6819C32.2549 63.0284 31.9548 63.408 31.9547 63.8207V55.8207Z" fill="#D0D0D0"/>
<path d="M37.4252 54.906C38.2349 55.3734 38.6773 55.8409 38.7524 56.3084V64.3084C38.6773 63.8409 38.2349 63.3734 37.4252 62.906V54.906Z" fill="#D0D0D0"/>
<path d="M40.6746 56.18C40.6745 55.9264 40.6056 55.6728 40.4678 55.4192V63.4192C40.6056 63.6728 40.6745 63.9264 40.6746 64.18V56.18Z" fill="#D0D0D0"/>
<path d="M31.9661 55.9614C31.9585 55.9142 31.9548 55.8671 31.9547 55.8207V63.8207C31.9547 63.8672 31.9585 63.9141 31.9661 63.9614V55.9614Z" fill="#D0D0D0"/>
<path d="M40.4928 56.8939C40.614 56.6562 40.6745 56.4178 40.6746 56.18V64.18C40.6747 64.418 40.6141 64.6559 40.4928 64.8939V56.8939Z" fill="#D0D0D0"/>
<path d="M33.2307 57.3276C32.4545 56.8794 32.0329 56.424 31.9661 55.9614V63.9614C32.0329 64.424 32.4545 64.8794 33.2307 65.3276V57.3276Z" fill="#D0D0D0"/>
<path d="M37.8509 57.5807C38.3973 57.2653 38.6978 56.924 38.7524 56.5569L38.7524 56.3084C38.7646 56.3925 38.7646 56.4754 38.7524 56.5569L38.7524 64.3084C38.8192 64.771 38.5187 65.1952 37.8509 65.5807V57.5807Z" fill="#D0D0D0"/>
<path d="M30.0004 56.0988C30.0087 56.8361 30.5847 57.5349 31.7282 58.1951V66.1951C30.5847 65.5349 30.0087 64.8361 30.0004 64.0988V56.0988Z" fill="#D0D0D0"/>
<path d="M39.0279 58.2602C39.7625 57.8361 40.2508 57.3807 40.4928 56.8939V64.8939C40.2508 65.3807 39.7625 65.8361 39.0279 66.2602V58.2602Z" fill="#D0D0D0"/>
<path d="M35.6473 58.0722C34.8209 58.0288 34.0154 57.7806 33.2307 57.3276V65.3276C34.0154 65.7806 34.8209 66.0288 35.6473 66.0722V58.0722Z" fill="#D0D0D0"/>
<path d="M37.8509 57.5807C37.2082 57.9518 36.4737 58.1156 35.6473 58.0722V66.0722C36.4737 66.1156 37.2082 65.9518 37.8509 65.5807V57.5807Z" fill="#D0D0D0"/>
<path d="M31.7282 58.1951C32.8802 58.8602 34.103 59.1999 35.3969 59.2144V67.2144C34.103 67.2 32.8802 66.8602 31.7282 66.1951V58.1951Z" fill="#D0D0D0"/>
<path d="M35.3969 59.2144C36.6907 59.2289 37.901 58.9108 39.0279 58.2602V66.2602C37.901 66.9108 36.6907 67.2289 35.3969 67.2144V59.2144Z" fill="#D0D0D0"/>
</g>
<g id="ONLINE_2">
<path d="M38.9528 54.024C39.6957 54.453 40.2007 54.918 40.4678 55.4192C40.7349 55.9108 40.7433 56.4024 40.4928 56.8939C40.2508 57.3807 39.7625 57.8361 39.0279 58.2602C37.901 58.9108 36.6907 59.2289 35.3968 59.2144C34.103 59.2 32.8802 58.8602 31.7282 58.1951C30.5847 57.5349 30.0087 56.8361 30.0004 56.0987C29.9837 55.3566 30.5429 54.6578 31.6782 54.0024C32.8134 53.3469 34.0237 53.024 35.3092 53.0337C36.603 53.0385 37.8175 53.3686 38.9528 54.024ZM37.4252 54.906C36.6573 54.4626 35.8685 54.2192 35.0588 54.1759C34.2491 54.1325 33.5145 54.3012 32.8551 54.6819C32.1873 55.0674 31.891 55.4939 31.9661 55.9614C32.0329 56.424 32.4544 56.8795 33.2307 57.3277C34.0154 57.7807 34.8209 58.0289 35.6473 58.0722C36.4736 58.1156 37.2082 57.9518 37.8509 57.5807C38.5187 57.1951 38.8192 56.771 38.7524 56.3084C38.6773 55.8409 38.2349 55.3734 37.4252 54.906Z" fill="white"/>
<path d="M49.7995 51.9255L41.1727 50.5448C41.7653 50.8195 42.2286 51.0484 42.5625 51.2316L46.782 53.6677L45.4548 54.434L38.3054 50.3063L40.0082 49.3231L48.7227 50.6966C48.1551 50.4364 47.6585 50.1882 47.2327 49.952L43.0758 47.552L44.403 46.7858L51.5524 50.9135L49.7995 51.9255Z" fill="white"/>
<path d="M54.7214 49.0839L47.572 44.9562L49.062 44.0959L55.0595 47.5586L58.8908 45.3465L60.0428 46.0116L54.7214 49.0839Z" fill="white"/>
<path d="M62.8209 44.4076L55.6715 40.2799L57.1615 39.4197L64.3109 43.5474L62.8209 44.4076Z" fill="white"/>
<path d="M71.8146 39.2151L63.1877 37.8344C63.7804 38.1091 64.2436 38.338 64.5775 38.5212L68.797 40.9573L67.4698 41.7236L60.3204 37.5959L62.0233 36.6127L70.7378 37.9862C70.1702 37.726 69.6735 37.4778 69.2478 37.2416L65.0909 34.8416L66.4181 34.0754L73.5675 38.2031L71.8146 39.2151Z" fill="white"/>
<path d="M76.7364 36.3735L69.587 32.2458L75.2089 29L76.3608 29.6651L72.2289 32.0506L74.0319 33.0916L77.8508 30.8867L79.0027 31.5518L75.1838 33.7566L77.0745 34.8482L81.4067 32.347L82.5586 33.012L76.7364 36.3735Z" fill="white"/>
</g>
</g>
<g id="BankingLttrs">
<g id="BANKING">
<path d="M49.2017 68.0087C49.6069 68.2426 49.8095 68.5064 49.8095 68.8C49.8095 68.8603 49.801 68.9218 49.7839 68.9846C49.6838 69.3461 49.3082 69.7147 48.6571 70.0907L45.9807 71.6358L40.6187 68.5401L43.0696 67.125C43.727 66.7455 44.3374 66.5268 44.9008 66.469C45.4643 66.4039 45.9651 66.4979 46.4033 66.7509C46.7101 66.928 46.8854 67.1268 46.9292 67.3473C46.9338 67.3738 46.9361 67.4005 46.9361 67.4274C46.9361 67.6205 46.818 67.8233 46.5817 68.0358C47.0638 67.8154 47.5302 67.7051 47.9809 67.7051C48.4317 67.6979 48.8386 67.7991 49.2017 68.0087ZM45.7237 67.8507C45.7237 67.7234 45.6278 67.6044 45.4361 67.4937C45.1919 67.3527 44.9415 67.2985 44.6848 67.331C44.4282 67.3635 44.1496 67.4666 43.8491 67.64L42.5719 68.3774L43.896 69.1419L45.1825 68.3991C45.5018 68.2147 45.6802 68.0503 45.7178 67.9057C45.7217 67.8872 45.7237 67.8689 45.7237 67.8507ZM48.3354 69.034C48.3355 68.8845 48.2204 68.7434 47.9903 68.6105C47.4895 68.3214 46.8791 68.3846 46.1592 68.8003L44.7318 69.6244L46.2625 70.5081L47.7274 69.6623C48.0905 69.4527 48.2908 69.2647 48.3284 69.0985C48.3331 69.0768 48.3354 69.0553 48.3354 69.034Z" fill="#D0D0D0"/>
<path d="M56.7151 65.4383L54.8746 64.9179L52.8274 66.0998L53.7195 67.1679L52.602 67.813L49.1932 63.5895L50.5173 62.8251L57.8326 64.7932L56.7151 65.4383ZM50.6769 63.6871L50.7427 63.7468C50.8115 63.8154 50.8867 63.895 50.968 63.9853C51.0494 64.0685 51.472 64.5618 52.2358 65.4654L53.7758 64.5763L51.7005 63.9962L51.0244 63.7901L50.6769 63.6871Z" fill="#D0D0D0"/>
<path d="M63.1392 61.7294L56.669 60.6938C57.1135 60.8999 57.461 61.0716 57.7114 61.2089L60.8761 63.036L59.8806 63.6107L54.5186 60.5149L55.7957 59.7776L62.3316 60.8077C61.9059 60.6125 61.5334 60.4264 61.2141 60.2493L58.0964 58.4493L59.0918 57.8746L64.4539 60.9704L63.1392 61.7294Z" fill="#D0D0D0"/>
<path d="M70.5399 57.4566L66.1545 57.1476L65.9948 57.8253L67.9481 58.953L66.8306 59.5982L61.4685 56.5024L62.586 55.8572L65.0182 57.2614C65.0182 57.2614 65.018 57.2294 65.0176 57.1723C65.0166 57.0193 65.0143 56.6862 65.0118 56.3042C65.0099 56.0189 65.0078 55.7063 65.0059 55.4211C65.0033 55.039 65.0011 54.7059 65 54.553C64.9996 54.4958 64.9994 54.4638 64.9994 54.4638L66.3141 53.7048C66.3141 53.7048 66.3139 53.7388 66.3134 53.799C66.3124 53.9438 66.3103 54.2404 66.3079 54.5816C66.3058 54.8651 66.3036 55.1794 66.3016 55.4629C66.2992 55.8041 66.297 56.1007 66.296 56.2455C66.2956 56.3058 66.2953 56.3397 66.2953 56.3397L71.864 56.6921L70.5399 57.4566Z" fill="#D0D0D0"/>
<path d="M73.7806 55.5856L68.4185 52.4898L69.536 51.8446L74.898 54.9404L73.7806 55.5856Z" fill="#D0D0D0"/>
<path d="M80.5258 51.6912L74.0557 50.6557C74.5002 50.8617 74.8476 51.0334 75.098 51.1707L78.2627 52.9979L77.2673 53.5726L71.9052 50.4768L73.1823 49.7394L79.7182 50.7695C79.2925 50.5744 78.92 50.3882 78.6007 50.2111L75.483 48.4111L76.4784 47.8364L81.8405 50.9322L80.5258 51.6912Z" fill="#D0D0D0"/>
<path d="M85.9545 47.6245C86.2487 47.4546 86.4897 47.2684 86.6776 47.066C86.8654 46.8564 86.9687 46.6702 86.9874 46.5076L86.2456 46.0793L84.9309 46.8383L84.1045 46.3612L86.4428 45.0112L88.4148 46.1498C88.4273 46.4823 88.2865 46.8275 87.9922 47.1853C87.698 47.5431 87.3005 47.8666 86.7996 48.1558C85.9294 48.6582 85.0185 48.9058 84.067 48.8985C83.1154 48.8913 82.1951 48.6311 81.3061 48.1178C80.4234 47.6082 79.982 47.0823 79.982 46.5401C79.982 45.9907 80.4234 45.4612 81.3061 44.9516C82.5645 44.2251 83.8322 44.0317 85.1093 44.3714L84.3862 45.1467C84.0044 45.0564 83.6256 45.0401 83.25 45.0979C82.8681 45.1522 82.5144 45.2732 82.1888 45.4612C81.663 45.7648 81.4251 46.0901 81.4751 46.4371C81.519 46.7805 81.8383 47.1238 82.433 47.4672C83.0403 47.8178 83.6506 48.0076 84.2642 48.0365C84.8777 48.0582 85.4411 47.9208 85.9545 47.6245Z" fill="#D0D0D0"/>
</g>
<g id="Vector_2">
<path d="M85.1093 39.3714C83.8322 39.0317 82.5645 39.2251 81.3061 39.9516V44.9516C82.5645 44.2251 83.8322 44.0317 85.1093 44.3714V39.3714Z" fill="#D0D0D0"/>
<path d="M84.3862 40.1468L85.1093 39.3714V44.3714L84.3862 45.1468V40.1468Z" fill="#D0D0D0"/>
<path d="M83.25 40.0979C83.6256 40.0401 84.0044 40.0564 84.3862 40.1468V45.1468C84.0044 45.0564 83.6256 45.0401 83.25 45.0979V40.0979Z" fill="#D0D0D0"/>
<path d="M82.1888 40.4612C82.5144 40.2733 82.8681 40.1522 83.25 40.0979V45.0979C82.8681 45.1522 82.5144 45.2733 82.1888 45.4612V40.4612Z" fill="#D0D0D0"/>
<path d="M88.4148 41.1498L86.4428 40.0112V45.0112L88.4148 46.1498V41.1498Z" fill="#D0D0D0"/>
<path d="M86.4428 40.0112L84.1045 41.3612V46.3612L86.4428 45.0112V40.0112Z" fill="#D0D0D0"/>
<path d="M81.3061 39.9516C80.4234 40.4612 79.982 40.9908 79.982 41.5402V46.5402C79.982 45.9908 80.4234 45.4612 81.3061 44.9516V39.9516Z" fill="#D0D0D0"/>
<path d="M81.4751 41.4371C81.4251 41.0902 81.663 40.7648 82.1888 40.4612V45.4612C81.7544 45.712 81.5165 45.9777 81.4751 46.2581V46.4371C81.4664 46.3768 81.4664 46.3171 81.4751 46.2581V41.4371Z" fill="#D0D0D0"/>
<path d="M86.2456 41.0793L86.9874 41.5076V46.5076L86.2456 46.0793V41.0793Z" fill="#D0D0D0"/>
<path d="M84.9309 41.8383L86.2456 41.0793V46.0793L84.9309 46.8383V41.8383Z" fill="#D0D0D0"/>
<path d="M84.1045 41.3612L84.9309 41.8383V46.8383L84.1045 46.3612V41.3612Z" fill="#D0D0D0"/>
<path d="M88.4148 41.1498C88.4158 41.1769 88.4158 41.2042 88.4148 41.2315V46.1498C88.4273 46.4823 88.2865 46.8275 87.9922 47.1853V42.1853C88.2625 41.8567 88.4033 41.5388 88.4148 41.2315V41.1498Z" fill="#D0D0D0"/>
<path d="M86.9874 41.5076C86.9687 41.6702 86.8654 41.8564 86.6776 42.0661V47.0661C86.8654 46.8564 86.9687 46.6702 86.9874 46.5076V41.5076Z" fill="#D0D0D0"/>
<path d="M82.433 42.4673C81.8382 42.1239 81.519 41.7805 81.4751 41.4371V46.4371C81.519 46.7805 81.8382 47.1239 82.433 47.4673V42.4673Z" fill="#D0D0D0"/>
<path d="M79.982 41.5402C79.982 42.0823 80.4234 42.6082 81.3061 43.1179V48.1179C80.4234 47.6082 79.982 47.0823 79.982 46.5402V41.5402Z" fill="#D0D0D0"/>
<path d="M86.6776 42.0661C86.4898 42.2685 86.2487 42.4546 85.9545 42.6245V47.6245C86.2487 47.4546 86.4898 47.2685 86.6776 47.0661V42.0661Z" fill="#D0D0D0"/>
<path d="M86.7996 43.1558C87.3005 42.8666 87.698 42.5432 87.9922 42.1853V47.1853C87.698 47.5432 87.3005 47.8666 86.7996 48.1558V43.1558Z" fill="#D0D0D0"/>
<path d="M84.2642 43.0365C83.6507 43.0076 83.0402 42.8179 82.433 42.4673V47.4673C83.0402 47.8179 83.6507 48.0076 84.2642 48.0365V43.0365Z" fill="#D0D0D0"/>
<path d="M85.9545 42.6245C85.4411 42.9209 84.8777 43.0582 84.2642 43.0365V48.0365C84.8777 48.0582 85.4411 47.9209 85.9545 47.6245V42.6245Z" fill="#D0D0D0"/>
<path d="M76.4785 42.8364L75.483 43.4111V48.4111L76.4785 47.8364V42.8364Z" fill="#D0D0D0"/>
<path d="M81.3061 43.1179C82.1951 43.6311 83.1154 43.8914 84.067 43.8986V48.8986C83.1154 48.8914 82.1951 48.6311 81.3061 48.1179V43.1179Z" fill="#D0D0D0"/>
<path d="M84.067 43.8986C85.0186 43.9058 85.9294 43.6582 86.7996 43.1558V48.1558C85.9294 48.6582 85.0186 48.9058 84.067 48.8986V43.8986Z" fill="#D0D0D0"/>
<path d="M75.483 43.4111L78.6007 45.2111V50.2111L75.483 48.4111V43.4111Z" fill="#D0D0D0"/>
<path d="M81.8405 45.9322L76.4785 42.8364V47.8364L81.8405 50.9322V45.9322Z" fill="#D0D0D0"/>
<path d="M73.1823 44.7394L71.9052 45.4768V50.4768L73.1823 49.7394V44.7394Z" fill="#D0D0D0"/>
<path d="M79.7182 45.7696L73.1823 44.7394V49.7394L79.7182 50.7696V45.7696Z" fill="#D0D0D0"/>
<path d="M78.6007 45.2111C78.92 45.3882 79.2925 45.5744 79.7182 45.7696V50.7696C79.2925 50.5744 78.92 50.3882 78.6007 50.2111V45.2111Z" fill="#D0D0D0"/>
<path d="M75.098 46.1708C74.8476 46.0334 74.5002 45.8617 74.0557 45.6557V50.6557C74.5002 50.8617 74.8476 51.0334 75.098 51.1708V46.1708Z" fill="#D0D0D0"/>
<path d="M74.0557 45.6557L80.5258 46.6912V51.6912L74.0557 50.6557V45.6557Z" fill="#D0D0D0"/>
<path d="M80.5258 46.6912L81.8405 45.9322V50.9322L80.5258 51.6912V46.6912Z" fill="#D0D0D0"/>
<path d="M71.9052 45.4768L77.2673 48.5726V53.5726L71.9052 50.4768V45.4768Z" fill="#D0D0D0"/>
<path d="M78.2627 47.9979L75.098 46.1708V51.1708L78.2627 52.9979V47.9979Z" fill="#D0D0D0"/>
<path d="M69.536 46.8447L68.4185 47.4898V52.4898L69.536 51.8447V46.8447Z" fill="#D0D0D0"/>
<path d="M77.2673 48.5726L78.2627 47.9979V52.9979L77.2673 53.5726V48.5726Z" fill="#D0D0D0"/>
<path d="M74.898 49.9404L69.536 46.8447V51.8447L74.898 54.9404V49.9404Z" fill="#D0D0D0"/>
<path d="M66.3134 48.799L66.3141 48.7048V53.7048L66.3134 53.799V48.799Z" fill="#D0D0D0"/>
<path d="M68.4185 47.4898L73.7806 50.5856V55.5856L68.4185 52.4898V47.4898Z" fill="#D0D0D0"/>
<path d="M66.3141 48.7048L64.9994 49.4639V54.4639L66.3141 53.7048V48.7048Z" fill="#D0D0D0"/>
<path d="M66.3079 49.5816L66.3134 48.799V53.799L66.3079 54.5816V49.5816Z" fill="#D0D0D0"/>
<path d="M64.9994 49.4639L65 49.553V54.553L64.9994 54.4639V49.4639Z" fill="#D0D0D0"/>
<path d="M65 49.553L65.0059 50.4211V55.4211L65 54.553V49.553Z" fill="#D0D0D0"/>
<path d="M66.3016 50.463L66.3079 49.5816V54.5816L66.3016 55.463V50.463Z" fill="#D0D0D0"/>
<path d="M73.7806 50.5856L74.898 49.9404V54.9404L73.7806 55.5856V50.5856Z" fill="#D0D0D0"/>
<path d="M66.296 51.2455L66.3016 50.463V55.463L66.296 56.2456V51.2455Z" fill="#D0D0D0"/>
<path d="M65.0059 50.4211L65.0118 51.3042V56.3042L65.0059 55.4211V50.4211Z" fill="#D0D0D0"/>
<path d="M62.586 50.8572L61.4686 51.5024V56.5024L62.586 55.8572V50.8572Z" fill="#D0D0D0"/>
<path d="M66.2953 51.3397L66.296 51.2455V56.2456L66.2953 56.3397V51.3397Z" fill="#D0D0D0"/>
<path d="M71.864 51.6921L66.2953 51.3397V56.3397L71.864 56.6921V51.6921Z" fill="#D0D0D0"/>
<path d="M65.0182 52.2615L62.586 50.8572V55.8572L65.0182 57.2615V52.2615Z" fill="#D0D0D0"/>
<path d="M65.0118 51.3042L65.0176 52.1723V57.1723L65.0118 56.3042V51.3042Z" fill="#D0D0D0"/>
<path d="M70.5399 52.4566L71.864 51.6921V56.6921L70.5399 57.4566V52.4566Z" fill="#D0D0D0"/>
<path d="M65.0176 52.1723L65.0182 52.2615V57.2615L65.0176 57.1723V52.1723Z" fill="#D0D0D0"/>
<path d="M66.1545 52.1476L70.5399 52.4566V57.4566L66.1545 57.1476V52.1476Z" fill="#D0D0D0"/>
<path d="M65.9948 52.8253L66.1545 52.1476V57.1476L65.9948 57.8253V52.8253Z" fill="#D0D0D0"/>
<path d="M61.4686 51.5024L66.8306 54.5982V59.5982L61.4686 56.5024V51.5024Z" fill="#D0D0D0"/>
<path d="M59.0918 52.8746L58.0964 53.4493V58.4493L59.0918 57.8746V52.8746Z" fill="#D0D0D0"/>
<path d="M67.9481 53.953L65.9948 52.8253V57.8253L67.9481 58.953V53.953Z" fill="#D0D0D0"/>
<path d="M66.8306 54.5982L67.9481 53.953V58.953L66.8306 59.5982V54.5982Z" fill="#D0D0D0"/>
<path d="M58.0964 53.4493L61.2141 55.2493V60.2493L58.0964 58.4493V53.4493Z" fill="#D0D0D0"/>
<path d="M64.4539 55.9704L59.0918 52.8746V57.8746L64.4539 60.9704V55.9704Z" fill="#D0D0D0"/>
<path d="M55.7957 54.7776L54.5186 55.5149V60.5149L55.7957 59.7776V54.7776Z" fill="#D0D0D0"/>
<path d="M62.3316 55.8077L55.7957 54.7776V59.7776L62.3316 60.8077V55.8077Z" fill="#D0D0D0"/>
<path d="M61.2141 55.2493C61.5334 55.4264 61.9059 55.6125 62.3316 55.8077V60.8077C61.9059 60.6125 61.5334 60.4264 61.2141 60.2493V55.2493Z" fill="#D0D0D0"/>
<path d="M57.7114 56.2089C57.461 56.0716 57.1135 55.8999 56.6691 55.6938V60.6938C57.1135 60.8999 57.461 61.0716 57.7114 61.2089V56.2089Z" fill="#D0D0D0"/>
<path d="M56.6691 55.6938L63.1392 56.7294V61.7294L56.6691 60.6938V55.6938Z" fill="#D0D0D0"/>
<path d="M63.1392 56.7294L64.4539 55.9704V60.9704L63.1392 61.7294V56.7294Z" fill="#D0D0D0"/>
<path d="M54.5186 55.5149L59.8807 58.6107V63.6107L54.5186 60.5149V55.5149Z" fill="#D0D0D0"/>
<path d="M60.8761 58.036L57.7114 56.2089V61.2089L60.8761 63.036V58.036Z" fill="#D0D0D0"/>
<path d="M50.5173 57.8251L49.1932 58.5896V63.5896L50.5173 62.8251V57.8251Z" fill="#D0D0D0"/>
<path d="M59.8807 58.6107L60.8761 58.036V63.036L59.8807 63.6107V58.6107Z" fill="#D0D0D0"/>
<path d="M50.7427 58.7468L50.6769 58.6871V63.6871L50.7427 63.7468V58.7468Z" fill="#D0D0D0"/>
<path d="M50.6769 58.6871L51.0244 58.7901V63.7901L50.6769 63.6871V58.6871Z" fill="#D0D0D0"/>
<path d="M57.8326 59.7932L50.5173 57.8251V62.8251L57.8326 64.7932V59.7932Z" fill="#D0D0D0"/>
<path d="M50.9681 58.9853C50.8867 58.895 50.8115 58.8154 50.7427 58.7468V63.7468C50.8115 63.8154 50.8867 63.895 50.9681 63.9853V58.9853Z" fill="#D0D0D0"/>
<path d="M51.0244 58.7901L51.7005 58.9962V63.9962L51.0244 63.7901V58.7901Z" fill="#D0D0D0"/>
<path d="M51.7005 58.9962L53.7758 59.5763V64.5763L51.7005 63.9962V58.9962Z" fill="#D0D0D0"/>
<path d="M52.2358 60.4655C51.472 59.5619 51.0494 59.0685 50.9681 58.9853V63.9853C51.0494 64.0685 51.472 64.5619 52.2358 65.4655V60.4655Z" fill="#D0D0D0"/>
<path d="M53.7758 59.5763L52.2358 60.4655V65.4655L53.7758 64.5763V59.5763Z" fill="#D0D0D0"/>
<path d="M56.7151 60.4383L57.8326 59.7932V64.7932L56.7151 65.4383V60.4383Z" fill="#D0D0D0"/>
<path d="M54.8746 59.9179L56.7151 60.4383V65.4383L54.8746 64.9179V59.9179Z" fill="#D0D0D0"/>
<path d="M52.8274 61.0998L54.8746 59.9179V64.9179L52.8274 66.0998V61.0998Z" fill="#D0D0D0"/>
<path d="M49.1932 58.5896L52.602 62.813V67.813L49.1932 63.5896V58.5896Z" fill="#D0D0D0"/>
<path d="M46.4033 61.7509C45.9651 61.4979 45.4643 61.4039 44.9008 61.469V66.469C45.4643 66.4039 45.9651 66.4979 46.4033 66.7509V61.7509Z" fill="#D0D0D0"/>
<path d="M53.7195 62.1679L52.8274 61.0998V66.0998L53.7195 67.1679V62.1679Z" fill="#D0D0D0"/>
<path d="M44.9008 61.469C44.3374 61.5268 43.727 61.7455 43.0696 62.125V67.125C43.727 66.7455 44.3374 66.5268 44.9008 66.469V61.469Z" fill="#D0D0D0"/>
<path d="M46.9292 62.3473C46.8854 62.1268 46.7101 61.928 46.4033 61.7509V66.7509C46.7101 66.928 46.8854 67.1268 46.9292 67.3473V62.3473Z" fill="#D0D0D0"/>
<path d="M46.9361 62.4274C46.9361 62.4005 46.9338 62.3738 46.9292 62.3473V67.3473C46.9338 67.3738 46.9361 67.4005 46.9361 67.4274V62.4274Z" fill="#D0D0D0"/>
<path d="M44.6848 62.331C44.9415 62.2985 45.1919 62.3527 45.4361 62.4937V67.4937C45.1919 67.3527 44.9415 67.2985 44.6848 67.331V62.331Z" fill="#D0D0D0"/>
<path d="M43.8491 62.6401C44.1496 62.4666 44.4282 62.3636 44.6848 62.331V67.331C44.4282 67.3636 44.1496 67.4666 43.8491 67.6401V62.6401Z" fill="#D0D0D0"/>
<path d="M52.602 62.813L53.7195 62.1679V67.1679L52.602 67.813V62.813Z" fill="#D0D0D0"/>
<path d="M45.4361 62.4937C45.6278 62.6044 45.7237 62.7234 45.7237 62.8507V67.8507C45.7236 67.7234 45.6278 67.6044 45.4361 67.4937V62.4937Z" fill="#D0D0D0"/>
<path d="M46.5817 63.0358C46.8179 62.8234 46.9361 62.6204 46.9361 62.4274V67.4274C46.9361 67.6205 46.818 67.8233 46.5817 68.0358V63.0358Z" fill="#D0D0D0"/>
<path d="M43.0696 62.125L40.6187 63.5401V68.5401L43.0696 67.125V62.125Z" fill="#D0D0D0"/>
<path d="M49.2017 63.0087C48.8386 62.7991 48.4317 62.6979 47.9809 62.7051V67.7051C48.4317 67.6979 48.8386 67.7991 49.2017 68.0087V63.0087Z" fill="#D0D0D0"/>
<path d="M47.9809 62.7051C47.5302 62.7051 47.0638 62.8154 46.5817 63.0358V68.0358C47.0638 67.8154 47.5302 67.7051 47.9809 67.7051V62.7051Z" fill="#D0D0D0"/>
<path d="M45.7237 62.8507C45.7237 62.8689 45.7217 62.8872 45.7178 62.9057V67.9057C45.7217 67.8872 45.7237 67.8688 45.7237 67.8507V62.8507Z" fill="#D0D0D0"/>
<path d="M42.5719 63.3774L43.8491 62.6401V67.6401L42.5719 68.3774V63.3774Z" fill="#D0D0D0"/>
<path d="M45.7178 62.9057C45.6802 63.0503 45.5018 63.2147 45.1825 63.3991V68.3991C45.5018 68.2147 45.6802 68.0503 45.7178 67.9057V62.9057Z" fill="#D0D0D0"/>
<path d="M49.8095 63.8C49.8095 63.5064 49.6069 63.2427 49.2017 63.0087V68.0087C49.6069 68.2427 49.8095 68.5064 49.8095 68.8V63.8Z" fill="#D0D0D0"/>
<path d="M46.1592 63.8003C46.8791 63.3847 47.4895 63.3214 47.9903 63.6106V68.6106C47.4895 68.3214 46.8791 68.3847 46.1592 68.8003V63.8003Z" fill="#D0D0D0"/>
<path d="M43.896 64.1419L42.5719 63.3774V68.3774L43.896 69.1419V64.1419Z" fill="#D0D0D0"/>
<path d="M45.1825 63.3991L43.896 64.1419V69.1419L45.1825 68.3991V63.3991Z" fill="#D0D0D0"/>
<path d="M47.9903 63.6106C48.2204 63.7434 48.3355 63.8845 48.3354 64.034V69.0339C48.3354 68.8845 48.2204 68.7434 47.9903 68.6106V63.6106Z" fill="#D0D0D0"/>
<path d="M49.784 63.9846C49.801 63.9219 49.8095 63.8602 49.8095 63.8V68.8C49.8095 68.8603 49.801 68.9218 49.784 68.9846V63.9846Z" fill="#D0D0D0"/>
<path d="M48.3354 64.034C48.3354 64.0553 48.3331 64.0768 48.3284 64.0985V69.0985C48.3331 69.0768 48.3354 69.0552 48.3354 69.0339V64.034Z" fill="#D0D0D0"/>
<path d="M44.7318 64.6244L46.1592 63.8003V68.8003L44.7318 69.6244V64.6244Z" fill="#D0D0D0"/>
<path d="M48.3284 64.0985C48.2908 64.2648 48.0905 64.4527 47.7274 64.6624V69.6624C48.0905 69.4527 48.2908 69.2648 48.3284 69.0985V64.0985Z" fill="#D0D0D0"/>
<path d="M48.6571 65.0907C49.3082 64.7148 49.6838 64.3461 49.784 63.9846V68.9846C49.6838 69.3461 49.3082 69.7148 48.6571 70.0907V65.0907Z" fill="#D0D0D0"/>
<path d="M46.2625 65.5081L44.7318 64.6244V69.6244L46.2625 70.5081V65.5081Z" fill="#D0D0D0"/>
<path d="M47.7274 64.6624L46.2625 65.5081V70.5081L47.7274 69.6624V64.6624Z" fill="#D0D0D0"/>
<path d="M40.6187 63.5401L45.9807 66.6359V71.6359L40.6187 68.5401V63.5401Z" fill="#D0D0D0"/>
<path d="M45.9807 66.6359L48.6571 65.0907V70.0907L45.9807 71.6359V66.6359Z" fill="#D0D0D0"/>
</g>
<path id="BANKING_2" d="M49.2017 63.0087C49.69 63.2907 49.8841 63.616 49.7839 63.9847C49.6838 64.3461 49.3082 64.7148 48.6571 65.0907L45.9807 66.6359L40.6187 63.5401L43.0696 62.125C43.727 61.7455 44.3374 61.5268 44.9008 61.469C45.4643 61.4039 45.9651 61.4979 46.4033 61.7509C46.7101 61.928 46.8854 62.1268 46.9292 62.3473C46.9668 62.5642 46.8509 62.7937 46.5817 63.0359C47.0638 62.8154 47.5302 62.7051 47.9809 62.7051C48.4317 62.6979 48.8386 62.7991 49.2017 63.0087ZM45.4361 62.4937C45.1919 62.3527 44.9415 62.2985 44.6848 62.331C44.4282 62.3636 44.1496 62.4666 43.8491 62.6401L42.5719 63.3774L43.896 64.1419L45.1825 63.3991C45.5018 63.2148 45.6802 63.0503 45.7178 62.9057C45.7491 62.7575 45.6552 62.6202 45.4361 62.4937ZM47.9903 63.6106C47.4895 63.3214 46.8791 63.3847 46.1592 63.8003L44.7318 64.6244L46.2625 65.5081L47.7274 64.6624C48.0905 64.4527 48.2908 64.2648 48.3284 64.0985C48.366 63.925 48.2533 63.7624 47.9903 63.6106ZM56.7151 60.4384L54.8746 59.9179L52.8274 61.0998L53.7195 62.1679L52.602 62.8131L49.1932 58.5896L50.5173 57.8251L57.8326 59.7932L56.7151 60.4384ZM50.6769 58.6872L50.7427 58.7468C50.8115 58.8155 50.8867 58.895 50.9681 58.9853C51.0494 59.0685 51.472 59.5619 52.2358 60.4655L53.7759 59.5763L51.7005 58.9962L51.0244 58.7902L50.6769 58.6872ZM63.1392 56.7294L56.6691 55.6939C57.1135 55.8999 57.461 56.0716 57.7114 56.2089L60.8761 58.036L59.8807 58.6107L54.5186 55.515L55.7957 54.7776L62.3316 55.8077C61.9059 55.6125 61.5334 55.4264 61.2141 55.2493L58.0964 53.4493L59.0918 52.8746L64.4539 55.9704L63.1392 56.7294ZM70.5399 52.4566L66.1545 52.1476L65.9948 52.8253L67.9481 53.953L66.8306 54.5982L61.4686 51.5024L62.586 50.8572L65.0182 52.2614L64.9994 49.4638L66.3141 48.7048L66.2953 51.3397L71.864 51.6922L70.5399 52.4566ZM73.7806 50.5856L68.4185 47.4898L69.536 46.8447L74.898 49.9404L73.7806 50.5856ZM80.5258 46.6912L74.0557 45.6557C74.5002 45.8617 74.8476 46.0334 75.098 46.1708L78.2627 47.9979L77.2673 48.5726L71.9052 45.4768L73.1823 44.7394L79.7182 45.7696C79.2925 45.5744 78.92 45.3882 78.6007 45.2111L75.483 43.4111L76.4785 42.8364L81.8405 45.9322L80.5258 46.6912ZM85.9545 42.6245C86.2487 42.4546 86.4898 42.2684 86.6776 42.066C86.8654 41.8564 86.9687 41.6703 86.9875 41.5076L86.2456 41.0793L84.9309 41.8383L84.1045 41.3612L86.4428 40.0112L88.4148 41.1498C88.4274 41.4823 88.2865 41.8275 87.9923 42.1853C87.698 42.5431 87.3005 42.8666 86.7996 43.1558C85.9294 43.6582 85.0186 43.9058 84.067 43.8986C83.1154 43.8913 82.1951 43.6311 81.3061 43.1178C80.4234 42.6082 79.982 42.0823 79.982 41.5401C79.982 40.9907 80.4234 40.4612 81.3061 39.9516C82.5645 39.2251 83.8322 39.0317 85.1093 39.3715L84.3862 40.1468C84.0044 40.0564 83.6256 40.0401 83.25 40.098C82.8681 40.1522 82.5144 40.2733 82.1888 40.4612C81.663 40.7648 81.4251 41.0901 81.4752 41.4371C81.519 41.7805 81.8383 42.1239 82.433 42.4672C83.0403 42.8178 83.6506 43.0076 84.2642 43.0365C84.8777 43.0582 85.4411 42.9209 85.9545 42.6245Z" fill="white"/>
</g>
</g>
</svg>
