<svg width="119" height="69" viewBox="0 0 119 69" fill="none" xmlns="http://www.w3.org/2000/svg">
<rect width="119" height="69" fill="#F5F5F5"/>
<path id="grid" d="M64.1292 1L87.055 50.6839L1 37.4476M65.9455 2.04867L2.81635 38.4963M67.7619 3.09734L4.6327 39.545M67.7619 3.09734L89.1593 49.469L3.10431 36.2327L4.6327 39.545M67.7619 3.09734L62.0249 2.21492L84.9507 51.8988L4.6327 39.545M69.5782 4.14601L6.44905 40.5936M71.3946 5.19468L8.2654 41.6423M71.3946 5.19468L91.2636 48.254L5.20862 35.0178L8.2654 41.6423M71.3946 5.19468L59.9206 3.42984L82.8464 53.1137L8.2654 41.6423M73.2109 6.24334L10.0817 42.691M75.0273 7.29201L11.8981 43.7397M75.0273 7.29201L93.3679 47.0391L7.31292 33.8029L11.8981 43.7397M75.0273 7.29201L57.8162 4.64476L80.7421 54.3287L11.8981 43.7397M76.8436 8.34068L13.7144 44.7883M78.6599 9.38935L15.5308 45.837M78.6599 9.38935L95.4722 45.8242L9.41722 32.588L15.5308 45.837M78.6599 9.38935L55.7119 5.85969L78.6378 55.5436L15.5308 45.837M80.4763 10.438L17.3471 46.8857M82.2926 11.4867L19.1635 47.9343M82.2926 11.4867L97.5765 44.6093L11.5215 31.373L19.1635 47.9343M82.2926 11.4867L53.6076 7.07461L76.5335 56.7585L19.1635 47.9343M84.109 12.5354L20.9798 48.983M85.9253 13.584L22.7962 50.0317M85.9253 13.584L99.6809 43.3944L13.6258 30.1581L22.7962 50.0317M85.9253 13.584L51.5033 8.28953L74.4292 57.9734L22.7962 50.0317M87.7417 14.6327L24.6125 51.0803M89.558 15.6814L26.4289 52.129M89.558 15.6814L101.785 42.1794L15.7301 28.9432L26.4289 52.129M89.558 15.6814L49.399 9.50445L72.3249 59.1883L26.4289 52.129M91.3744 16.73L28.2452 53.1777M93.1907 17.7787L30.0616 54.2263M93.1907 17.7787L103.889 40.9645L17.8344 27.7283L30.0616 54.2263M93.1907 17.7787L47.2947 10.7194L70.2206 60.4033L30.0616 54.2263M95.0071 18.8274L31.8779 55.275M96.8234 19.876L33.6943 56.3237M96.8234 19.876L105.994 39.7496L19.9388 26.5133L33.6943 56.3237M96.8234 19.876L45.1904 11.9343L68.1163 61.6182L33.6943 56.3237M98.6398 20.9247L35.5106 57.3723M100.456 21.9734L37.327 58.421M100.456 21.9734L108.098 38.5347L22.0431 25.2984L37.327 58.421M100.456 21.9734L43.0861 13.1492L66.012 62.8331L37.327 58.421M102.272 23.022L39.1433 59.4697M104.089 24.0707L40.9597 60.5184M104.089 24.0707L110.202 37.3198L24.1474 24.0835L40.9597 60.5184M104.089 24.0707L40.9818 14.3641L63.9077 64.048L40.9597 60.5184M105.905 25.1194L42.776 61.567M107.722 26.1681L44.5924 62.6157M107.722 26.1681L112.307 36.1048L26.2517 22.8686L44.5924 62.6157M107.722 26.1681L38.8775 15.5791L61.8034 65.2629L44.5924 62.6157M109.538 27.2167L46.4087 63.6644M111.354 28.2654L48.2251 64.713M111.354 28.2654L114.411 34.8899L28.356 21.6537L48.2251 64.713M111.354 28.2654L36.7732 16.794L59.6991 66.4779L48.2251 64.713M113.171 29.3141L50.0414 65.7617M114.987 30.3627L51.8577 66.8104M114.987 30.3627L116.515 33.675L30.4603 20.4387L51.8577 66.8104M114.987 30.3627L34.6689 18.0089L57.5947 67.6928L51.8577 66.8104M116.803 31.4114L53.6741 67.859M118.62 32.4601L32.5646 19.2238L55.4904 68.9077" stroke="#8497D1" stroke-width="0.2"/>
</svg>
